<svg xmlns="http://www.w3.org/2000/svg" height="18" viewBox="0 0 18 18" width="18">
  <defs>
    <style>
      .a {
        fill: #000000;
      }
    </style>
  </defs>
  <title>S DividePath 18 N</title>
  <rect id="Canvas" fill="#ff13dc" opacity="0" width="18" height="18" /><rect class="a" height="6" width="6" x="6" y="6" />
  <path class="a" d="M5,5h7V2.5a.5.5,0,0,0-.5-.5h-9a.5.5,0,0,0-.5.5v9a.5.5,0,0,0,.5.5H5Z" />
  <path class="a" d="M15.5,6H13v7H6v2.5a.5.5,0,0,0,.5.5h9a.5.5,0,0,0,.5-.5v-9A.5.5,0,0,0,15.5,6Z" />
</svg>