<svg xmlns="http://www.w3.org/2000/svg" height="18" viewBox="0 0 18 18" width="18">
  <defs>
    <style>
      .a, .b, .c, .d, .e, .f, .g, .h, .i, .j, .k, .l, .m, .n {
        fill: #000000;
      }

      .a {
        opacity: 0.9;
      }

      .a, .b, .c, .d, .e, .f, .g, .h, .i, .j, .k, .l, .m {
        isolation: isolate;
      }

      .b {
        opacity: 0.8;
      }

      .c {
        opacity: 0.7;
      }

      .d {
        opacity: 0.6;
      }

      .e {
        opacity: 0.5;
      }

      .f {
        opacity: 0.4;
      }

      .g {
        opacity: 0.25;
      }

      .h {
        opacity: 0.3;
      }

      .i {
        opacity: 0.35;
      }

      .j {
        opacity: 0.2;
      }

      .k {
        opacity: 0.15;
      }

      .l {
        opacity: 0.1;
      }

      .m {
        opacity: 0.05;
      }
    </style>
  </defs>
  <title>S Gradient 18 N</title>
  <rect id="Canvas" fill="#ff13dc" opacity="0" width="18" height="18" /><rect class="a" height="12" width="1" x="2" y="3" />
  <rect class="b" height="12" width="1" x="3" y="3" />
  <rect class="c" height="12" width="1" x="4" y="3" />
  <rect class="d" height="12" width="1" x="5" y="3" />
  <rect class="e" height="12" width="1" x="6" y="3" />
  <rect class="f" height="12" width="1" x="7" y="3" />
  <rect class="g" height="12" width="1" x="10" y="3" />
  <rect class="h" height="12" width="1" x="9" y="3" />
  <rect class="i" height="12" width="1" x="8" y="3" />
  <rect class="j" height="12" width="1" x="11" y="3" />
  <rect class="k" height="12" width="1" x="12" y="3" />
  <rect class="l" height="12" width="1" x="13" y="3" />
  <rect class="m" height="12" width="1" x="14" y="3" />
  <path class="n" d="M1,2.5v13a.5.5,0,0,0,.5.5h15a.5.5,0,0,0,.5-.5V2.5a.5.5,0,0,0-.5-.5H1.5A.5.5,0,0,0,1,2.5ZM16,15H2V3H16Z" />
</svg>