<svg xmlns="http://www.w3.org/2000/svg" height="18" viewBox="0 0 18 18" width="18">
  <defs>
    <style>
      .a {
        fill: #000000;
      }
    </style>
  </defs>
  <title>S ImageCarousel 18 N</title>
  <rect id="Canvas" fill="#ff13dc" opacity="0" width="18" height="18" /><rect class="a" height="11" rx="0.5" width="12" x="3" y="1" />
  <path class="a" d="M2,11H.5a.5.5,0,0,1-.5-.5v-7A.5.5,0,0,1,.5,3H2Z" />
  <path class="a" d="M17.5,11H16V3h1.5a.5.5,0,0,1,.5.5v7A.5.5,0,0,1,17.5,11Z" />
  <circle class="a" cx="4" cy="15" r="0.7" />
  <circle class="a" cx="7" cy="15" r="1.05" />
  <circle class="a" cx="10" cy="15" r="0.7" />
  <circle class="a" cx="13" cy="15" r="0.7" />
</svg>