<?xml version="1.0" encoding="utf-8"?>
<svg version="1.1" xmlns="http://www.w3.org/2000/svg" xmlns:xlink="http://www.w3.org/1999/xlink">

<symbol id="adobe" viewBox="0 0 22.2 22.2">
    <title>Adobe</title> 
    <desc>Adobe Logo</desc>
	<polygon points="13.8,1.2 22.1,20.7 22.1,1.2"/>
	<polygon points="0,1.2 0,20.7 8.1,1.2"/>
	<polygon points="7.4,16.7 11.3,16.7 12.8,20.7 16.2,20.7 11,8.3"/>
</symbol>

<symbol id="facebook" viewBox="0 0 18 18">
    <title>Facebook</title> 
    <desc>Facebook Logo</desc>
    <path d="M10.5,18V9.8h3l0.4-3.2h-3.4v-2c0-0.9,0.3-1.6,1.7-1.6H14V0.1C13.1,0,12.2,0,11.3,0C8.7,0,6.9,1.5,6.9,4.2v2.4
	H4v3.2h3V18H10.5L10.5,18z"/>
</symbol>

<symbol id="instagram" viewBox="0 0 24 24">
    <title>Instagram</title> 
    <desc>Instagram Logo</desc>
    <path d="M12 2.163c3.204 0 3.584.012 4.85.07 3.252.148 4.771 1.691 4.919 4.919.058 1.265.069 1.645.069 4.849 0 3.205-.012 3.584-.069 4.849-.149 3.225-1.664 4.771-4.919 4.919-1.266.058-1.644.07-4.85.07-3.204 0-3.584-.012-4.849-.07-3.26-.149-4.771-1.699-4.919-4.92-.058-1.265-.07-1.644-.07-4.849 0-3.204.013-3.583.07-4.849.149-3.227 1.664-4.771 4.919-4.919 1.266-.057 1.645-.069 4.849-.069zm0-2.163c-3.259 0-3.667.014-4.947.072-4.358.2-6.78 2.618-6.98 6.98-.059 1.281-.073 1.689-.073 4.948 0 3.259.014 3.668.072 4.948.2 4.358 2.618 6.78 6.98 6.98 1.281.058 1.689.072 4.948.072 3.259 0 3.668-.014 4.948-.072 4.354-.2 6.782-2.618 6.979-6.98.059-1.28.073-1.689.073-4.948 0-3.259-.014-3.667-.072-4.947-.196-4.354-2.617-6.78-6.979-6.98-1.281-.059-1.69-.073-4.949-.073zm0 5.838c-3.403 0-6.162 2.759-6.162 6.162s2.759 6.163 6.162 6.163 6.162-2.759 6.162-6.163c0-3.403-2.759-6.162-6.162-6.162zm0 10.162c-2.209 0-4-1.79-4-4 0-2.209 1.791-4 4-4s4 1.791 4 4c0 2.21-1.791 4-4 4zm6.406-11.845c-.796 0-1.441.645-1.441 1.44s.645 1.44 1.441 1.44c.795 0 1.439-.645 1.439-1.44s-.644-1.44-1.439-1.44z"></path>
</symbol>

<symbol id="linkedin" viewBox="0 0 17 17.1">
    <title>LinkedIn</title> 
    <desc>LinkedIn Logo</desc>
    <path d="M3.7,16.3H0.4V5.7h3.3V16.3z M2,4.4L2,4.4C1,4.5,0.1,3.7,0,2.7c0-0.1,0-0.1,0-0.2c0-1,0.8-1.9,1.9-1.8c0,0,0.1,0,0.1,0
	c1-0.1,1.9,0.6,2,1.6c0.1,1-0.6,1.9-1.6,2C2.3,4.4,2.1,4.4,2,4.4z M17,16.3h-3.8v-5.5c0-1.4-0.6-2.4-1.9-2.4c-0.8,0-1.5,0.5-1.8,1.3
	c-0.1,0.3-0.1,0.6-0.1,0.9v5.7H5.8c0,0,0-9.7,0-10.6h3.7v1.7c0.7-1.2,2-1.9,3.3-1.8c2.4,0,4.2,1.5,4.2,4.8V16.3z"/>
</symbol>

<symbol id="twitter" viewBox="0 0 17.2 17.2">
    <title>Twitter</title> 
    <desc>Twitter Logo</desc>
    <path d="M17.2,3.3L17.2,3.3 M11.9,1.6c-2,0-3.5,1.6-3.5,3.5c0,0.3,0,0.5,0.1,0.8C5.6,5.8,3,4.5,1.2,2.3C0.3,3.9,0.7,6,2.3,7
	C1.7,7,1.2,6.8,0.7,6.6c0,0,0,0,0,0c0,1.7,1.2,3.1,2.8,3.5c-0.3,0.1-0.6,0.1-0.9,0.1c-0.2,0-0.4,0-0.7-0.1c0.5,1.4,1.8,2.4,3.3,2.5
	c-1.3,1-2.8,1.5-4.4,1.5c-0.3,0-0.6,0-0.8,0c4.7,3,10.9,1.6,13.9-3c1-1.6,1.6-3.5,1.6-5.4c0-0.2,0-0.3,0-0.5
	c0.7-0.5,1.3-1.1,1.8-1.8c-0.6,0.3-1.3,0.5-2,0.6c0.7-0.4,1.3-1.1,1.6-2c-0.7,0.4-1.5,0.7-2.2,0.9C13.8,2,12.9,1.6,11.9,1.6"/>
</symbol>

<symbol id="youtube" viewBox="0 0 24 23.9">
    <title>YouTube</title> 
    <desc>YouTube Logo</desc>
    <path d="M23.7,7.1c-0.1-0.9-0.4-1.7-1-2.4c-0.6-0.6-1.5-1-2.4-1C17,3.4,12,3.4,12,3.4h0c0,0-5,0-8.4,0.2c-0.9,0-1.8,0.4-2.4,1
	c-0.5,0.7-0.8,1.5-1,2.4C0.1,8.4,0,9.7,0,11v1.8c0,1.3,0.1,2.6,0.2,3.9c0.1,0.9,0.4,1.7,1,2.4c0.7,0.7,1.7,1,2.6,1
	c1.9,0.2,8.2,0.2,8.2,0.2s5,0,8.4-0.2c0.9,0,1.8-0.4,2.4-1c0.5-0.7,0.8-1.5,1-2.4c0.1-1.3,0.2-2.6,0.2-3.9V11
	C24,9.7,23.9,8.4,23.7,7.1z M9.5,15.1V8.3l6.5,3.4L9.5,15.1z"/>
</symbol>

<symbol id="discord" viewBox="0 0 245 240">
    <title>Discord</title> 
    <desc>Discord Logo</desc>
	<path d="M104.4 103.9c-5.7 0-10.2 5-10.2 11.1s4.6 11.1 10.2 11.1c5.7 0 10.2-5 10.2-11.1.1-6.1-4.5-11.1-10.2-11.1zM140.9 103.9c-5.7 0-10.2 5-10.2 11.1s4.6 11.1 10.2 11.1c5.7 0 10.2-5 10.2-11.1s-4.5-11.1-10.2-11.1z"/>
	<path d="M189.5 20h-134C44.2 20 35 29.2 35 40.6v135.2c0 11.4 9.2 20.6 20.5 20.6h113.4l-5.3-18.5 12.8 11.9 12.1 11.2 21.5 19V40.6c0-11.4-9.2-20.6-20.5-20.6zm-38.6 130.6s-3.6-4.3-6.6-8.1c13.1-3.7 18.1-11.9 18.1-11.9-4.1 2.7-8 4.6-11.5 5.9-5 2.1-9.8 3.5-14.5 4.3-9.6 1.8-18.4 1.3-25.9-.1-5.7-1.1-10.6-2.7-14.7-4.3-2.3-.9-4.8-2-7.3-3.4-.3-.2-.6-.3-.9-.5-.2-.1-.3-.2-.4-.3-1.8-1-2.8-1.7-2.8-1.7s4.8 8 17.5 11.8c-3 3.8-6.7 8.3-6.7 8.3-22.1-.7-30.5-15.2-30.5-15.2 0-32.2 14.4-58.3 14.4-58.3 14.4-10.8 28.1-10.5 28.1-10.5l1 1.2c-18 5.2-26.3 13.1-26.3 13.1s2.2-1.2 5.9-2.9c10.7-4.7 19.2-6 22.7-6.3.6-.1 1.1-.2 1.7-.2 6.1-.8 13-1 20.2-.2 9.5 1.1 19.7 3.9 30.1 9.6 0 0-7.9-7.5-24.9-12.7l1.4-1.6s13.7-.3 28.1 10.5c0 0 14.4 26.1 14.4 58.3 0 0-8.5 14.5-30.6 15.2z"/>
</symbol>

<symbol id="behance" viewBox="0 0 152.5 28.2">
    <title>Behance</title> 
    <desc>Behance Logo</desc>
	<path d="M13.1 0c1.3 0 2.5.1 3.6.4 1.1.2 2 .6 2.8 1.1.8.5 1.4 1.2 1.8 2.1.4.9.6 2 .6 3.2 0 1.4-.3 2.6-1 3.5-.6.9-1.6 1.7-2.8 2.3 1.7.5 3 1.4 3.8 2.6.8 1.2 1.3 2.7 1.3 4.4 0 1.4-.3 2.6-.8 3.6s-1.3 1.9-2.2 2.5c-.9.6-2 1.1-3.2 1.4-1.2.3-2.4.5-3.6.5H0V0h13.1zm-.8 11.2c1.1 0 2-.3 2.7-.8.7-.5 1-1.4 1-2.5 0-.6-.1-1.2-.3-1.6-.2-.4-.5-.7-.9-1-.4-.2-.8-.4-1.3-.5-.5-.1-1-.1-1.6-.1H6.1v6.5h6.2zm.3 11.8c.6 0 1.2-.1 1.7-.2s1-.3 1.4-.6c.4-.3.7-.6 1-1.1.2-.5.4-1.1.4-1.8 0-1.4-.4-2.4-1.2-3.1-.8-.6-1.9-.9-3.2-.9H6.1V23h6.5zM31.9 22.9c.8.8 2 1.2 3.6 1.2 1.1 0 2.1-.3 2.9-.8.8-.6 1.3-1.2 1.5-1.8h4.9c-.8 2.4-2 4.1-3.6 5.2-1.6 1-3.5 1.6-5.8 1.6-1.6 0-3-.3-4.3-.8-1.3-.5-2.3-1.2-3.2-2.2-.9-.9-1.6-2-2-3.3-.5-1.3-.7-2.7-.7-4.3 0-1.5.2-2.9.7-4.2.5-1.3 1.2-2.4 2.1-3.4.9-.9 2-1.7 3.2-2.2 1.3-.5 2.6-.8 4.2-.8 1.7 0 3.2.3 4.5 1 1.3.7 2.3 1.5 3.1 2.7.8 1.1 1.4 2.4 1.8 3.8.2 1.4.3 2.8.2 4.4H30.5c0 1.6.6 3.1 1.4 3.9zm6.3-10.5c-.7-.7-1.8-1.1-3.1-1.1-.9 0-1.6.2-2.2.5-.6.3-1 .7-1.4 1.1-.4.4-.6.9-.7 1.4-.1.5-.2.9-.2 1.3h9c-.2-1.5-.7-2.5-1.4-3.2zM52.8 0v10.4h.1c.7-1.2 1.6-2 2.7-2.5s2.1-.8 3.2-.8c1.5 0 2.7.2 3.6.6.9.4 1.7 1 2.2 1.7.5.7.9 1.6 1.1 2.6.2 1 .3 2.1.3 3.4v12.3h-5.5V16.4c0-1.7-.3-2.9-.8-3.7-.5-.8-1.4-1.2-2.7-1.2-1.5 0-2.6.5-3.2 1.3-.7.9-1 2.4-1 4.4v10.5h-5.5V0h5.5zM70 10.6c.6-.9 1.3-1.5 2.2-2.1.9-.5 1.9-.9 3-1.1 1.1-.2 2.2-.3 3.3-.3 1 0 2 .1 3.1.2 1 .1 2 .4 2.8.8.9.4 1.5 1 2.1 1.7.5.7.8 1.7.8 2.9v10.5c0 .9.1 1.8.2 2.6s.4 1.5.7 1.9h-5.6c-.2-.2-.3-.6-.4-.9-.1-.3-.1-.7-.1-1-.9.9-1.9 1.5-3.1 1.9-1.2.4-2.4.5-3.6.5-1 0-1.8-.1-2.7-.4-.8-.2-1.5-.6-2.2-1.1-.6-.5-1.1-1.1-1.5-1.9-.3-.8-.5-1.6-.5-2.7s.2-2.1.6-2.8c.4-.7.9-1.3 1.5-1.8.6-.4 1.4-.8 2.2-1 .8-.2 1.6-.4 2.5-.5l2.4-.3c.8-.1 1.5-.2 2.1-.3.6-.2 1.1-.4 1.5-.7.4-.3.5-.7.5-1.3 0-.6-.1-1.1-.3-1.4-.2-.3-.5-.6-.8-.8-.3-.2-.7-.3-1.1-.4-.4-.1-.9-.1-1.4-.1-1.1 0-1.9.2-2.5.7-.6.5-1 1.3-1.1 2.3h-5.5c0-1.2.4-2.3.9-3.1zm10.9 7.8c-.3.1-.7.2-1.1.3-.4.1-.8.1-1.3.2-.4.1-.9.1-1.3.2l-1.2.3c-.4.1-.8.3-1 .5-.3.2-.5.5-.7.8-.3.4-.3.8-.3 1.3s.1.9.3 1.2c.2.3.4.6.7.8.3.2.7.3 1.1.4.4.1.8.1 1.3.1 1.1 0 1.9-.2 2.5-.5.6-.4 1-.8 1.3-1.3.3-.5.5-1 .5-1.5.1-.5.1-.9.1-1.2v-2.1c-.3.2-.6.4-.9.5zM95.6 7.6v2.8h.1c.7-1.2 1.6-2 2.7-2.5s2.3-.8 3.4-.8c1.5 0 2.7.2 3.6.6 1 .4 1.7 1 2.2 1.7.5.7.9 1.6 1.2 2.6.2 1 .3 2.1.3 3.4v12.3h-5.5V16.4c0-1.7-.3-2.9-.8-3.7-.5-.8-1.4-1.3-2.8-1.3-1.5 0-2.6.6-3.3 1.5-.7.9-1 2.4-1 4.4v10.5h-5.5V7.6h5.4zM121.4 11.2c-.9 0-1.6.2-2.2.6-.6.4-1.1.9-1.5 1.6-.4.6-.6 1.3-.8 2.1-.2.8-.2 1.5-.2 2.3 0 .7.1 1.5.2 2.2.2.8.4 1.4.8 2 .4.6.8 1.1 1.4 1.5.6.4 1.3.6 2.2.6 1.3 0 2.3-.4 3.1-1.1.7-.7 1.2-1.7 1.3-3h5.3c-.4 2.7-1.4 4.7-3.1 6.1-1.7 1.4-3.9 2.1-6.6 2.1-1.5 0-2.9-.3-4.1-.8-1.3-.5-2.3-1.2-3.2-2.1-.9-.9-1.6-2-2.1-3.2-.5-1.3-.7-2.6-.7-4.1 0-1.6.2-3 .7-4.3.5-1.3 1.1-2.5 2-3.5.9-1 2-1.7 3.2-2.3 1.3-.5 2.7-.8 4.3-.8 1.2 0 2.3.2 3.4.5s2.1.8 2.9 1.4c.9.6 1.6 1.4 2.1 2.4.5.9.8 2.1.9 3.4h-5.4c-.2-2.4-1.5-3.6-3.9-3.6zM29.4 1.9h11.2v2.7H29.4zM139.3 22.9c.8.8 2.1 1.2 3.6 1.2 1.1 0 2.1-.3 2.9-.8.8-.6 1.3-1.2 1.5-1.8h4.8c-.8 2.4-2 4.1-3.6 5.2-1.6 1-3.5 1.6-5.8 1.6-1.6 0-3-.3-4.3-.8-1.3-.5-2.3-1.2-3.2-2.2-.9-.9-1.6-2-2-3.3-.5-1.3-.7-2.7-.7-4.3 0-1.5.2-2.9.7-4.2.5-1.3 1.2-2.4 2.1-3.4.9-.9 2-1.7 3.2-2.2 1.3-.5 2.7-.8 4.2-.8 1.7 0 3.2.3 4.4 1 1.3.7 2.3 1.5 3.1 2.7.8 1.1 1.4 2.4 1.8 3.8.4 1.4.5 2.9.4 4.5h-14.5c0 1.5.6 3 1.4 3.8zm6.4-10.5c-.7-.7-1.8-1.1-3.1-1.1-.9 0-1.6.2-2.2.5-.6.3-1.1.7-1.4 1.1-.3.4-.6.9-.7 1.4-.1.5-.2.9-.2 1.3h9c-.3-1.5-.8-2.5-1.4-3.2z"></path>
</symbol>

</svg>
