<?xml version="1.0" encoding="utf-8"?>
<svg version="1.1" xmlns="http://www.w3.org/2000/svg" xmlns:xlink="http://www.w3.org/1999/xlink">

<symbol id="adobe" viewBox="0 0 22.2 22.2">
    <title>Adobe</title> 
    <desc>Adobe Logo</desc>
	<polygon points="13.8,1.2 22.1,20.7 22.1,1.2"/>
	<polygon points="0,1.2 0,20.7 8.1,1.2"/>
	<polygon points="7.4,16.7 11.3,16.7 12.8,20.7 16.2,20.7 11,8.3"/>
</symbol>

<symbol id="adobe-red" viewBox="0 0 22.2 22.2">
    <title>Adobe</title> 
    <desc>Adobe Logo</desc>
	<polygon points="13.8,1.2 22.1,20.7 22.1,1.2" fill="#fa0f00"/>
	<polygon points="0,1.2 0,20.7 8.1,1.2" fill="#fa0f00"/>
	<polygon points="7.4,16.7 11.3,16.7 12.8,20.7 16.2,20.7 11,8.3" fill="#fa0f00"/>
</symbol>

<symbol id="facebook" viewBox="0 0 18 18">
    <title>Facebook</title> 
    <desc>Facebook Logo</desc>
    <path d="M10.5,18V9.8h3l0.4-3.2h-3.4v-2c0-0.9,0.3-1.6,1.7-1.6H14V0.1C13.1,0,12.2,0,11.3,0C8.7,0,6.9,1.5,6.9,4.2v2.4
	H4v3.2h3V18H10.5L10.5,18z"/>
</symbol>

<symbol id="instagram" viewBox="0 0 24 24">
    <title>Instagram</title> 
    <desc>Instagram Logo</desc>
    <path d="M12 2.163c3.204 0 3.584.012 4.85.07 3.252.148 4.771 1.691 4.919 4.919.058 1.265.069 1.645.069 4.849 0 3.205-.012 3.584-.069 4.849-.149 3.225-1.664 4.771-4.919 4.919-1.266.058-1.644.07-4.85.07-3.204 0-3.584-.012-4.849-.07-3.26-.149-4.771-1.699-4.919-4.92-.058-1.265-.07-1.644-.07-4.849 0-3.204.013-3.583.07-4.849.149-3.227 1.664-4.771 4.919-4.919 1.266-.057 1.645-.069 4.849-.069zm0-2.163c-3.259 0-3.667.014-4.947.072-4.358.2-6.78 2.618-6.98 6.98-.059 1.281-.073 1.689-.073 4.948 0 3.259.014 3.668.072 4.948.2 4.358 2.618 6.78 6.98 6.98 1.281.058 1.689.072 4.948.072 3.259 0 3.668-.014 4.948-.072 4.354-.2 6.782-2.618 6.979-6.98.059-1.28.073-1.689.073-4.948 0-3.259-.014-3.667-.072-4.947-.196-4.354-2.617-6.78-6.979-6.98-1.281-.059-1.69-.073-4.949-.073zm0 5.838c-3.403 0-6.162 2.759-6.162 6.162s2.759 6.163 6.162 6.163 6.162-2.759 6.162-6.163c0-3.403-2.759-6.162-6.162-6.162zm0 10.162c-2.209 0-4-1.79-4-4 0-2.209 1.791-4 4-4s4 1.791 4 4c0 2.21-1.791 4-4 4zm6.406-11.845c-.796 0-1.441.645-1.441 1.44s.645 1.44 1.441 1.44c.795 0 1.439-.645 1.439-1.44s-.644-1.44-1.439-1.44z"></path>
</symbol>

<symbol id="linkedin" viewBox="0 0 17 17.1">
    <title>LinkedIn</title> 
    <desc>LinkedIn Logo</desc>
    <path d="M3.7,16.3H0.4V5.7h3.3V16.3z M2,4.4L2,4.4C1,4.5,0.1,3.7,0,2.7c0-0.1,0-0.1,0-0.2c0-1,0.8-1.9,1.9-1.8c0,0,0.1,0,0.1,0
	c1-0.1,1.9,0.6,2,1.6c0.1,1-0.6,1.9-1.6,2C2.3,4.4,2.1,4.4,2,4.4z M17,16.3h-3.8v-5.5c0-1.4-0.6-2.4-1.9-2.4c-0.8,0-1.5,0.5-1.8,1.3
	c-0.1,0.3-0.1,0.6-0.1,0.9v5.7H5.8c0,0,0-9.7,0-10.6h3.7v1.7c0.7-1.2,2-1.9,3.3-1.8c2.4,0,4.2,1.5,4.2,4.8V16.3z"/>
</symbol>

<symbol id="twitter" viewBox="0 0 17.2 17.2">
    <title>Twitter</title> 
    <desc>Twitter Logo</desc>
    <path d="M17.2,3.3L17.2,3.3 M11.9,1.6c-2,0-3.5,1.6-3.5,3.5c0,0.3,0,0.5,0.1,0.8C5.6,5.8,3,4.5,1.2,2.3C0.3,3.9,0.7,6,2.3,7
	C1.7,7,1.2,6.8,0.7,6.6c0,0,0,0,0,0c0,1.7,1.2,3.1,2.8,3.5c-0.3,0.1-0.6,0.1-0.9,0.1c-0.2,0-0.4,0-0.7-0.1c0.5,1.4,1.8,2.4,3.3,2.5
	c-1.3,1-2.8,1.5-4.4,1.5c-0.3,0-0.6,0-0.8,0c4.7,3,10.9,1.6,13.9-3c1-1.6,1.6-3.5,1.6-5.4c0-0.2,0-0.3,0-0.5
	c0.7-0.5,1.3-1.1,1.8-1.8c-0.6,0.3-1.3,0.5-2,0.6c0.7-0.4,1.3-1.1,1.6-2c-0.7,0.4-1.5,0.7-2.2,0.9C13.8,2,12.9,1.6,11.9,1.6"/>
</symbol>

<symbol id="youtube" viewBox="0 0 24 23.9">
    <title>YouTube</title> 
    <desc>YouTube Logo</desc>
    <path d="M23.7,7.1c-0.1-0.9-0.4-1.7-1-2.4c-0.6-0.6-1.5-1-2.4-1C17,3.4,12,3.4,12,3.4h0c0,0-5,0-8.4,0.2c-0.9,0-1.8,0.4-2.4,1
	c-0.5,0.7-0.8,1.5-1,2.4C0.1,8.4,0,9.7,0,11v1.8c0,1.3,0.1,2.6,0.2,3.9c0.1,0.9,0.4,1.7,1,2.4c0.7,0.7,1.7,1,2.6,1
	c1.9,0.2,8.2,0.2,8.2,0.2s5,0,8.4-0.2c0.9,0,1.8-0.4,2.4-1c0.5-0.7,0.8-1.5,1-2.4c0.1-1.3,0.2-2.6,0.2-3.9V11
	C24,9.7,23.9,8.4,23.7,7.1z M9.5,15.1V8.3l6.5,3.4L9.5,15.1z"/>
</symbol>

<symbol id="discord" viewBox="0 0 245 240">
    <title>Discord</title> 
    <desc>Discord Logo</desc>
	<path d="M104.4 103.9c-5.7 0-10.2 5-10.2 11.1s4.6 11.1 10.2 11.1c5.7 0 10.2-5 10.2-11.1.1-6.1-4.5-11.1-10.2-11.1zM140.9 103.9c-5.7 0-10.2 5-10.2 11.1s4.6 11.1 10.2 11.1c5.7 0 10.2-5 10.2-11.1s-4.5-11.1-10.2-11.1z"/>
	<path d="M189.5 20h-134C44.2 20 35 29.2 35 40.6v135.2c0 11.4 9.2 20.6 20.5 20.6h113.4l-5.3-18.5 12.8 11.9 12.1 11.2 21.5 19V40.6c0-11.4-9.2-20.6-20.5-20.6zm-38.6 130.6s-3.6-4.3-6.6-8.1c13.1-3.7 18.1-11.9 18.1-11.9-4.1 2.7-8 4.6-11.5 5.9-5 2.1-9.8 3.5-14.5 4.3-9.6 1.8-18.4 1.3-25.9-.1-5.7-1.1-10.6-2.7-14.7-4.3-2.3-.9-4.8-2-7.3-3.4-.3-.2-.6-.3-.9-.5-.2-.1-.3-.2-.4-.3-1.8-1-2.8-1.7-2.8-1.7s4.8 8 17.5 11.8c-3 3.8-6.7 8.3-6.7 8.3-22.1-.7-30.5-15.2-30.5-15.2 0-32.2 14.4-58.3 14.4-58.3 14.4-10.8 28.1-10.5 28.1-10.5l1 1.2c-18 5.2-26.3 13.1-26.3 13.1s2.2-1.2 5.9-2.9c10.7-4.7 19.2-6 22.7-6.3.6-.1 1.1-.2 1.7-.2 6.1-.8 13-1 20.2-.2 9.5 1.1 19.7 3.9 30.1 9.6 0 0-7.9-7.5-24.9-12.7l1.4-1.6s13.7-.3 28.1 10.5c0 0 14.4 26.1 14.4 58.3 0 0-8.5 14.5-30.6 15.2z"/>
</symbol>

<symbol id="behance" viewBox="0 0 152.5 28.2">
    <title>Behance</title> 
    <desc>Behance Logo</desc>
	<path d="M13.1 0c1.3 0 2.5.1 3.6.4 1.1.2 2 .6 2.8 1.1.8.5 1.4 1.2 1.8 2.1.4.9.6 2 .6 3.2 0 1.4-.3 2.6-1 3.5-.6.9-1.6 1.7-2.8 2.3 1.7.5 3 1.4 3.8 2.6.8 1.2 1.3 2.7 1.3 4.4 0 1.4-.3 2.6-.8 3.6s-1.3 1.9-2.2 2.5c-.9.6-2 1.1-3.2 1.4-1.2.3-2.4.5-3.6.5H0V0h13.1zm-.8 11.2c1.1 0 2-.3 2.7-.8.7-.5 1-1.4 1-2.5 0-.6-.1-1.2-.3-1.6-.2-.4-.5-.7-.9-1-.4-.2-.8-.4-1.3-.5-.5-.1-1-.1-1.6-.1H6.1v6.5h6.2zm.3 11.8c.6 0 1.2-.1 1.7-.2s1-.3 1.4-.6c.4-.3.7-.6 1-1.1.2-.5.4-1.1.4-1.8 0-1.4-.4-2.4-1.2-3.1-.8-.6-1.9-.9-3.2-.9H6.1V23h6.5zM31.9 22.9c.8.8 2 1.2 3.6 1.2 1.1 0 2.1-.3 2.9-.8.8-.6 1.3-1.2 1.5-1.8h4.9c-.8 2.4-2 4.1-3.6 5.2-1.6 1-3.5 1.6-5.8 1.6-1.6 0-3-.3-4.3-.8-1.3-.5-2.3-1.2-3.2-2.2-.9-.9-1.6-2-2-3.3-.5-1.3-.7-2.7-.7-4.3 0-1.5.2-2.9.7-4.2.5-1.3 1.2-2.4 2.1-3.4.9-.9 2-1.7 3.2-2.2 1.3-.5 2.6-.8 4.2-.8 1.7 0 3.2.3 4.5 1 1.3.7 2.3 1.5 3.1 2.7.8 1.1 1.4 2.4 1.8 3.8.2 1.4.3 2.8.2 4.4H30.5c0 1.6.6 3.1 1.4 3.9zm6.3-10.5c-.7-.7-1.8-1.1-3.1-1.1-.9 0-1.6.2-2.2.5-.6.3-1 .7-1.4 1.1-.4.4-.6.9-.7 1.4-.1.5-.2.9-.2 1.3h9c-.2-1.5-.7-2.5-1.4-3.2zM52.8 0v10.4h.1c.7-1.2 1.6-2 2.7-2.5s2.1-.8 3.2-.8c1.5 0 2.7.2 3.6.6.9.4 1.7 1 2.2 1.7.5.7.9 1.6 1.1 2.6.2 1 .3 2.1.3 3.4v12.3h-5.5V16.4c0-1.7-.3-2.9-.8-3.7-.5-.8-1.4-1.2-2.7-1.2-1.5 0-2.6.5-3.2 1.3-.7.9-1 2.4-1 4.4v10.5h-5.5V0h5.5zM70 10.6c.6-.9 1.3-1.5 2.2-2.1.9-.5 1.9-.9 3-1.1 1.1-.2 2.2-.3 3.3-.3 1 0 2 .1 3.1.2 1 .1 2 .4 2.8.8.9.4 1.5 1 2.1 1.7.5.7.8 1.7.8 2.9v10.5c0 .9.1 1.8.2 2.6s.4 1.5.7 1.9h-5.6c-.2-.2-.3-.6-.4-.9-.1-.3-.1-.7-.1-1-.9.9-1.9 1.5-3.1 1.9-1.2.4-2.4.5-3.6.5-1 0-1.8-.1-2.7-.4-.8-.2-1.5-.6-2.2-1.1-.6-.5-1.1-1.1-1.5-1.9-.3-.8-.5-1.6-.5-2.7s.2-2.1.6-2.8c.4-.7.9-1.3 1.5-1.8.6-.4 1.4-.8 2.2-1 .8-.2 1.6-.4 2.5-.5l2.4-.3c.8-.1 1.5-.2 2.1-.3.6-.2 1.1-.4 1.5-.7.4-.3.5-.7.5-1.3 0-.6-.1-1.1-.3-1.4-.2-.3-.5-.6-.8-.8-.3-.2-.7-.3-1.1-.4-.4-.1-.9-.1-1.4-.1-1.1 0-1.9.2-2.5.7-.6.5-1 1.3-1.1 2.3h-5.5c0-1.2.4-2.3.9-3.1zm10.9 7.8c-.3.1-.7.2-1.1.3-.4.1-.8.1-1.3.2-.4.1-.9.1-1.3.2l-1.2.3c-.4.1-.8.3-1 .5-.3.2-.5.5-.7.8-.3.4-.3.8-.3 1.3s.1.9.3 1.2c.2.3.4.6.7.8.3.2.7.3 1.1.4.4.1.8.1 1.3.1 1.1 0 1.9-.2 2.5-.5.6-.4 1-.8 1.3-1.3.3-.5.5-1 .5-1.5.1-.5.1-.9.1-1.2v-2.1c-.3.2-.6.4-.9.5zM95.6 7.6v2.8h.1c.7-1.2 1.6-2 2.7-2.5s2.3-.8 3.4-.8c1.5 0 2.7.2 3.6.6 1 .4 1.7 1 2.2 1.7.5.7.9 1.6 1.2 2.6.2 1 .3 2.1.3 3.4v12.3h-5.5V16.4c0-1.7-.3-2.9-.8-3.7-.5-.8-1.4-1.3-2.8-1.3-1.5 0-2.6.6-3.3 1.5-.7.9-1 2.4-1 4.4v10.5h-5.5V7.6h5.4zM121.4 11.2c-.9 0-1.6.2-2.2.6-.6.4-1.1.9-1.5 1.6-.4.6-.6 1.3-.8 2.1-.2.8-.2 1.5-.2 2.3 0 .7.1 1.5.2 2.2.2.8.4 1.4.8 2 .4.6.8 1.1 1.4 1.5.6.4 1.3.6 2.2.6 1.3 0 2.3-.4 3.1-1.1.7-.7 1.2-1.7 1.3-3h5.3c-.4 2.7-1.4 4.7-3.1 6.1-1.7 1.4-3.9 2.1-6.6 2.1-1.5 0-2.9-.3-4.1-.8-1.3-.5-2.3-1.2-3.2-2.1-.9-.9-1.6-2-2.1-3.2-.5-1.3-.7-2.6-.7-4.1 0-1.6.2-3 .7-4.3.5-1.3 1.1-2.5 2-3.5.9-1 2-1.7 3.2-2.3 1.3-.5 2.7-.8 4.3-.8 1.2 0 2.3.2 3.4.5s2.1.8 2.9 1.4c.9.6 1.6 1.4 2.1 2.4.5.9.8 2.1.9 3.4h-5.4c-.2-2.4-1.5-3.6-3.9-3.6zM29.4 1.9h11.2v2.7H29.4zM139.3 22.9c.8.8 2.1 1.2 3.6 1.2 1.1 0 2.1-.3 2.9-.8.8-.6 1.3-1.2 1.5-1.8h4.8c-.8 2.4-2 4.1-3.6 5.2-1.6 1-3.5 1.6-5.8 1.6-1.6 0-3-.3-4.3-.8-1.3-.5-2.3-1.2-3.2-2.2-.9-.9-1.6-2-2-3.3-.5-1.3-.7-2.7-.7-4.3 0-1.5.2-2.9.7-4.2.5-1.3 1.2-2.4 2.1-3.4.9-.9 2-1.7 3.2-2.2 1.3-.5 2.7-.8 4.2-.8 1.7 0 3.2.3 4.4 1 1.3.7 2.3 1.5 3.1 2.7.8 1.1 1.4 2.4 1.8 3.8.4 1.4.5 2.9.4 4.5h-14.5c0 1.5.6 3 1.4 3.8zm6.4-10.5c-.7-.7-1.8-1.1-3.1-1.1-.9 0-1.6.2-2.2.5-.6.3-1.1.7-1.4 1.1-.3.4-.6.9-.7 1.4-.1.5-.2.9-.2 1.3h9c-.3-1.5-.8-2.5-1.4-3.2z"></path>
</symbol>

<symbol id="creative-cloud" viewBox="0 0.388 121.5 89.612">
	<defs><path id="a" d="M0 .39h121.5V90H0z"/></defs>
	<clipPath id="b"><use xlink:href="#a" overflow="visible"/></clipPath>
	<path d="M121.5 43.195v4c-.038.217-.086.43-.111.646-.207 1.74-.341 3.491-.627 5.218-.934 5.613-2.953 10.83-5.953 15.654-4.556 7.324-10.715 12.909-18.455 16.723a43.169 43.169 0 0 1-14.236 4.201c-1.1.127-2.199.241-3.299.362H36.135c-.215-.04-.429-.104-.646-.117-4.304-.271-8.445-1.252-12.392-2.979-8.593-3.76-15-9.854-19.194-18.242A35.884 35.884 0 0 1 .358 56.86C.237 55.861.119 54.863 0 53.865v-3.881c.041-.215.104-.43.117-.646.223-3.729.988-7.35 2.335-10.83 3.625-9.364 9.944-16.309 18.924-20.804 4.659-2.333 9.625-3.559 14.819-3.831 2.543-.132 5.084.01 7.612.349.229.031.559-.071.718-.234 3.635-3.713 7.774-6.729 12.441-9.015 4.527-2.217 9.291-3.646 14.306-4.218 1.18-.135 2.363-.246 3.545-.368h3.639c.238.037.477.079.715.107 1.803.21 3.616.342 5.402.641 5.572.935 10.759 2.935 15.559 5.906 7.36 4.556 12.969 10.723 16.801 18.487a43.067 43.067 0 0 1 4.205 14.246c.13 1.141.241 2.282.362 3.421M53.565 17.312c.073.096.091.141.122.156a48.613 48.613 0 0 1 7.139 4.317c.142.103.494.06.666-.048 6.188-3.921 12.896-5.274 20.102-3.996 7.061 1.252 12.807 4.78 17.197 10.415 4.971 6.377 6.866 13.588 5.494 21.611-.92 5.377-3.074 10.201-6.735 14.242-6.68 7.367-15.045 10.414-24.892 9.124-6.062-.794-11.295-3.409-15.626-7.786-5.559-5.615-11.154-11.193-16.729-16.793-.743-.746-1.57-1.346-2.64-1.477-1.869-.229-3.565.704-4.372 2.383-.72 1.499-.627 3.189.935 4.725 6.215 6.101 12.375 12.258 18.583 18.365a30.005 30.005 0 0 0 3.409 2.901c4.535 3.293 9.648 5.114 15.185 5.847 4.346.574 8.658.451 12.937-.511 8.162-1.833 14.923-5.999 20.248-12.427 4.397-5.312 7.056-11.416 7.983-18.269a35.81 35.81 0 0 0-.332-11.749c-1.235-6.33-3.913-11.994-8.204-16.815C95.848 12.334 85.548 8.23 73.291 9.146c-4.715.352-9.175 1.737-13.372 3.934a35.285 35.285 0 0 0-6.354 4.232m-2.999 64.176a79.384 79.384 0 0 1-.504-.471c-2.541-2.399-5.096-4.783-7.607-7.213-.486-.47-.933-.699-1.621-.683-2.543.062-5.088.073-7.594-.493-12.46-2.818-19.695-16.365-15.103-28.285 3.622-9.399 13.649-15.123 23.537-13.358 4.432.791 8.322 2.667 11.515 5.96 3.894 4.02 7.904 7.925 11.84 11.904.896.906 1.925 1.319 3.166 1.142 1.604-.229 2.881-.993 3.461-2.566.568-1.548.293-3.014-.879-4.201-4.131-4.185-8.164-8.475-12.462-12.482-8.336-7.775-18.166-10.087-29.038-6.781-14.623 4.443-23.181 19.543-19.84 34.443C12.482 71.98 24.355 81.508 38.248 81.52c3.879.004 7.759.002 11.638 0 .192 0 .384-.017.68-.032" clip-path="url(#b)"/>
</symbol>

<symbol id="premiere" viewBox="0 0 240 234">
<g id="Layer_2_1_">
	<g id="Surfaces">
		<g id="Video_Audio_Surface">
			<g id="Outline_no_shadow">
				<path fill="#00005B" d="M42.5,0h155C221,0,240,19,240,42.5v149c0,23.5-19,42.5-42.5,42.5h-155C19,234,0,215,0,191.5v-149
					C0,19,19,0,42.5,0z"/>
			</g>
		</g>
	</g>
	<g id="Outlined_Mnemonics_Logos">
		<g id="Pr">
			<path fill="#9999FF" d="M57,164.1V61.2c0-0.7,0.3-1.1,1-1.1c1.7,0,3.3,0,5.6-0.1c2.4-0.1,4.9-0.1,7.6-0.2c2.7-0.1,5.6-0.1,8.7-0.2
				c3.1-0.1,6.1-0.1,9.1-0.1c8.2,0,15,1,20.6,3.1c5,1.7,9.6,4.5,13.4,8.2c3.2,3.2,5.7,7.1,7.3,11.4c1.5,4.2,2.3,8.5,2.3,13
				c0,8.6-2,15.7-6,21.3s-9.6,9.8-16.1,12.2c-6.8,2.5-14.3,3.4-22.5,3.4c-2.4,0-4,0-5-0.1s-2.4-0.1-4.3-0.1V164
				c0.1,0.7-0.4,1.3-1.1,1.4c-0.1,0-0.2,0-0.4,0h-19C57.4,165.4,57,165,57,164.1z M78.8,79.4V113c1.4,0.1,2.7,0.2,3.9,0.2H88
				c3.9,0,7.8-0.6,11.5-1.8c3.2-0.9,6-2.8,8.2-5.3c2.1-2.5,3.1-5.9,3.1-10.3c0.1-3.1-0.7-6.2-2.3-8.9c-1.7-2.6-4.1-4.6-7-5.7
				c-3.7-1.5-7.7-2.1-11.8-2c-2.6,0-4.9,0-6.8,0.1C80.9,79.2,79.5,79.3,78.8,79.4L78.8,79.4z"/>
			<path fill="#9999FF" d="M146.6,85.2h17.5c1,0,1.8,0.7,2.1,1.6c0.3,0.8,0.5,1.6,0.6,2.5c0.2,1,0.4,2.1,0.5,3.1
				c0.1,1.1,0.2,2.3,0.2,3.6c3-3.5,6.6-6.4,10.7-8.6c4.6-2.6,9.9-3.9,15.2-3.9c0.7-0.1,1.3,0.4,1.4,1.1c0,0.1,0,0.2,0,0.4v19.5
				c0,0.8-0.5,1.1-1.6,1.1c-3.6-0.1-7.3,0.2-10.8,1c-2.9,0.6-5.7,1.5-8.4,2.7c-1.9,0.9-3.7,2.1-5.1,3.7v51c0,1-0.4,1.4-1.3,1.4
				h-19.7c-0.8,0.1-1.5-0.4-1.6-1.2c0-0.1,0-0.3,0-0.4v-55.4c0-2.4,0-4.9-0.1-7.5s-0.1-5.2-0.2-7.8c0-2.3-0.2-4.5-0.4-6.8
				c-0.1-0.5,0.2-1,0.7-1.1C146.3,85.1,146.5,85.1,146.6,85.2L146.6,85.2z"/>
		</g>
	</g>
</g>
</symbol>

<symbol id="character" viewBox="0 0 240 234">
    <title>Adobe Character Animator</title> 
    <desc>Adobe Character Animator Icon</desc>
	<path fill="#00005B" d="M42.5,0h155C221,0,240,19,240,42.5v149c0,23.5-19,42.5-42.5,42.5h-155C19,234,0,215,0,191.5v-149
		C0,19,19,0,42.5,0z"/>
	<path fill="#9999FF" d="M114.8,145.3v16.6c0.1,1-0.4,1.9-1.3,2.3c-3.1,1.1-6.2,1.8-9.5,2.2c-4.2,0.5-8.4,0.7-12.6,0.7
		c-6,0-12-0.7-17.8-2.2c-5.4-1.4-10.6-3.6-15.4-6.6c-4.6-2.9-8.6-6.6-11.9-10.9c-3.4-4.5-6.1-9.6-7.7-15c-1.9-6.3-2.8-12.8-2.7-19.3
		c0-10.8,2.4-20.4,7.1-28.6c4.7-8.2,11.7-14.9,20.1-19.2c9.6-4.9,20.3-7.4,31.1-7.2c4.2,0,8.3,0.2,12.5,0.6c2.9,0.3,5.7,1,8.5,1.9
		c0.6,0.5,0.9,1.2,0.8,1.9v18.1c0,1-0.4,1.3-1.1,1c-3-1.4-6.3-2.4-9.6-2.9c-3.9-0.6-7.8-0.9-11.8-0.9C87,77.7,80.6,79.2,75,82.3
		c-5,2.8-9.2,6.9-11.9,12c-2.9,5.6-4.3,11.8-4.2,18.1c-0.1,4.5,0.6,8.9,2,13.2c1.2,3.6,3.1,6.9,5.6,9.8c2.2,2.7,5,4.9,8,6.6
		c3,1.6,6.2,2.8,9.6,3.6c3.2,0.9,6.6,1.4,9.9,1.5c3.6,0,7.3-0.1,10.9-0.5c3-0.4,5.9-1.1,8.7-2.2c0.4-0.3,0.7-0.4,1-0.2
		C114.8,144.5,114.9,144.9,114.8,145.3z"/>
	<path fill="#9999FF" d="M151.8,107.3v56.4c0,0.9-0.4,1.3-1.1,1.3h-20.1c-0.7,0.1-1.3-0.4-1.4-1.1c0-0.1,0-0.2,0-0.4V52.4
		c0-0.7,0.4-1.1,1.3-1.1h20.3c0.5-0.1,1.1,0.3,1.1,0.8c0,0.1,0,0.2,0,0.3l0.1,38c2.9-1.9,6-3.5,9.3-4.7c3.4-1.2,7.3-1.5,11.8-1.5
		c3.2,0,6.4,0.5,9.4,1.4c3.2,0.9,6.2,2.5,8.8,4.7c2.7,2.4,4.6,5.7,6.2,9.8c1.6,4.1,2.4,9.5,2.4,16v47.4c0,1-0.4,1.4-1.3,1.4h-18.9
		c-0.8,0.1-1.5-0.4-1.6-1.2c0-0.1,0-0.3,0-0.4v-45c0.1-2.9-0.4-5.8-1.5-8.5c-0.9-2-2.3-3.8-4.2-5.1c-2.2-1.3-4.8-1.9-7.4-1.8
		c-2.4,0-4.8,0.3-7.1,1C155.7,104.8,153.6,105.9,151.8,107.3z"/>
</symbol>


<symbol id="illustrator" viewBox="0 0 240 234">
<g id="Layer_2_1_">
	<g id="Surfaces">
		<g id="Drawing_Surface">
			<g id="Outline_no_shadow">
				<path fill="#330000" d="M42.5,0h155C221,0,240,19,240,42.5v149c0,23.5-19,42.5-42.5,42.5h-155C19,234,0,215,0,191.5v-149
					C0,19,19,0,42.5,0z"/>
			</g>
		</g>
	</g>
	<g id="Outlined_Mnemonics_Logos">
		<g id="Ai">
			<path fill="#ff9a00" d="M116.3,140.4H79.1l-7.6,23.5c-0.2,0.9-1,1.5-1.9,1.4H50.8c-1.1,0-1.4-0.6-1.1-1.8l32.2-92.7
				c0.3-1,0.6-2.1,1-3.3c0.4-2.1,0.6-4.3,0.6-6.5c-0.1-0.5,0.3-1,0.8-1.1c0.1,0,0.2,0,0.3,0h25.6c0.8,0,1.2,0.3,1.3,0.8l36.5,103
				c0.3,1.1,0,1.6-1,1.6h-20.9c-0.7,0.1-1.4-0.4-1.6-1.1L116.3,140.4z M84.9,120.1h25.4c-0.6-2.1-1.4-4.6-2.3-7.2
				c-0.9-2.7-1.8-5.6-2.7-8.6c-1-3.1-1.9-6.1-2.9-9.2c-1-3.1-1.9-6-2.7-8.9c-0.8-2.8-1.5-5.4-2.2-7.8h-0.2c-0.9,4.3-2,8.6-3.4,12.9
				c-1.5,4.8-3,9.8-4.6,14.8C87.9,111.2,86.4,115.9,84.9,120.1L84.9,120.1z"/>
			<path fill="#ff9a00" d="M169.8,77c-3.3,0.1-6.5-1.2-8.9-3.5c-2.3-2.5-3.5-5.8-3.4-9.2c-0.1-3.4,1.2-6.6,3.6-8.9
				c2.4-2.3,5.6-3.5,8.9-3.5c3.9,0,6.9,1.2,9.1,3.5c2.2,2.4,3.4,5.6,3.3,8.9c0.1,3.4-1.1,6.7-3.5,9.2
				C176.6,75.9,173.2,77.2,169.8,77z M158.6,163.8v-77c0-1,0.4-1.4,1.3-1.4h19.8c0.9,0,1.3,0.5,1.3,1.4v77c0,1.1-0.4,1.6-1.3,1.6
				h-19.6C159.1,165.4,158.6,164.8,158.6,163.8z"/>
		</g>
	</g>
</g>
</symbol>

<symbol id="role-designer" viewBox="0 0 40 40">
    <g transform="translate(-377 -335)">
      <path d="M2361.221,3027.535l-2.182.5-2.192,8.786,1.635-.34Z" transform="translate(-1960.629 -2688.535)"/>
      <path d="M2352.177,3060.311l12.592-24.216-2.2.43-9.287,20.827,7.663-20.56-6.884,1.265,1.709-9.292-8.127,1.727-.009,15.464,5.6-1.017-1.148,15.345-.077.364.058-.111-.008.112Z" transform="translate(-1959.632 -2688.668)"/>
    </g>
</symbol>

<symbol id="role-engineer" viewBox="0 0 40 40">
    <path d="M778.709,151.789q.18-1.332.265-2.64c.005-.079.011-.159.015-.238s.01-.181.014-.272v-.021h0c.267-5.442-.788-10.423-3.662-13.967l0,0c-.077-.094-.155-.188-.234-.28l-.012-.014c-.075-.087-.152-.174-.229-.26l-.025-.027c-.073-.08-.147-.159-.222-.238l-.04-.041c-.07-.074-.142-.146-.215-.217-.018-.018-.036-.037-.054-.054-.07-.069-.142-.137-.215-.205l-.061-.058c-.093-.085-.187-.17-.283-.253-.1.083-.19.168-.283.253l-.061.058c-.072.068-.144.136-.215.205-.018.017-.035.035-.053.053-.073.072-.145.144-.216.218l-.039.041c-.075.078-.15.158-.223.238l-.025.028c-.077.085-.154.171-.228.258l-.015.018c-.078.091-.155.182-.23.275l-.01.012c-.076.1-.151.19-.224.286l-.011.015c-.073.094-.144.189-.213.286l-.006.008h0c-2.574,3.562-3.489,8.406-3.187,13.662.007.111.013.223.021.336h0c.056.837.143,1.685.259,2.539-3.495,2.481-4.394,5.825-3.224,9.856a1.179,1.179,0,0,0,.823.591c-.019-3.755,1.169-5.509,3.326-5.658q.154.622.327,1.245h2.312v.042a18.568,18.568,0,0,0,.472,4.335,33.881,33.881,0,0,1,.923,5.8,33.881,33.881,0,0,1,.923-5.8,18.568,18.568,0,0,0,.472-4.335v-.042h2.312q.173-.622.327-1.245c2.156.149,3.345,1.9,3.327,5.658a1.179,1.179,0,0,0,.822-.591C783.1,157.614,782.2,154.27,778.709,151.789Zm-4.693,10.447h-.579V150.791h.579Zm-.266-16.748a2.829,2.829,0,1,1,2.828-2.829A2.835,2.835,0,0,1,773.75,145.488Z" transform="matrix(0.719, 0.695, -0.695, 0.719, -431.651, -626.143)"/>
</symbol>

<symbol id="role-illustrator" viewBox="0 0 40 40">
    <g transform="translate(5 5)">
      <path d="M.573,0C.1,1.489-.2,2.835.158,3.092c.339.243,1.5-.111,2.8-.634A6.586,6.586,0,0,0,.573,0Z" transform="translate(0 27.339)"/>
      <path d="M8.086,5.776S7.77,4.629,5.564,2.55A11.858,11.858,0,0,0,2.01,0S.794,2.842,0,5.34a7.808,7.808,0,0,1,2.816,2.9C5.251,7.261,8.086,5.776,8.086,5.776Z" transform="translate(1.841 20.29)"/>
      <path d="M8.171,4.028,4.69.538a1.848,1.848,0,0,0-2.606,0L0,2.628l6.085,6.1L8.173,6.637A1.855,1.855,0,0,0,8.171,4.028Z" transform="translate(21.331 0)"/>
      <path d="M.241,14.061a1.723,1.723,0,0,0-.241.3,14.463,14.463,0,0,1,3.6,2.644,11.243,11.243,0,0,1,2.619,3.245c.036-.03.076-.056.113-.089L20.358,6.1,14.27,0Z" transform="translate(5.491 4.2)"	/>
    </g>
</symbol>

<symbol id="role-marketer" viewBox="0 0 40 40">
    <g transform="translate(-285.707 -376.421)">
      <path d="M316.3,389.5a2.4,2.4,0,0,0-2.813-1.9l1.564,8.049h0a2.4,2.4,0,0,0,1.9-2.814Z"/>
      <path d="M316.807,383.412h0v.006a.349.349,0,0,0-.456.184l-.994,2.6a.349.349,0,0,0,.61.333.39.39,0,0,0,.036-.067l.994-2.6A.35.35,0,0,0,316.807,383.412Z"/>
      <path d="M318.228,388.44a.345.345,0,0,0,.063-.042l2.086-1.849a.351.351,0,0,0,.045-.493l0,.005a.346.346,0,0,0-.487-.048h-.006l-2.085,1.849a.349.349,0,0,0,.386.577Z"/>
      <path d="M322.357,390.02h0a.346.346,0,0,0-.4-.286h-.007l-2.728.553a.349.349,0,0,0,.044.693.316.316,0,0,0,.075,0l2.729-.553a.349.349,0,0,0,.286-.4Z"/>
      <path d="M319.687,397.791l-1.9-2.04a.387.387,0,0,0-.059-.048.349.349,0,0,0-.44.537l1.895,2.039a.347.347,0,0,0,.491,0h0l0,.007a.35.35,0,0,0,.006-.495Z"/>
      <path d="M321.819,394.046l-2.627-.933a.377.377,0,0,0-.074-.016.349.349,0,0,0-.142.679l2.626.933a.346.346,0,0,0,.435-.225h.007A.349.349,0,0,0,321.819,394.046Z"/>
      <path d="M315.6,402.014l-3.941-20.275a.38.38,0,0,0-.049-.126.393.393,0,0,0-.539-.136L293.8,391.847c-.009.005-.011.016-.019.022l-1.277.248a3.464,3.464,0,0,0-2.737,4.057l.126.649a3.464,3.464,0,0,0,4.058,2.736l1.267-.246c.013,0,.022.016.037.018l4.514.715,1.7,8.755a1.39,1.39,0,0,0-.689,1.474l.014.069a1.393,1.393,0,0,0,1.632,1.1l3.541-.688a1.394,1.394,0,0,0,1.1-1.632l-.013-.07a1.389,1.389,0,0,0-1.19-1.108l-1.391-7.157,10.672,1.688a.367.367,0,0,0,.136,0v0A.393.393,0,0,0,315.6,402.014ZM309.915,385a.647.647,0,0,1-.076-.007.388.388,0,0,1-.142-.06.466.466,0,0,1-.058-.05.38.38,0,0,1-.048-.058.376.376,0,0,1-.06-.143.4.4,0,0,1,.06-.295.481.481,0,0,1,.049-.061.3.3,0,0,1,.061-.046.336.336,0,0,1,.067-.037.377.377,0,0,1,.152-.029.384.384,0,0,1,.076.008.305.305,0,0,1,.073.021.459.459,0,0,1,.069.037.536.536,0,0,1,.057.05.407.407,0,0,1,.086.128c.005.026.018.047.023.073a.644.644,0,0,1,.006.076.341.341,0,0,1-.009.079.357.357,0,0,1-.023.072.381.381,0,0,1-.284.235A.421.421,0,0,1,309.915,385Zm.208,2.714a.391.391,0,0,1,.307-.46.393.393,0,1,1,.151.772A.393.393,0,0,1,310.123,387.712Zm.588,3.03h0a.393.393,0,0,1,.308-.461.393.393,0,1,1,.15.772A.393.393,0,0,1,310.711,390.742Zm.59,3.031h0v0h0a.391.391,0,0,1,.308-.459.393.393,0,1,1,.15.771A.391.391,0,0,1,311.3,393.773Zm.589,3.031a.392.392,0,0,1,.308-.46.393.393,0,1,1,.15.772A.393.393,0,0,1,311.89,396.8Zm1.359,3.034a.313.313,0,0,1-.024.073.393.393,0,0,1-.034.068.494.494,0,0,1-.05.061.3.3,0,0,1-.06.046.442.442,0,0,1-.067.038.32.32,0,0,1-.074.024.353.353,0,0,1-.155,0,.357.357,0,0,1-.073-.02.581.581,0,0,1-.069-.038.4.4,0,0,1-.166-.251.527.527,0,0,1-.007-.079.479.479,0,0,1,.01-.076.283.283,0,0,1,.024-.071.393.393,0,0,1,.034-.068.737.737,0,0,1,.05-.061.554.554,0,0,1,.06-.049.7.7,0,0,1,.067-.035.4.4,0,0,1,.37.037.467.467,0,0,1,.058.05.331.331,0,0,1,.048.057.446.446,0,0,1,.038.067c.005.026.018.05.023.076a.668.668,0,0,1,.006.076A.331.331,0,0,1,313.249,399.838Z"/>
    </g>
</symbol>

<symbol id="role-architect" viewBox="0 0 40 40">
    <g transform="translate(-444 -210.727)">
      <g transform="translate(450 217)">
        <g>
          <path d="M2780.994,3231.707l7.5-7.5-8.725-8.719,4.711-4.708,1.512,1.511-.814.814.291.29.756-.755,1.134,1.133-1.4,1.4.843.843,1.28-1.279,1.454,1.453-1.018,1.017.378.378,1.018-1.017,1.163,1.162-1.309,1.308.436.436,1.483-1.482,1.367,1.366,3.111-3.11,1.338,1.337.64-.639-6.747-6.743a2.857,2.857,0,0,1,3.9-.348c2.268,1.569,3.9,2.674,6.165,2.674a26.949,26.949,0,0,1,2.792,2.79,9.186,9.186,0,0,0,2.617,6.161c.815,1.744.291,2.557,0,3.778l-6.107-6.045-16.227,16.159Z" transform="translate(-2779.773 -3209.236)"/>
        </g>
        <path d="M2846.592,3288.459l4.578-4.577.975.974-1.536,1.536.384.384,1.565-1.565,1.329,1.329-.915.916.782.783.916-.916,1.107,1.108-1.742,1.742.5.5,1.654-1.654,1.182,1.181-.768.768.62.62.827-.827,1.536,1.536-4.519,4.519Z" transform="translate(-2833.849 -3269.591)"/>
      </g>
    </g>
</symbol>

<symbol id="role-scientist" viewBox="0 0 40 40">
    <path d="M383.446,85.656h.369V83h-3.69v2.656h.367V88.1h2.954Zm1.586,19.083v1.522h-6.382v-1.522Zm-17.972,6.437a15.277,15.277,0,0,1-.265-2.822,15.691,15.691,0,0,1,4.231-11.072c2.476-2.478,4.472-3.642,7.908-4.009V89.2h6.183v8.55h-1.21v1.915h-3.763V97.752h-1.21v-.958c-4.419.62-6.658,3.723-8.043,7.847h5.23v2.231h11.9v3.079h-11.9v1.225h13.927v4.434H365.424v-4.434Z" transform="translate(-357.424 -81)"/>
</symbol>

<symbol id="photoshop-icon" viewBox="0 0 40 40">

		<g>
		<g>
			<rect width="30" height="30" rx="5"/>
		</g>

		<g transform="translate(6.928 7.703)">
			<g>
				<path d="M12.47,27.2V14.012c0-.1.044-.144.122-.144h3.983a7.778,7.778,0,0,1,2.639.389,4.533,4.533,0,0,1,1.722,1.056,4.017,4.017,0,0,1,.95,1.406,4.95,4.95,0,0,1,.289,1.667,4.572,4.572,0,0,1-.767,2.722,4.356,4.356,0,0,1-2.061,1.561,8.272,8.272,0,0,1-2.894.433H15.259v4.117a.172.172,0,0,1-.139.189H12.614A.2.2,0,0,1,12.47,27.2Zm2.778-10.856v4.3h1.178a4.889,4.889,0,0,0,1.472-.239,2.222,2.222,0,0,0,1.056-.678,2,2,0,0,0,.4-1.322,2.061,2.061,0,0,0-.3-1.111,1.917,1.917,0,0,0-.894-.728,3.794,3.794,0,0,0-1.506-.267h-.878a4.167,4.167,0,0,0-.556.033Z" transform="translate(-12.47 -13.865)" fill="#31a8ff"/>
				<path d="M38.983,22.324a4.822,4.822,0,0,0-1.228-.433,6.917,6.917,0,0,0-1.433-.167,2.839,2.839,0,0,0-.778.094.706.706,0,0,0-.4.256.667.667,0,0,0-.106.356.556.556,0,0,0,.128.328,1.367,1.367,0,0,0,.433.339,8.977,8.977,0,0,0,.906.428,8.683,8.683,0,0,1,1.972.939,2.939,2.939,0,0,1,1.011,1.061,2.778,2.778,0,0,1,.3,1.322,2.967,2.967,0,0,1-.494,1.7,3.25,3.25,0,0,1-1.433,1.144,5.728,5.728,0,0,1-2.322.417,8.333,8.333,0,0,1-1.744-.167,5.622,5.622,0,0,1-1.311-.411.267.267,0,0,1-.144-.25V27.057a.122.122,0,0,1,.05-.117.111.111,0,0,1,.111,0,5.5,5.5,0,0,0,1.594.633,6.5,6.5,0,0,0,1.506.194,2.261,2.261,0,0,0,1.061-.189A.556.556,0,0,0,37,27.024a.683.683,0,0,0-.306-.517,5,5,0,0,0-1.261-.6,7.55,7.55,0,0,1-1.828-.928,3.128,3.128,0,0,1-.967-1.083,2.822,2.822,0,0,1-.3-1.311,2.994,2.994,0,0,1,.433-1.55,3.111,3.111,0,0,1,1.339-1.172,5,5,0,0,1,2.272-.456,10.138,10.138,0,0,1,1.589.111,4.178,4.178,0,0,1,1.111.3.206.206,0,0,1,.128.117.706.706,0,0,1,0,.156v2.083a.122.122,0,0,1-.061.122A.2.2,0,0,1,38.983,22.324Z" transform="translate(-21.3 -16.327)" fill="#31a8ff"/>
			</g>
		</g>
		</g>
</symbol>


<symbol id="xd">
<g >
    <g id="Layer_2" data-name="Layer 2">
      <g id="Surfaces">
        <g id="UI_UX_Surface" data-name="UI UX Surface">
          <g id="Outline_no_shadow" data-name="Outline no shadow">
            <rect id="Rectangle_149765" data-name="Rectangle 149765" width="30.767" height="30" rx="5.45" fill="#470137"/>
          </g>
        </g>
      </g>
      <g id="Outlined_Mnemonics_Logos" data-name="Outlined Mnemonics Logos">
        <g id="Xd">
          <path id="Path_103406" data-name="Path 103406" d="M16.178,7.889l-3.844,6.339,4.111,6.728a.211.211,0,0,1,0,.156c0,.05-.067,0-.144,0H13.389c-.206,0-.35,0-.433-.144l-.828-1.6c-.272-.528-.556-1.067-.878-1.617s-.611-1.111-.917-1.667h0c-.272.556-.556,1.111-.856,1.667L8.6,19.389c-.289.556-.556,1.111-.883,1.622-.056.122-.156.139-.289.139H4.578c-.056,0-.089,0-.094-.033a.189.189,0,0,1,0-.144l4.011-6.528L4.606,7.878c-.039-.05-.05-.1,0-.133a.156.156,0,0,1,.128-.05H7.639a.367.367,0,0,1,.189.033.389.389,0,0,1,.122.111c.25.556.522,1.111.828,1.667s.606,1.111.917,1.633.583,1.05.861,1.6h0c.272-.556.556-1.111.833-1.667s.556-1.078.867-1.622.583-1.083.861-1.617A.306.306,0,0,1,13.2,7.7a.272.272,0,0,1,.161-.033h2.706a.119.119,0,0,1,.106.206Z" fill="#ff61f6"/>
          <path id="Path_103407" data-name="Path 103407" d="M22.1,21.411a6.444,6.444,0,0,1-2.778-.556,4.444,4.444,0,0,1-1.933-1.744,5.594,5.594,0,0,1-.7-2.922,5.428,5.428,0,0,1,.7-2.706,5.183,5.183,0,0,1,2.056-2,6.561,6.561,0,0,1,3.244-.744,2.528,2.528,0,0,1,.267,0h.389V6.711c0-.094.044-.144.128-.144h2.639a.106.106,0,0,1,.122.094V18.889a6.206,6.206,0,0,0,.033.767c.033.278.039.522.05.744a.222.222,0,0,1-.122.206,10.139,10.139,0,0,1-2.089.617,11.25,11.25,0,0,1-2.006.189Zm1.233-2.561V13.217a1.733,1.733,0,0,0-.339-.061,3.583,3.583,0,0,0-.422,0,3.178,3.178,0,0,0-1.444.328,2.778,2.778,0,0,0-1.111.95,2.828,2.828,0,0,0-.422,1.633,3.544,3.544,0,0,0,.217,1.317,2.45,2.45,0,0,0,.556.911,2.189,2.189,0,0,0,.867.517,3.444,3.444,0,0,0,1.061.167h.556A2.072,2.072,0,0,0,23.333,18.85Z" fill="#ff61f6"/>
        </g>
      </g>
    </g>
    <path id="Path_103408" data-name="Path 103408" d="M42.906,18.022l-.989,3.039a.217.217,0,0,1-.222.167H39.306c-.139,0-.183-.083-.161-.206L43.256,9.161a3.656,3.656,0,0,0,.206-1.256.139.139,0,0,1,.122-.144h3.289c.106,0,.144,0,.167.122l4.667,13.156c.039.106,0,.189-.106.189H48.928a.217.217,0,0,1-.228-.144l-1.044-3.061Zm3.989-2.572c-.411-1.356-1.233-3.844-1.622-5.306h0c-.328,1.378-1.072,3.639-1.606,5.306Z" fill="#fff"/>
    <path id="Path_103409" data-name="Path 103409" d="M51.839,16.211c0-2.939,2.222-5.406,5.961-5.406a4.862,4.862,0,0,1,.678.039V6.794a.133.133,0,0,1,.144-.144h2.594c.1,0,.122.044.122.128V18.922a11.666,11.666,0,0,0,.083,1.5c0,.106,0,.144-.144.189a10.378,10.378,0,0,1-4.056.822C54.183,21.433,51.839,19.706,51.839,16.211Zm6.667-2.922a2.222,2.222,0,0,0-.756-.1,2.746,2.746,0,0,0-2.944,2.878,2.573,2.573,0,0,0,2.739,2.917,2.778,2.778,0,0,0,.961-.122Z" fill="#fff"/>
    <path id="Path_103410" data-name="Path 103410" d="M72.922,16.067c0,3.228-2.094,5.367-5.056,5.367-3.517,0-5.078-2.656-5.078-5.306a5.028,5.028,0,0,1,5.117-5.322C71.217,10.806,72.922,13.289,72.922,16.067Zm-7.222,0c0,1.806.839,2.956,2.222,2.956,1.194,0,2.1-1.022,2.1-2.917,0-1.606-.661-2.939-2.222-2.939-1.211.022-2.111,1.089-2.111,2.944Z" fill="#fff"/>
    <path id="Path_103411" data-name="Path 103411" d="M77.056,6.667c.161,0,.206,0,.206.167v4.211a6.828,6.828,0,0,1,1.722-.222,4.706,4.706,0,0,1,4.939,4.889c0,3.844-3.044,5.739-6.167,5.739a10.761,10.761,0,0,1-3.228-.472.244.244,0,0,1-.128-.206V6.794c0-.1.044-.144.144-.144Zm1.417,6.578a4.178,4.178,0,0,0-1.211.167v5.556a3.189,3.189,0,0,0,.761.078A2.827,2.827,0,0,0,81,15.961a2.416,2.416,0,0,0-2.528-2.733Z" fill="#fff"/>
    <path id="Path_103412" data-name="Path 103412" d="M87.778,16.867c.106,1.172.928,2.139,2.939,2.139a6.361,6.361,0,0,0,2.528-.472c.067-.039.128,0,.128.1v1.956c0,.144-.044.206-.144.244a6.844,6.844,0,0,1-3.144.6c-3.889,0-5.222-2.656-5.222-5.2,0-2.839,1.744-5.428,5-5.428A4.193,4.193,0,0,1,94.2,15.25a6.211,6.211,0,0,1-.106,1.378.167.167,0,0,1-.161.161,18.155,18.155,0,0,1-2.117.083Zm2.672-1.994a6.6,6.6,0,0,0,1.028-.039v-.144a1.667,1.667,0,0,0-1.744-1.622,1.956,1.956,0,0,0-1.978,1.806Z" fill="#fff"/>
    <path id="Path_103413" data-name="Path 103413" d="M106.561,14.278,110.628,21a.139.139,0,0,1-.1.228h-2.922a.339.339,0,0,1-.35-.189c-.9-1.6-1.806-3.206-2.733-4.889h0c-.822,1.667-1.728,3.333-2.594,4.911a.278.278,0,0,1-.283.167H98.867c-.144,0-.144-.122-.083-.206l3.95-6.539L98.844,7.967a.122.122,0,0,1,.106-.206h2.894c.144,0,.206,0,.267.167.822,1.622,1.789,3.244,2.633,4.872h0c.8-1.667,1.706-3.228,2.544-4.872a.272.272,0,0,1,.289-.167h2.656c.144,0,.161.106.078.228Z" fill="#fff"/>
    <path id="Path_103414" data-name="Path 103414" d="M111.633,7.944c0-.1,0-.144.144-.161.617,0,2.178-.061,4.006-.061,4.917,0,7.322,2.778,7.322,6.556,0,4.911-3.783,6.989-7.278,6.989-1.356,0-3.411,0-4.072-.039-.083,0-.122-.061-.122-.206Zm2.856,10.817c.411,0,.744.039,1.217.039a4.121,4.121,0,0,0,4.444-4.483c0-2.75-1.772-4.111-4.4-4.111h-1.278Z" fill="#fff"/>
  </g>
</symbol


</svg>
