<svg xmlns="http://www.w3.org/2000/svg" viewBox="0 0 32.14 44.5"><defs><style>.cls-1{fill:#282828;}</style></defs><g id="Layer_2" data-name="Layer 2"><g id="Layer_1-2" data-name="Layer 1"><path class="cls-1" d="M30.9,24.72H17.31V19.78H26a1.24,1.24,0,0,0,1.23-1.24V8.65A1.23,1.23,0,0,0,26,7.42H17.31V.62A.62.62,0,0,0,16.69,0H15.45a.62.62,0,0,0-.62.62v6.8H6.18A1.24,1.24,0,0,0,4.94,8.65v9.89a1.25,1.25,0,0,0,1.24,1.24h8.65v4.94H1.24A1.24,1.24,0,0,0,0,26v9.89a1.23,1.23,0,0,0,1.24,1.23H14.83v6.8a.62.62,0,0,0,.62.62h1.24a.62.62,0,0,0,.62-.62v-6.8H30.9a1.23,1.23,0,0,0,1.24-1.23V26A1.24,1.24,0,0,0,30.9,24.72Z"/></g></g></svg>