<?xml version="1.0"?>
<svg xmlns="http://www.w3.org/2000/svg" id="lp_editing6_icon4" width="48.495" height="48.602" viewBox="0 0 48.495 48.602">
  <rect id="Canvas" width="48" height="48" transform="translate(0.495 0.602)" fill="#282828" opacity="0"/>
  <path id="Path_82807" data-name="Path 82807" d="M44.552,3.223a8.418,8.418,0,0,0-11.906,0l-9.058,9.058L3.223,32.646A8.419,8.419,0,0,0,15.13,44.552l8.343-8.345L44.552,15.13a8.418,8.418,0,0,0,0-11.906ZM25.291,14.066a2.806,2.806,0,1,1-2.806,2.806A2.806,2.806,0,0,1,25.291,14.066ZM16.872,28.1a2.806,2.806,0,1,1,2.806-2.806A2.806,2.806,0,0,1,16.872,28.1Zm5.612,5.612A2.806,2.806,0,1,1,25.291,30.9,2.806,2.806,0,0,1,22.484,33.709ZM30.9,25.291a2.806,2.806,0,1,1,2.806-2.806A2.806,2.806,0,0,1,30.9,25.291Z" transform="translate(1.368 1.367)" fill="#282828"/>
  <path id="Path_82808" data-name="Path 82808" d="M25.892,6.095l1.835-2.121A16.722,16.722,0,0,0,20.274.255L19.685,3a13.974,13.974,0,0,1,6.207,3.1ZM15.03,2.786,14.693,0h0A17.005,17.005,0,0,0,6.948,3.008h0L8.584,5.29a13.983,13.983,0,0,1,6.446-2.5ZM2.786,15.077A14.031,14.031,0,0,1,5.273,8.6L2.986,6.976A16.739,16.739,0,0,0,0,14.752ZM6.154,25.926a14.031,14.031,0,0,1-3.137-6.193l-2.736.6a16.727,16.727,0,0,0,3.743,7.45Z" fill="#282828"/>
</svg>
