<?xml version="1.0"?>
<svg xmlns="http://www.w3.org/2000/svg" width="40.238" height="44.54" viewBox="0 0 40.238 44.54">
  <g id="lp_design1_icon4" transform="translate(-3.882 -1.901)">
    <rect id="Canvas" width="40" height="44" transform="translate(4 2)" fill="#282828" opacity="0"/>
    <path id="Path_82833" data-name="Path 82833" d="M43.842,35.724,32.8,30.151l11.044-5.533a.5.5,0,0,0,0-.894L32.757,18.171h0l11.085-5.553a.5.5,0,0,0,0-.894L24.448,2.008a1,1,0,0,0-.9,0L4.158,11.724a.5.5,0,0,0,0,.894l11.085,5.553h0L4.158,23.724a.5.5,0,0,0,0,.894l11.031,5.526L4.158,35.724a.5.5,0,0,0,0,.894l19.394,9.716a1,1,0,0,0,.9,0l19.394-9.716a.5.5,0,0,0,0-.894ZM19.262,16.158,11.3,12.171,24,5.81l12.7,6.361-7.959,3.987h0l-4.29-2.15a1,1,0,0,0-.9,0l-4.29,2.15ZM24,42.532,11.3,36.171l7.907-4.012,4.342,2.175a1,1,0,0,0,.9,0l4.328-2.169L36.7,36.171Z" fill="#282828"/>
  </g>
</svg>
