<?xml version="1.0"?>
<svg xmlns="http://www.w3.org/2000/svg" width="44.163" height="41.811" viewBox="0 0 44.163 41.811">
  <g id="lp_editing5_icon3" transform="translate(-1.837 -2.558)">
    <rect id="Canvas" width="44" height="41" transform="translate(2 3)" fill="#282828" opacity="0"/>
    <path id="Path_82887" data-name="Path 82887" d="M16.647,26.889a7.859,7.859,0,0,0-6.01,2.189A14.077,14.077,0,0,0,7.67,34.956c-.875,2.782-1.7,5.41-5.261,7.107a1,1,0,0,0,.263,1.89c.8.136,1.721.251,2.72.326,3.6.268,10.379.154,15.314-3.6a7.6,7.6,0,0,0,3.139-5.563,7.739,7.739,0,0,0-7.2-8.227Z" fill="#282828"/>
    <path id="Path_82888" data-name="Path 82888" d="M26.53,30.1C36.51,18.977,47.871,5.715,45.094,2.938S29.335,13.15,19.48,23.8a11.4,11.4,0,0,1,7.05,6.3Z" fill="#282828"/>
  </g>
</svg>
