<?xml version="1.0"?>
<svg xmlns="http://www.w3.org/2000/svg" width="41.323" height="41.263" viewBox="0 0 41.323 41.263">
  <g id="lp_editing2_icon3" transform="translate(-4 -2.737)">
    <rect id="Canvas" width="41" height="41" transform="translate(4 3)" fill="#282828" opacity="0"/>
    <path id="Path_82856" data-name="Path 82856" d="M43.467,4.539c-2.32-2.32-4.706-2.386-6.815-.277l-6.2,6.238L28.431,8.484a2.008,2.008,0,0,0-2.829,0L21.51,12.576a2,2,0,0,0,0,2.829l.881.88L6.381,32.3A6.593,6.593,0,1,0,15.7,41.624l16.01-16.01.886.887a2,2,0,0,0,2.829,0l4.091-4.091a2,2,0,0,0-.011-2.84l-2-1.972,6.257-6.2C45.982,9.184,45.787,6.859,43.467,4.539ZM13.089,39A2.893,2.893,0,0,1,9,34.911L25.007,18.9,29.1,22.993Z" fill="#282828"/>
  </g>
</svg>
