<svg xmlns="http://www.w3.org/2000/svg" viewBox="0 0 46.58 42.6"><defs><style>.cls-1{fill:#282828;}</style></defs><g id="Layer_2" data-name="Layer 2"><g id="Layer_1-2" data-name="Layer 1"><circle class="cls-1" cx="27.99" cy="25.45" r="3.37"/><path class="cls-1" d="M28.14,0l.13,3.83a3.15,3.15,0,0,0,1.6,2.62l3.35,1.87-3.84.14a3.11,3.11,0,0,0-2.61,1.59L24.9,13.4l-.14-3.83A3.12,3.12,0,0,0,23.16,7L19.82,5.08l3.83-.14a3.11,3.11,0,0,0,2.61-1.59Z"/><path class="cls-1" d="M40,6.92l.18,4.93a4,4,0,0,0,2.06,3.38l4.31,2.41-4.93.18a4,4,0,0,0-3.38,2.05l-2.41,4.32-.18-4.94a4,4,0,0,0-2.06-3.37l-4.31-2.41,4.94-.18a4,4,0,0,0,3.37-2.06Z"/><path class="cls-1" d="M35.06,29.12v8.71l-5-5a2.7,2.7,0,0,0-3.81,0L22.13,37,12,26.81a2.71,2.71,0,0,0-3.82,0h0L2.7,32.25V18.33H31L27,15.63H1.35A1.34,1.34,0,0,0,0,17V41.25A1.34,1.34,0,0,0,1.35,42.6H36.41a1.35,1.35,0,0,0,1.35-1.35V25.07Z"/></g></g></svg>