<?xml version="1.0"?>
<svg xmlns="http://www.w3.org/2000/svg" width="47" height="48" viewBox="0 0 47 48">
  <g id="lp_design2_icon4" transform="translate(-4.495 -4.495)">
    <rect id="Canvas" width="47" height="48" transform="translate(4.495 4.495)" fill="#282828" opacity="0"/>
    <path id="Path_82834" data-name="Path 82834" d="M46.76,25.451,35.9,14.355a1.187,1.187,0,0,0-2.027.831v5.936H23.187A1.187,1.187,0,0,0,22,22.31v7.124a1.187,1.187,0,0,0,1.187,1.187H33.873v5.936A1.187,1.187,0,0,0,35.9,37.4l10.86-11.1a.594.594,0,0,0,0-.841Z" transform="translate(4.121 2.623)" fill="#282828"/>
    <path id="Path_82835" data-name="Path 82835" d="M46.743,49.117V43.181a1.187,1.187,0,0,0-1.187-1.187H43.181a1.187,1.187,0,0,0-1.187,1.187v3.562H8.749V8.749H41.993v3.562A1.187,1.187,0,0,0,43.181,13.5h2.375a1.187,1.187,0,0,0,1.187-1.187V6.375A2.375,2.375,0,0,0,44.368,4H6.375A2.375,2.375,0,0,0,4,6.375V49.117a2.375,2.375,0,0,0,2.375,2.375H44.368A2.375,2.375,0,0,0,46.743,49.117Z" transform="translate(0.749 0.749)" fill="#282828"/>
  </g>
</svg>
