<svg xmlns="http://www.w3.org/2000/svg" width="52.802" height="44.001" viewBox="0 0 52.802 44.001">
  <path id="Ai_TWP_LP_Illustration2_Gradients_Icon2" d="M52.068,1H41.8a.733.733,0,0,0-.733.733V8.2l-8.816,5.223a.733.733,0,0,0-.717-.694H21.267a.733.733,0,0,0-.733.733v1.4l-8.8-3.259V4.667A.733.733,0,0,0,11,3.933H.733A.733.733,0,0,0,0,4.667V14.934a.733.733,0,0,0,.733.733H6.42l5.414,17.6h-2.3A.733.733,0,0,0,8.8,34V44.268A.733.733,0,0,0,9.534,45H19.8a.733.733,0,0,0,.733-.733V40.5L35.2,38.054v3.281a.733.733,0,0,0,.733.733H46.2a.733.733,0,0,0,.733-.733V31.068a.733.733,0,0,0-.733-.733H44.076l2.712-17.6h5.28A.733.733,0,0,0,52.8,12V1.733A.733.733,0,0,0,52.068,1Zm-28.6,14.667h5.867v5.867H23.467ZM8.8,12.734H2.933V6.867H8.8Zm8.8,29.334H11.734V36.2H17.6Zm17.6-11v4.013L20.534,37.521V34a.733.733,0,0,0-.733-.733H14.9l-5.417-17.6H11a.733.733,0,0,0,.733-.733v-.2l8.8,3.259v5.742a.733.733,0,0,0,.733.733H31.534a.733.733,0,0,0,.733-.733V16.829l8.8-5.216V12a.733.733,0,0,0,.733.733h2.012l-2.708,17.6H35.935A.733.733,0,0,0,35.2,31.068ZM44,39.135H38.135V33.268H44ZM49.868,9.8H44V3.933h5.867Z" transform="translate(0 -1)" fill="#282828"/>
</svg>