<svg xmlns="http://www.w3.org/2000/svg" width="47.078" height="39" viewBox="0 0 47.078 39">
  <g id="lp_editing4_icon1" transform="translate(-2 -6.212)">
    <rect id="Canvas" width="47" height="39" transform="translate(2 6.212)" fill="#282828" opacity="0"/>
    <path id="Path_82872" data-name="Path 82872" d="M46.81,6H4.134A2.134,2.134,0,0,0,2,8.134V42.275a2.134,2.134,0,0,0,2.134,2.134H46.81a2.134,2.134,0,0,0,2.134-2.134V8.134A2.134,2.134,0,0,0,46.81,6ZM44.677,36.443l-7.419-7.419a2.816,2.816,0,0,0-3.981,0l-4.322,4.322L18.324,22.712a2.815,2.815,0,0,0-3.98,0L6.268,30.786V10.268H44.677Z" transform="translate(0.134 0.401)" fill="#282828"/>
    <path id="Path_82873" data-name="Path 82873" d="M35.371,21.32a3.948,3.948,0,1,0-3.948-3.948A3.948,3.948,0,0,0,35.371,21.32Z" transform="translate(2.103 0.898)" fill="#282828"/>
  </g>
</svg>
