<svg xmlns="http://www.w3.org/2000/svg" viewBox="0 0 46.13 46.13"><defs><style>.cls-1{fill:#282828;}</style></defs><g id="Layer_2" data-name="Layer 2"><g id="Layer_1-2" data-name="Layer 1"><g id="Smock_Import_18_N" data-name="Smock Import 18 N"><path id="Path_104076" data-name="Path 104076" class="cls-1" d="M44.69,0H13a1.45,1.45,0,0,0-1.44,1.44h0v8.65A1.44,1.44,0,0,0,13,11.53h2.89A1.43,1.43,0,0,0,17.3,10.1h0V5.77H40.36V40.36H17.3V36a1.43,1.43,0,0,0-1.44-1.44H13A1.44,1.44,0,0,0,11.53,36h0v8.65A1.45,1.45,0,0,0,13,46.13H44.69a1.45,1.45,0,0,0,1.44-1.44h0V1.44A1.45,1.45,0,0,0,44.69,0Z"/><path id="Path_104077" data-name="Path 104077" class="cls-1" d="M20.18,33.44a1.16,1.16,0,0,0,1.16,1.16h0a1.13,1.13,0,0,0,.76-.29L32.94,23.57a.71.71,0,0,0,0-1L22.1,11.82a1.13,1.13,0,0,0-.76-.29,1.15,1.15,0,0,0-1.15,1.16v7.49H1.44A1.45,1.45,0,0,0,0,21.62v2.89A1.45,1.45,0,0,0,1.44,26H20.18Z"/></g></g></g></svg>