<svg xmlns="http://www.w3.org/2000/svg" width="48" height="42" viewBox="0 0 48 42">
  <defs>
    <style>
      .cls-1 {
        fill: none;
      }

      .cls-2 {
        fill: #ff13dc;
        opacity: 0;
      }

      .cls-3 {
        fill: #494949;
      }
    </style>
  </defs>
  <g id="Group_162138" data-name="Group 162138" transform="translate(-186 -1344)">
    <rect id="Rectangle_151117" data-name="Rectangle 151117" class="cls-1" width="48" height="42" transform="translate(186 1344)"/>
    <g id="Smock_Instagram_18_N" transform="translate(193 1347)">
      <rect id="Canvas" class="cls-2" width="35" height="35"/>
      <path id="Path_104100" data-name="Path 104100" class="cls-3" d="M16.556,3.8c4.153,0,4.645.017,6.286.091a8.593,8.593,0,0,1,2.887.537A4.807,4.807,0,0,1,27.518,5.6a4.807,4.807,0,0,1,1.167,1.789,8.592,8.592,0,0,1,.537,2.887c.074,1.641.091,2.139.091,6.286s-.017,4.645-.091,6.286a8.593,8.593,0,0,1-.537,2.887,5.141,5.141,0,0,1-2.952,2.952,8.592,8.592,0,0,1-2.887.537c-1.641.074-2.139.091-6.286.091s-4.645-.017-6.286-.091a8.592,8.592,0,0,1-2.887-.537A4.807,4.807,0,0,1,5.6,27.518,4.807,4.807,0,0,1,4.43,25.729a8.593,8.593,0,0,1-.537-2.888C3.819,21.2,3.8,20.7,3.8,16.556s.017-4.645.091-6.286A8.592,8.592,0,0,1,4.43,7.382,4.807,4.807,0,0,1,5.6,5.593,4.807,4.807,0,0,1,7.386,4.426a8.592,8.592,0,0,1,2.887-.537C11.91,3.819,12.4,3.8,16.556,3.8Zm0-2.8c-4.225,0-4.754.017-6.417.093a11.41,11.41,0,0,0-3.772.723A7.6,7.6,0,0,0,3.611,3.611,7.6,7.6,0,0,0,1.817,6.367a11.41,11.41,0,0,0-.723,3.772C1.017,11.8,1,12.33,1,16.556s.017,4.754.093,6.417a11.41,11.41,0,0,0,.723,3.772A7.6,7.6,0,0,0,3.611,29.5a7.6,7.6,0,0,0,2.755,1.795,11.41,11.41,0,0,0,3.776.723c1.659.076,2.187.093,6.413.093s4.754-.017,6.417-.093a11.41,11.41,0,0,0,3.776-.723,7.961,7.961,0,0,0,4.55-4.55,11.41,11.41,0,0,0,.723-3.776c.076-1.659.093-2.188.093-6.417s-.018-4.754-.093-6.417a11.41,11.41,0,0,0-.727-3.768A7.6,7.6,0,0,0,29.5,3.611a7.6,7.6,0,0,0-2.755-1.795,11.41,11.41,0,0,0-3.772-.723C21.31,1.017,20.781,1,16.556,1Z" transform="translate(0.944 0.944)"/>
      <path id="Path_104101" data-name="Path 104101" class="cls-3" d="M12.88,4.892a7.988,7.988,0,1,0,7.988,7.988A7.988,7.988,0,0,0,12.88,4.892Zm0,13.174a5.186,5.186,0,1,1,5.186-5.186A5.186,5.186,0,0,1,12.88,18.066Z" transform="translate(4.62 4.62)"/>
      <circle id="Ellipse_124" data-name="Ellipse 124" class="cls-3" cx="1.867" cy="1.867" r="1.867" transform="translate(23.936 7.331)"/>
    </g>
  </g>
</svg>
