<svg xmlns="http://www.w3.org/2000/svg" width="51.016" height="45" viewBox="0 0 51.016 45">
  <g id="lp_editing2_icon2" transform="translate(0.15 -6.02)">
    <rect id="Canvas" width="51" height="45" transform="translate(-0.15 6.02)" fill="#282828" opacity="0"/>
    <path id="Path_82838" data-name="Path 82838" d="M34.963,16.585A3.279,3.279,0,1,1,31.685,13.3a3.279,3.279,0,0,1,3.279,3.285Z" transform="translate(1.696 0.801)" fill="#282828"/>
    <path id="Path_82839" data-name="Path 82839" d="M48.746,6H2.119A2.119,2.119,0,0,0,0,8.119V37.791a2.119,2.119,0,0,0,2.119,2.119H5.876A17.509,17.509,0,0,1,10.6,38.225a15.631,15.631,0,0,1-2.843-8.7,16.267,16.267,0,0,1,.123-1.907,26.527,26.527,0,0,0-3.638,3.5V10.239H46.627V32.822c-2.034-2.157-7.651-6.262-9.285-6.2-1.183.088-4.684,3.2-7.173,4.737a15.864,15.864,0,0,1-2.6,6.9,18.041,18.041,0,0,1,4.59,1.652h16.59a2.119,2.119,0,0,0,2.119-2.119V8.119A2.119,2.119,0,0,0,48.746,6Z" transform="translate(0 0.365)" fill="#282828"/>
    <path id="Path_82840" data-name="Path 82840" d="M33.672,47.022a4.208,4.208,0,0,0-1.413-3.174,13.636,13.636,0,0,0-7.736-3.013,1.544,1.544,0,0,1-1.343-1.549V37.055a1.5,1.5,0,0,1,.372-.973,11.8,11.8,0,0,0,2.711-7.393c0-5.575-2.957-8.69-7.425-8.69s-7.508,3.237-7.508,8.69a11.935,11.935,0,0,0,2.839,7.4,1.49,1.49,0,0,1,.368.968v2.225A1.537,1.537,0,0,1,13.2,40.83a13.074,13.074,0,0,0-7.833,3.014A4.217,4.217,0,0,0,4,46.97v2.7H33.672Z" transform="translate(0.239 1.201)" fill="#282828"/>
  </g>
</svg>
