<svg height='100px' width='100px'  fill="#000000" xmlns="http://www.w3.org/2000/svg" xmlns:xlink="http://www.w3.org/1999/xlink" viewBox="0 0 84 84" version="1.1" xml:space="preserve" style="" x="0px" y="0px" fill-rule="evenodd" clip-rule="evenodd" stroke-linejoin="round" stroke-miterlimit="1.41421"><g transform="matrix(1,0,0,1,-8.2004,10.7004)"><path d="M20.689,59.189L17,55.5L36,19.5L51.143,19.5L63,31.357L63,45.5L26,64.5L22.811,61.311L45.438,38.683C45.918,38.887 46.446,39 47,39C49.208,39 51,37.208 51,35C51,32.792 49.208,31 47,31C44.792,31 43,32.792 43,35C43,35.554 43.113,36.082 43.317,36.562L20.689,59.189Z"></path></g><g transform="matrix(0.743135,0.743135,-0.707107,0.707107,33.532,-2.53773)"><path d="M49,10.5C49,9.672 48.36,9 47.573,9L24.427,9C23.64,9 23,9.672 23,10.5L23,13.5C23,14.328 23.64,15 24.427,15L47.573,15C48.36,15 49,14.328 49,13.5L49,10.5Z"></path></g><g transform="matrix(0.870285,0.870285,-0.707107,0.707107,33.9546,-12.1152)"><path d="M49,10.5C49,9.672 48.454,9 47.781,9L24.219,9C23.546,9 23,9.672 23,10.5L23,13.5C23,14.328 23.546,15 24.219,15L47.781,15C48.454,15 49,14.328 49,13.5L49,10.5Z"></path></g><g transform="matrix(0.77286,0.77286,-0.410455,0.410455,53.061,-3.33975)"><rect x="10" y="0" width="25" height="35.692"></rect></g></svg>