<svg xmlns="http://www.w3.org/2000/svg" viewBox="0 0 45.52 47.33"><defs><style>.cls-1{fill:#282828;}</style></defs><g id="Layer_2" data-name="Layer 2"><g id="Layer_1-2" data-name="Layer 1"><path class="cls-1" d="M0,1.42V45.91a1.42,1.42,0,0,0,1.92,1.33l42.67-16a1.42,1.42,0,0,0,.93-1.33V12.09a1.43,1.43,0,0,0-1.08-1.38L1.77,0A1.43,1.43,0,0,0,0,1.08,1.32,1.32,0,0,0,0,1.42ZM42.67,19.68l-8.53.57V11l8.53,2.06ZM19.91,21.21V7.58l11.38,2.75V20.44Zm11.38,1.93V33.27L19.91,37.45V24.05ZM17.07,6.9V21.4l-14.23,1V3.47ZM2.84,25.43l14.23-1.15V38.5L2.84,43.72Zm31.3,6.8V22.9l8.53-.68v6.87Z"/></g></g></svg>