<svg xmlns="http://www.w3.org/2000/svg" width="38.531" height="44.001" viewBox="0 0 38.531 44.001">
  <g id="Ai_TWP_LP_Layout3_Artboards_Icon2" transform="translate(-374.738 -1130)">
    <rect id="Rectangle_147879" data-name="Rectangle 147879" width="2.444" height="44.001" transform="translate(410.824 1130)" fill="#282828"/>
    <path id="Path_82951" data-name="Path 82951" d="M30.209,35.856,18.042,2.257c-.05-.207-.1-.257-.307-.257H12.659a.244.244,0,0,0-.257.232v.025a5.578,5.578,0,0,1-.367,2.125L.75,35.81c-.05.257.055.413.312.413h3.52a.367.367,0,0,0,.413-.312L8.823,25.223H21.791l3.863,10.743a.46.46,0,0,0,.414.257H30C30.263,36.223,30.314,36.066,30.209,35.856ZM15.248,5.52h.05c.928,3.309,4.1,12.188,5.427,16.036H9.883C11.827,15.953,14.411,8.666,15.248,5.52Z" transform="translate(374 1132.889)" fill="#282828"/>
  </g>
</svg>