<svg xmlns="http://www.w3.org/2000/svg" viewBox="0 0 46.16 34.24"><defs><style>.cls-1{fill:#282828;}</style></defs><g id="Layer_2" data-name="Layer 2"><g id="Layer_1-2" data-name="Layer 1"><path class="cls-1" d="M39.08,19.75a17,17,0,0,0,.34-3.37A16.37,16.37,0,0,0,11.2,5.07h-.12a11.07,11.07,0,0,0-.33,22.14A16.33,16.33,0,0,0,29,31.65l0,2.59,7.39-7.47,9.83.21ZM2.24,16.14a8.85,8.85,0,0,1,7-8.65A16.3,16.3,0,0,0,8.93,24.7,8.85,8.85,0,0,1,2.24,16.14Zm6.66.24a14.12,14.12,0,0,1,3.24-9,8.83,8.83,0,0,1-.35,17.56A14.08,14.08,0,0,1,8.9,16.38Zm28.21,1.36L29.33,9.8,29,29.2a14.1,14.1,0,0,1-15.41-2.29A11.06,11.06,0,0,0,14,5.48a14.13,14.13,0,0,1,23.14,10.9A12.14,12.14,0,0,1,37.11,17.74Z"/><path class="cls-1" d="M5.07,15.29a1,1,0,1,0,1,1A1,1,0,0,0,5.07,15.29Z"/><path class="cls-1" d="M10.81,15.29a1,1,0,1,0,1,1A1,1,0,0,0,10.81,15.29Z"/><path class="cls-1" d="M17.64,16.32a1,1,0,1,0-1,1A1,1,0,0,0,17.64,16.32Z"/><path class="cls-1" d="M25.67,15.29a1,1,0,1,0,1,1A1,1,0,0,0,25.67,15.29Z"/></g></g></svg>