<svg xmlns="http://www.w3.org/2000/svg" width="48" height="42" viewBox="0 0 48 42">
  <defs>
    <style>
      .cls-1 {
        fill: none;
      }

      .cls-2 {
        fill: #ff13dc;
        opacity: 0;
      }

      .cls-3 {
        fill: #494949;
      }
    </style>
  </defs>
  <g id="Social" transform="translate(-186 -1344)">
    <rect id="Rectangle_151117" data-name="Rectangle 151117" class="cls-1" width="48" height="42" transform="translate(186 1344)"/>
    <g id="icons" transform="translate(188.808 1347.425)">
      <g id="Smock_Temperature_18_N" transform="translate(4.192 -0.765)">
        <g id="Group_162118" data-name="Group 162118">
          <g id="Smock_SocialNetwork_18_N" transform="translate(0 0.34)">
            <rect id="Canvas" class="cls-2" width="35" height="35"/>
            <path id="Path_104071" data-name="Path 104071" class="cls-3" d="M31.2,21.727V13.274a3.03,3.03,0,1,0-2.937-5.3L20.533,3.145c0-.035.01-.067.01-.1a3.043,3.043,0,1,0-6.086,0h0c0,.035.009.067.01.1L6.741,7.972a3,3,0,0,0-1.416-.365A3.034,3.034,0,0,0,3.8,13.273v8.452a3.031,3.031,0,1,0,2.937,5.3l7.725,4.828c0,.035-.01.067-.01.1a3.043,3.043,0,1,0,6.086,0c0-.035-.009-.067-.01-.1l7.725-4.828a3,3,0,0,0,1.416.365A3.034,3.034,0,0,0,31.2,21.727Zm-10.64-3.622a2.9,2.9,0,0,0-.016-1.2l6.984-3.934a3.072,3.072,0,0,0,1.727.766v7.506a3.083,3.083,0,0,0-1.744.778ZM7.5,22.014a3.087,3.087,0,0,0-1.756-.8V13.7A3.074,3.074,0,0,0,7.44,12.95L14.46,16.9a2.9,2.9,0,0,0-.016,1.2ZM26.781,9.343a3.093,3.093,0,0,0-.3,1.316,3.142,3.142,0,0,0,.065.631L19.549,15.23a3.077,3.077,0,0,0-1.077-.616V6.058a3.116,3.116,0,0,0,1.452-1ZM15.09,5.049a3.111,3.111,0,0,0,1.438,1.016v8.549a3.077,3.077,0,0,0-1.077.616L8.431,11.278a3.062,3.062,0,0,0-.209-1.935ZM8.143,25.61A2.506,2.506,0,0,0,8.5,24.285a3.132,3.132,0,0,0-.057-.569l6.928-3.9a3.1,3.1,0,0,0,1.155.681v8.458a3.067,3.067,0,0,0-1.416,1.009ZM19.9,29.959a3.092,3.092,0,0,0-1.425-1.011V20.494a3.1,3.1,0,0,0,1.155-.681l6.914,3.894a3.072,3.072,0,0,0,.242,1.944Z"/>
          </g>
        </g>
      </g>
    </g>
  </g>
</svg>
