<svg xmlns="http://www.w3.org/2000/svg" width="32.367" height="43" viewBox="0 0 32.367 43">
  <path id="Ai_TWP_LP_Layout2_BusinessCard_Icon3" d="M5.509,29.925C6.31,34.1,9.583,41.557,17.15,41.557A7.057,7.057,0,0,0,25.008,34.6c0-2.97-2.037-5.563-5.748-8.094l-2.183-1.386c-4.583-3.1-8.657-6.637-8.657-11.884,0-7.46,6.911-12.072,15.859-12.072A27.079,27.079,0,0,1,32.5,2.433c1.31.379,2.255.759,2.982,1.011a86.725,86.725,0,0,0-.436,9.672l-2.546.189c-.654-3.978-2.4-9.6-8.8-9.6a6.593,6.593,0,0,0-6.973,6.19q-.01.161-.011.322c0,3.1,2.037,5.121,5.9,7.523L24.8,19.065c5.021,3.155,9.168,6.638,9.168,12.327,0,7.966-7.858,12.77-17.605,12.77A22.464,22.464,0,0,1,3.115,40.242c.073-1.454.073-4.995,0-10.051Z" transform="translate(-3.115 -1.168)" fill="#282828"/>
</svg>