<svg xmlns="http://www.w3.org/2000/svg" viewBox="0 0 44.05 44.05"><defs><style>.cls-1{fill:#282828;}</style></defs><g id="Layer_2" data-name="Layer 2"><g id="Layer_1-2" data-name="Layer 1"><g id="Text"><g id="Smock_TextStroke_18_N" data-name="Smock TextStroke 18 N"><path id="Path_104088" data-name="Path 104088" class="cls-1" d="M33,44.05H11a1.57,1.57,0,0,1-1.57-1.57h0V36.19A1.57,1.57,0,0,1,11,34.61h4.72V9.44H9.44v4.72a1.57,1.57,0,0,1-1.57,1.57H1.57A1.57,1.57,0,0,1,0,14.16H0V1.57A1.57,1.57,0,0,1,1.57,0H42.48a1.57,1.57,0,0,1,1.57,1.57h0V14.12a1.57,1.57,0,0,1-1.57,1.57H36.19a1.57,1.57,0,0,1-1.58-1.57h0V9.44H28.32V34.61H33a1.57,1.57,0,0,1,1.57,1.58h0v6.29A1.57,1.57,0,0,1,33,44.05ZM12.59,37.76V40.9H31.46V37.76H25.17V6.29H37.76v6.3h3.15V3.08H3.15v9.51H6.29V6.29H18.88V37.76Z"/></g></g></g></g></svg>