<svg xmlns="http://www.w3.org/2000/svg" width="44" height="44" viewBox="0 0 44 44">
  <g id="Ai_TWP_LP_Illustration3_MinimalistArtwork_Icon1" transform="translate(-122 -1014.121)">
    <rect id="Rectangle_150933" data-name="Rectangle 150933" width="3" height="3" rx="0.25" transform="translate(163 1041.121)" fill="#282828"/>
    <rect id="Rectangle_150934" data-name="Rectangle 150934" width="3" height="3" rx="0.25" transform="translate(163 1036.121)" fill="#282828"/>
    <rect id="Rectangle_150935" data-name="Rectangle 150935" width="3" height="3" rx="0.25" transform="translate(163 1030.121)" fill="#282828"/>
    <rect id="Rectangle_150936" data-name="Rectangle 150936" width="3" height="3" rx="0.25" transform="translate(163 1025.121)" fill="#282828"/>
    <rect id="Rectangle_150937" data-name="Rectangle 150937" width="3" height="3" rx="0.25" transform="translate(163 1019.121)" fill="#282828"/>
    <rect id="Rectangle_150938" data-name="Rectangle 150938" width="3" height="3" rx="0.25" transform="translate(163 1014.121)" fill="#282828"/>
    <rect id="Rectangle_150939" data-name="Rectangle 150939" width="3" height="3" rx="0.25" transform="translate(158 1014.121)" fill="#282828"/>
    <rect id="Rectangle_150940" data-name="Rectangle 150940" width="3" height="3" rx="0.25" transform="translate(152 1014.121)" fill="#282828"/>
    <rect id="Rectangle_150941" data-name="Rectangle 150941" width="3" height="3" rx="0.25" transform="translate(147 1014.121)" fill="#282828"/>
    <rect id="Rectangle_150942" data-name="Rectangle 150942" width="3" height="3" rx="0.25" transform="translate(141 1014.121)" fill="#282828"/>
    <rect id="Rectangle_150943" data-name="Rectangle 150943" width="3" height="3" rx="0.25" transform="translate(136 1014.121)" fill="#282828"/>
    <rect id="Rectangle_150944" data-name="Rectangle 150944" width="3" height="3" rx="0.25" transform="translate(136 1019.121)" fill="#282828"/>
    <rect id="Rectangle_150945" data-name="Rectangle 150945" width="3" height="3" rx="0.25" transform="translate(136 1025.121)" fill="#282828"/>
    <rect id="Rectangle_150946" data-name="Rectangle 150946" width="3" height="3" rx="0.25" transform="translate(136 1030.121)" fill="#282828"/>
    <rect id="Rectangle_150947" data-name="Rectangle 150947" width="3" height="3" rx="0.25" transform="translate(136 1036.121)" fill="#282828"/>
    <rect id="Rectangle_150948" data-name="Rectangle 150948" width="3" height="3" rx="0.25" transform="translate(136 1041.121)" fill="#282828"/>
    <rect id="Rectangle_150949" data-name="Rectangle 150949" width="3" height="3" rx="0.25" transform="translate(141 1041.121)" fill="#282828"/>
    <rect id="Rectangle_150950" data-name="Rectangle 150950" width="3" height="3" rx="0.25" transform="translate(147 1041.121)" fill="#282828"/>
    <rect id="Rectangle_150951" data-name="Rectangle 150951" width="3" height="3" rx="0.25" transform="translate(152 1041.121)" fill="#282828"/>
    <rect id="Rectangle_150952" data-name="Rectangle 150952" width="3" height="3" rx="0.25" transform="translate(158 1041.121)" fill="#282828"/>
    <path id="Path_102595" data-name="Path 102595" d="M12.03,6H2.379A1.379,1.379,0,0,0,1,7.379V34.954a1.379,1.379,0,0,0,1.379,1.379H29.954a1.379,1.379,0,0,0,1.379-1.379V25.3H13.409a1.379,1.379,0,0,1-1.379-1.379Z" transform="translate(121 1021.788)" fill="#282828"/>
  </g>
</svg>