<svg xmlns="http://www.w3.org/2000/svg" viewBox="0 0 44.2 44.2"><defs><style>.cls-1{fill:#282828;}</style></defs><g id="Layer_2" data-name="Layer 2"><g id="Layer_1-2" data-name="Layer 1"><path id="Ai_TWP_LP_Layout6_Align_Icon2" data-name="Ai TWP LP Layout6 Align Icon2" class="cls-1" d="M1.58,0A1.58,1.58,0,0,0,0,1.58v9.47a1.58,1.58,0,0,0,1.58,1.58H4.74a1.57,1.57,0,0,0,1.57-1.58V6.31H18.94V37.89H14.21a1.58,1.58,0,0,0-1.58,1.58h0v3.15a1.58,1.58,0,0,0,1.58,1.58H30a1.57,1.57,0,0,0,1.58-1.58h0V39.47A1.57,1.57,0,0,0,30,37.89H25.26V6.31H37.89v4.74a1.58,1.58,0,0,0,1.58,1.58h3.15a1.58,1.58,0,0,0,1.58-1.58V1.58A1.58,1.58,0,0,0,42.62,0h-41Z"/></g></g></svg>