<svg xmlns="http://www.w3.org/2000/svg" viewBox="0 0 46.27 45.3"><defs><style>.cls-1{fill:#282828;}</style></defs><g id="Layer_2" data-name="Layer 2"><g id="Layer_1-2" data-name="Layer 1"><path class="cls-1" d="M38.5,11.92A12,12,0,0,0,15.33,7.78,10.5,10.5,0,0,0,4.87,17.85,7.1,7.1,0,0,0,.05,25.39a7.27,7.27,0,0,0,7.31,6.3h6.93A.68.68,0,0,0,15,31V29.65a.67.67,0,0,0-.68-.68H7.35a4.55,4.55,0,0,1-4.62-4.14,4.39,4.39,0,0,1,4.14-4.61h.72V18.27a7.78,7.78,0,0,1,7.79-7.77,8,8,0,0,1,2,.26,9.24,9.24,0,0,1,18.32,2.4,11.16,11.16,0,0,1-.26,1.28,7.29,7.29,0,0,1,1.64,14.49,7.69,7.69,0,0,1-.83,0H32a.69.69,0,0,0-.68.68V31a.69.69,0,0,0,.68.69h3.95A10.24,10.24,0,0,0,46.2,22.87,10,10,0,0,0,38.5,11.92Z"/><path class="cls-1" d="M17,23.52h3.4V43.94a1.36,1.36,0,0,0,1.37,1.36H24.5a1.36,1.36,0,0,0,1.36-1.36V23.52h3.4a.67.67,0,0,0,.68-.68.69.69,0,0,0-.16-.43l-6.15-6.83a.67.67,0,0,0-1,0h0l0,0-6.15,6.83a.67.67,0,0,0-.16.43A.68.68,0,0,0,17,23.52Z"/></g></g></svg>