<svg id="Logo" xmlns="http://www.w3.org/2000/svg" width="33.846" height="33" viewBox="0 0 33.846 33">
  <defs>
    <style>
      .cls-1 {
        fill: #584ccc;
      }

      .cls-2 {
        fill: #fff;
      }
    </style>
  </defs>
  <path id="Surface" class="cls-1" d="M5.993,0H27.851a5.993,5.993,0,0,1,5.995,5.993V27.007A5.993,5.993,0,0,1,27.851,33H5.993A5.993,5.993,0,0,1,0,27.007V5.993A5.993,5.993,0,0,1,5.993,0" transform="translate(0 0)"/>
  <path id="Mnemonic" class="cls-2" d="M24.437,16.494c-1.584-1.685-5.967-1-6.995-.828a17.849,17.849,0,0,1-2.925-3.853,17.2,17.2,0,0,0,1-5.054c0-1.541-.614-3.2-2.326-3.2a1.737,1.737,0,0,0-1.442.842c-.728,1.256-.442,3.854.728,6.48a43.871,43.871,0,0,1-2.969,6.967c-1.756.7-5.482,2.411-5.839,4.31a1.6,1.6,0,0,0,.515,1.513,2.177,2.177,0,0,0,1.513.542c2.241,0,4.482-3.113,5.995-5.782a38.156,38.156,0,0,1,5.338-1.4,8.519,8.519,0,0,0,5.553,2.385c1.456,0,2-.629,2.2-1.158a1.781,1.781,0,0,0-.341-1.769m-1.542,1.085c-.071.414-.6.828-1.584.614a7.915,7.915,0,0,1-3.111-1.57,12.94,12.94,0,0,1,3.839-.057c.458.087.984.343.856,1.014M12.674,4.947a.575.575,0,0,1,.5-.314c.542,0,.657.657.657,1.2a16.753,16.753,0,0,1-.714,3.811c-.913-2.426-.785-4.111-.444-4.7m-.128,11.861a35.846,35.846,0,0,0,1.414-3.4A17.933,17.933,0,0,0,15.9,15.952a32.186,32.186,0,0,0-3.355.856M8.964,19.264c-1.442,2.312-2.854,3.768-3.683,3.768A.591.591,0,0,1,4.91,22.9a.529.529,0,0,1-.185-.529c.158-.827,1.8-2.026,4.239-3.111" transform="translate(2.665 2.611)"/>
</svg>
