<svg id="Logo" xmlns="http://www.w3.org/2000/svg" width="33.843" height="33" viewBox="0 0 33.843 33">
  <defs>
    <style>
      .cls-1 {
        fill: #008cad;
      }

      .cls-2 {
        fill: #fff;
      }
    </style>
  </defs>
  <path id="Surface" class="cls-1" d="M5.995,0H27.848a6,6,0,0,1,6,5.995V27a6,6,0,0,1-6,6H5.995A6,6,0,0,1,0,27V5.995A6,6,0,0,1,5.995,0Z"/>
  <path id="Mnemonic" class="cls-2" d="M26.531,18.567c-1.589-1.65-5.928-.978-6.967-.856a18.474,18.474,0,0,1-2.933-3.85,17.771,17.771,0,0,0,.978-5.072c0-1.528-.611-3.178-2.322-3.178a1.778,1.778,0,0,0-1.467.856c-.733,1.283-.428,3.85.733,6.478a44.141,44.141,0,0,1-2.994,6.967c-1.772.733-5.5,2.444-5.806,4.278a1.632,1.632,0,0,0,.489,1.528,2.347,2.347,0,0,0,1.528.55c2.261,0,4.461-3.117,5.989-5.744a40.578,40.578,0,0,1,5.317-1.406A8.453,8.453,0,0,0,24.636,21.5c1.467,0,2.017-.611,2.2-1.161a1.589,1.589,0,0,0-.306-1.772ZM25,19.606c-.061.428-.611.856-1.589.611A8.378,8.378,0,0,1,20.3,18.628a13.157,13.157,0,0,1,3.85-.061C24.636,18.689,25.125,18.994,25,19.606ZM14.8,7.017a.611.611,0,0,1,.489-.306c.55,0,.672.672.672,1.222a13.444,13.444,0,0,1-.733,3.789C14.309,9.278,14.492,7.567,14.8,7.017Zm-.092,11.856a34.124,34.124,0,0,0,1.406-3.422,15.577,15.577,0,0,0,1.956,2.506C18.036,18.017,16.142,18.383,14.706,18.872ZM11.1,21.317c-1.406,2.322-2.872,3.789-3.667,3.789a.868.868,0,0,1-.367-.122.464.464,0,0,1-.183-.55c.153-.856,1.742-2.017,4.186-3.117Z" transform="translate(0.572 0.561)"/>
</svg>
