<svg id="Group_1" data-name="Group 1" xmlns="http://www.w3.org/2000/svg" width="240" height="234" viewBox="0 0 240 234">
  <rect id="Rectangle_1" data-name="Rectangle 1" width="240" height="234" rx="42.5" fill="#000b1d"/>
  <path id="Path_1" data-name="Path 1" d="M117.917,145.258v16.583a2.124,2.124,0,0,1-1.288,2.254,43.27,43.27,0,0,1-9.741,2.174,100.959,100.959,0,0,1-12.484.725,71.177,71.177,0,0,1-17.791-2.174,52.6,52.6,0,0,1-15.375-6.6,46.893,46.893,0,0,1-11.914-10.867A48.171,48.171,0,0,1,41.6,132.378,64.175,64.175,0,0,1,39,112.917c0-10.84,2.219-20.225,6.943-28.436A48.838,48.838,0,0,1,66.068,65.322c8.694-4.561,19.345-7.136,31.367-7.136a101.8,101.8,0,0,1,12.478.644,34.371,34.371,0,0,1,8.2,2.072,2.072,2.072,0,0,1,.8,1.932l-.04,17.864q0,1.449-1.127.966a34.812,34.812,0,0,0-9.5-2.818A73.874,73.874,0,0,0,96.5,77.96q-10.789,0-18.515,4.347A30.144,30.144,0,0,0,66.068,94.3a37.159,37.159,0,0,0-4.186,18.113,39.193,39.193,0,0,0,2.013,13.2,31.3,31.3,0,0,0,5.555,9.821,27.513,27.513,0,0,0,8.05,6.6,40.3,40.3,0,0,0,9.6,3.837,42.672,42.672,0,0,0,9.9,1.208,105.35,105.35,0,0,0,10.713-.483,39.441,39.441,0,0,0,8.916-2.147q.641-.483.966-.241a1.281,1.281,0,0,1,.322,1.046Z" fill="#fff"/>
  <path id="Path_2" data-name="Path 2" d="M163.632,84.083q11.913,0,19.24,4.347c4.883,2.9,8.187,6.172,10.549,11.108a37.973,37.973,0,0,1,3.542,16.583v31.073q0,3.06.081,5.8t.242,5.635c0,.43-.108.7-.322.8-4.83,1.826-8.806,3.594-12.562,4.665a71,71,0,0,1-10.948,2.254,94.153,94.153,0,0,1-11.27.644,44.069,44.069,0,0,1-16.342-2.9,28.147,28.147,0,0,1-12.25-8.855q-4.509-5.954-4.508-15.134,0-8.694,4.75-14.49c3.165-3.864,7.9-6.762,13.377-8.694a56.458,56.458,0,0,1,18.837-2.9h5.876a26.688,26.688,0,0,1,3.623.161v-.966a10.66,10.66,0,0,0-.563-2.817,8.4,8.4,0,0,0-2.173-3.462,12.641,12.641,0,0,0-4.589-3.144,24.727,24.727,0,0,0-7.969-1.046,56.013,56.013,0,0,0-11.592,1.127c-3.542.752-7.123,2.752-10.127,4.04a1.478,1.478,0,0,1-.966,0,.742.742,0,0,1-.483-.8V90.357a1.765,1.765,0,0,1,1.127-1.771c3.542-1.61,7.845-2.491,12.3-3.3a73.655,73.655,0,0,1,13.121-1.208Zm11.535,63.62V131.561c-1.288-.214-2.144-.375-3.324-.483s-2.631-.159-4.347-.161c-5.8,0-9.66.86-12.075,2.576s-3.623,3.61-3.623,6.614a6.943,6.943,0,0,0,1.368,4.216,10.568,10.568,0,0,0,4.508,3.914c2.093.913,4.508.916,7.728.916a35.393,35.393,0,0,0,5.474-.4,27.7,27.7,0,0,0,4.29-1.047Z" fill="#fff"/>
</svg>
