<svg id="Layer_1" data-name="Layer 1" xmlns="http://www.w3.org/2000/svg" viewBox="0 0 240 234">
	<defs>
		<style>
			.cls-1{fill:#013301;}
			.cls-2{fill:#3f6;}
		</style>
	</defs>
	<rect class="cls-1" x="0.5" width="240" height="234" rx="42.5"/>
	<path class="cls-2" d="M108.50781,140H71.31689L63.75,163.551A1.89431,1.89431,0,0,1,61.81787,165H42.981q-1.61133,0-1.127-1.771L74.05371,70.87622c.32227-.96582.644-1.91007.96631-3.14543a34.478,34.478,0,0,0,.644-6.52026.99643.99643,0,0,1,1.127-1.1272h25.59863q1.125,0,1.28808.80518L140.2251,163.38989q.48267,1.61133-.96631,1.61011H118.32861a1.48824,1.48824,0,0,1-1.60986-1.12695Zm-31.395-19.85767h25.438q-.96606-3.21863-2.2539-7.24511-1.29054-4.02246-2.73682-8.61353-1.44946-4.58826-2.89844-9.177-1.44873-4.58826-2.65625-8.855-1.20776-4.26379-2.17334-7.80835H89.6709A130.10721,130.10721,0,0,1,86.29,91.32324q-2.2566,7.24512-4.58887,14.812Q79.36548,113.70484,77.11279,120.14233Z"/>
	<path class="cls-2" d="M150.8501,85h17.54931a2.18994,2.18994,0,0,1,2.09278,1.61011,10.9881,10.9881,0,0,1,.80517,2.62011,26.1193,26.1193,0,0,1,.48291,3.13965q.1582,1.69044.16114,3.62232a37.60829,37.60829,0,0,1,10.70605-8.61328,27.97632,27.97632,0,0,1,14.32-3.62256,1.28073,1.28073,0,0,1,1.44922,1.449v19.481c0,.7522-.53858,1.127-1.60987,1.127a35.47077,35.47077,0,0,0-9.9733.72461,39.60663,39.60663,0,0,0-8.37159,2.6565c-2.30957,1.07421-4.75765,2.30932-6.04524,3.70288V163.551q0,1.44909-1.28809,1.449H152.29932a1.42268,1.42268,0,0,1-1.61036-1.61011V108.3894q0-3.53979-.08007-7.48657-.0835-3.94335-.2417-7.80859a57.5726,57.5726,0,0,0-.644-6.967A.92532.92532,0,0,1,150.8501,85Z"/>
</svg>