<svg xmlns="http://www.w3.org/2000/svg" viewBox="0 0 64 64"><defs><style>.cls-1{fill:#eaeaea;}.cls-2{fill:#acc6e6;}.cls-3{fill:#1473e6;}</style></defs><g id="Surfaces"><g id="BG_Fill_no_shadow" data-name="BG Fill no shadow"><rect class="cls-1" x="3.9998" y="2" width="56" height="54" rx="9.91383"/></g><g id="GRID"><g id="_64" data-name="64"><rect class="cls-2" x="4" y="40.07495" width="56" height="0.80005"/><rect class="cls-2" x="4" y="13.125" width="56" height="0.82495"/><rect class="cls-2" x="4" y="26.0874" width="56" height="0.8501"/><path class="cls-2" d="M57.17993,53.01a9.63878,9.63878,0,0,1-1.12988.865H7.95a9.63878,9.63878,0,0,1-1.12988-.865Z"/><rect class="cls-2" x="17.125" y="2.19995" width="0.8125" height="53.73755"/><rect class="cls-2" x="32.03125" y="2.19995" width="0.84375" height="53.73755"/><rect class="cls-2" x="46.125" y="2.19995" width="0.8125" height="53.73755"/></g></g></g><g id="Outlined_Mnemonics_Logos" data-name="Outlined Mnemonics &amp; Logos"><g id="Ap"><path class="cls-3" d="M25.71045,34.26709H17.16309l-1.73877,5.4021a.43521.43521,0,0,1-.44385.333h-4.3291q-.37061,0-.25879-.407l7.3999-21.312q.11059-.33288.22217-.75854a7.91176,7.91176,0,0,0,.14746-1.49854.22929.22929,0,0,1,.25928-.259h5.8833c.17187,0,.27051.062.2959.18506L32.999,39.63208q.11133.3706-.22168.37012H27.96729a.34136.34136,0,0,1-.36963-.259Zm-7.21533-4.66187h5.84619q-.22193-.73974-.51807-1.665-.29589-.92433-.6289-1.9795-.33252-1.05432-.666-2.10888-.33252-1.0547-.61035-2.03516-.27759-.98-.49951-1.79443h-.03711a29.957,29.957,0,0,1-.77686,2.96q-.51855,1.66516-1.05469,3.40405Q19.01293,28.12574,18.49512,29.60522Z"/><path class="cls-3" d="M43.21143,21.24316a10.65777,10.65777,0,0,1,4.18115.74,8.05321,8.05321,0,0,1,2.88574,2.01661,8.64685,8.64685,0,0,1,1.7207,2.86743,10.58918,10.58918,0,0,1-.37011,7.80713,9.18643,9.18643,0,0,1-2.57129,3.16333,11.32069,11.32069,0,0,1-3.64453,1.90551,13.90794,13.90794,0,0,1-4.16309.62915c-.07373,0-.17285-.00659-.2959-.01855a3.99946,3.99946,0,0,0-.40674-.01855v6.29a.30213.30213,0,0,1-.29638.333q-.55445.03625-1.31348.11084-.75879.074-1.46094.1482-.70312.07361-1.22119.11083a3.773,3.773,0,0,0-.62939.074c-.14746,0-.22168-.09888-.22168-.2959v-21.719q0-.25856-.01856-.74c-.01269-.32032-.02441-.63477-.03711-.94361q-.019-.46215-.05566-.72143a.19889.19889,0,0,1,.14844-.22193q.92432-.33324,2.12744-.666,1.20191-.3329,2.627-.592A16.86707,16.86707,0,0,1,43.21143,21.24316Zm-.44385,4.366a8.19134,8.19134,0,0,0-1.14746.074,9.36565,9.36565,0,0,0-1.07276.22216V36.0061a5.19228,5.19228,0,0,0,.57373.05567c.23389.01269.4253.01831.57325.01831a6.66837,6.66837,0,0,0,2.60839-.53638,4.86856,4.86856,0,0,0,2.12793-1.75757,5.52476,5.52476,0,0,0,.85059-3.219,5.2365,5.2365,0,0,0-1.18359-3.66284A4.28718,4.28718,0,0,0,42.76758,25.60913Z"/></g></g></svg>