<svg id="Layer_2" data-name="Layer 2" xmlns="http://www.w3.org/2000/svg" viewBox="0 0 240 234">
<g id="Surfaces">
	<g id="Utility_Surface" data-name="Utility Surface">
		<g id="Outline_no_shadow" data-name="Outline no shadow">
			<rect id="Rectangle_1" data-name="Rectangle 1" width="240" height="234" rx="42.5" fill="#000b1d"/>
		</g>
	</g>
</g>
<g id="Outlined_Mnemonics_Logos" data-name="Outlined Mnemonics &amp; Logos">
	<g id="Be">
		<path id="Path_1" data-name="Path 1" d="M42.4,163.934V61.7q0-1.449.966-1.61,2.736-.159,8.372-.241t12.236-.161q6.6-.079,12.075-.081,13.2,0,21.01,2.9t11.995,7.325a23.34,23.34,0,0,1,5.635,9.258,31.042,31.042,0,0,1,1.449,8.855,25.7,25.7,0,0,1-1.61,9.418,25.135,25.135,0,0,1-3.864,6.843,18.378,18.378,0,0,1-4.347,4.025,32.15,32.15,0,0,1,6.359,4.427,26.256,26.256,0,0,1,6.038,7.969,26.874,26.874,0,0,1,2.576,12.4,28.233,28.233,0,0,1-5.394,17.066q-5.4,7.407-15.456,11.511t-24.07,4.105H65.666q-5.071,0-9.338-.081t-7.406-.161q-3.14-.083-5.394-.081A1.258,1.258,0,0,1,42.4,163.934ZM64.137,78.765v22.379H75.084q4.348,0,8.533.161a29.936,29.936,0,0,1,5.957.644A14.6,14.6,0,0,0,93.036,97.6a13.637,13.637,0,0,0,1.369-6.44,11.35,11.35,0,0,0-2.093-7.084,12.524,12.524,0,0,0-6.037-4.105A31.245,31.245,0,0,0,76.212,78.6H71.542q-2.094,0-3.783.081T64.137,78.765Zm0,41.377v26.565q2.736.162,5.474.241t6.6.081a42.6,42.6,0,0,0,11.672-1.449,15.1,15.1,0,0,0,7.647-4.508,11.35,11.35,0,0,0,2.576-7.567,13.592,13.592,0,0,0-2.093-7.567q-2.094-3.219-7.728-4.669a39.371,39.371,0,0,0-4.427-.8,46.778,46.778,0,0,0-5.876-.322Z" fill="#fff"/>
		<path id="Path_2" data-name="Path 2" d="M154.306,131.251a20.747,20.747,0,0,0,3.059,8.453,16.566,16.566,0,0,0,7.326,6.037Q169.6,148,177.49,148a58.437,58.437,0,0,0,10.385-.885,43.3,43.3,0,0,0,9.418-2.818c.536-.427.8-.161.8.805v15.295a2.39,2.39,0,0,1-.241,1.208,2.315,2.315,0,0,1-.725.724,45.157,45.157,0,0,1-10.465,3.462,70.764,70.764,0,0,1-14.168,1.208q-11.434,0-19.159-3.542a34.153,34.153,0,0,1-12.558-9.5,37.2,37.2,0,0,1-6.923-13.122,51.651,51.651,0,0,1-2.093-14.571,50.746,50.746,0,0,1,2.5-15.858,41.433,41.433,0,0,1,7.486-13.685,35.969,35.969,0,0,1,12.075-9.5,37.765,37.765,0,0,1,16.744-3.461A36.334,36.334,0,0,1,186.1,86.815a28.1,28.1,0,0,1,10.545,8.291,36.615,36.615,0,0,1,5.957,11.351,40.462,40.462,0,0,1,1.932,12.236q0,3.543-.241,6.44c-.161,1.932-.473,3.939-.579,4.8a1.52,1.52,0,0,1-1.449,1.288Zm0-15.617H175.4q3.864,0,5.715-.081a11.35,11.35,0,0,0,2.334-.241v-.966a12.864,12.864,0,0,0-.644-3.7,13.153,13.153,0,0,0-13.041-9.177,13.984,13.984,0,0,0-13.282,7.567,20.326,20.326,0,0,0-2.174,6.6Z" fill="#fff"/>
		<path id="Path_3" data-name="Path 3" d="M144.164,56.584H192.3c.751,0,1.129.431,1.129,1.29V70.935a1.14,1.14,0,0,1-1.29,1.29H144c-.753,0-1.129-.428-1.129-1.29V57.713C142.874,56.962,143.3,56.584,144.164,56.584Z" fill="#fff"/>
	</g>
</g>
</svg>
