<svg xmlns="http://www.w3.org/2000/svg" viewBox="0 0 240 234"><defs><style>.cls-1{fill:#000b1d;}.cls-2{fill:#fff;}</style></defs><g id="Layer_2" data-name="Layer 2"><g id="Surfaces"><g id="Utility_Surface" data-name="Utility Surface"><g id="Outline_no_shadow" data-name="Outline no shadow"><rect class="cls-1" width="240" height="234" rx="42.5"/></g></g></g><g id="Outlined_Mnemonics_Logos" data-name="Outlined Mnemonics &amp; Logos"><g id="Be"><path class="cls-2" d="M42.40186,163.93433V61.69922q0-1.44873.96582-1.60986,2.73559-.15858,8.37207-.24146,5.63379-.07947,12.23584-.16113,6.59985-.07911,12.07519-.08057,13.19971,0,21.01026,2.89819,7.8076,2.89783,11.99462,7.32544a23.34018,23.34018,0,0,1,5.63526,9.25757,31.04209,31.04209,0,0,1,1.44873,8.855,25.69508,25.69508,0,0,1-1.60986,9.41846,25.13558,25.13558,0,0,1-3.86426,6.84253,18.37755,18.37755,0,0,1-4.34668,4.0249,32.15037,32.15037,0,0,1,6.35937,4.42749,26.25651,26.25651,0,0,1,6.0376,7.96948,26.87392,26.87392,0,0,1,2.57568,12.397,28.233,28.233,0,0,1-5.39355,17.06616q-5.39575,7.407-15.45557,11.51147-10.06421,4.10559-24.06982,4.10547H65.666q-5.07129,0-9.3379-.08056-4.26781-.08313-7.40576-.16089-3.13989-.08313-5.39355-.08057Q42.40015,165.22474,42.40186,163.93433ZM64.13672,78.76538v22.37891H75.08447q4.34766,0,8.53321.16089a29.9349,29.9349,0,0,1,5.957.644,14.59821,14.59821,0,0,0,3.46142-4.34693,13.63653,13.63653,0,0,0,1.36866-6.43994,11.35046,11.35046,0,0,0-2.09327-7.084,12.52423,12.52423,0,0,0-6.03711-4.10547,31.245,31.245,0,0,0-10.0625-1.36865H71.54248q-2.094,0-3.7832.08056Q66.06884,78.76794,64.13672,78.76538Zm0,41.377v26.56495q2.73559.16223,5.47412.24145,2.73559.08313,6.60107.08057a42.60075,42.60075,0,0,0,11.67237-1.449,15.09576,15.09576,0,0,0,7.64746-4.508,11.34993,11.34993,0,0,0,2.57617-7.5669,13.59229,13.59229,0,0,0-2.09326-7.56714q-2.094-3.21863-7.728-4.66894a39.3671,39.3671,0,0,0-4.42724-.80493,46.77548,46.77548,0,0,0-5.87647-.322Z"/><path class="cls-2" d="M154.30634,131.25122a20.74732,20.74732,0,0,0,3.05908,8.45264,16.56588,16.56588,0,0,0,7.32569,6.03735q4.90869,2.2566,12.79931,2.25415a58.43613,58.43613,0,0,0,10.38477-.8855,43.30116,43.30116,0,0,0,9.41846-2.81762c.53564-.42749.80468-.16089.80468.80517v15.29492a2.39007,2.39007,0,0,1-.24121,1.20752,2.315,2.315,0,0,1-.72461.72437,45.1559,45.1559,0,0,1-10.46484,3.46167,70.76434,70.76434,0,0,1-14.168,1.20752q-11.43384,0-19.15918-3.542a34.15253,34.15253,0,0,1-12.5581-9.499,37.20438,37.20438,0,0,1-6.92286-13.12158,51.65083,51.65083,0,0,1-2.09326-14.57056,50.74576,50.74576,0,0,1,2.49561-15.85839,41.43328,41.43328,0,0,1,7.48633-13.68506,35.96861,35.96861,0,0,1,12.07519-9.499,37.7656,37.7656,0,0,1,16.74414-3.46142,36.3345,36.3345,0,0,1,15.53662,3.05884,28.10358,28.10358,0,0,1,10.54541,8.2915,36.61534,36.61534,0,0,1,5.957,11.35059,40.46221,40.46221,0,0,1,1.93165,12.23608q0,3.54309-.24122,6.43994c-.16113,1.93189-.47287,3.93938-.57882,4.79729a1.52013,1.52013,0,0,1-1.44873,1.28809C201.62546,131.21868,154.30634,131.25122,154.30634,131.25122Zm0-15.61694h21.09131q3.86352,0,5.71533-.08057a11.35005,11.35005,0,0,0,2.33448-.24145v-.96607a12.86355,12.86355,0,0,0-.644-3.70288,13.15261,13.15261,0,0,0-13.041-9.177,13.98444,13.98444,0,0,0-13.28223,7.56689A20.32572,20.32572,0,0,0,154.30634,115.63428Z"/><path class="cls-2" d="M144.16353,56.584h48.13865c.75094,0,1.12881.431,1.12881,1.28994v13.061a1.13976,1.13976,0,0,1-1.28994,1.28993H144.0024c-.75323,0-1.12881-.42822-1.12881-1.28993V57.71284C142.87359,56.96213,143.302,56.584,144.16353,56.584Z"/></g></g></g></svg>