<svg xmlns="http://www.w3.org/2000/svg" width="240" height="234" viewBox="0 0 240 234">
  <defs>
    <style>
      .cls-1 {
        fill: #1e3101;
      }

      .cls-2 {
        fill: #99e83f;
      }
    </style>
  </defs>
  <g id="Layer_2" data-name="Layer 2">
    <g id="Surfaces">
      <g id="_3D_Substance_Surface" data-name="3D Substance Surface">
        <g id="Outline_no_shadow" data-name="Outline no shadow">
          <rect class="cls-1" width="240" height="234" rx="42.5"/>
        </g>
      </g>
    </g>
    <g id="Outlined_Mnemonics_Logos" data-name="Outlined Mnemonics &amp; Logos">
      <g id="Ds">
        <g>
          <path class="cls-2" d="M44.0918,163.77319V61.3772a1.17308,1.17308,0,0,1,1.127-1.28784q2.41552-.15858,7.084-.24146,4.66773-.07947,10.94825-.16113,6.279-.07911,13.36279-.08057,19.31982,0,32.03906,6.60108a44.58968,44.58968,0,0,1,19.07862,18.11254q6.35814,11.51257,6.35937,26.48438a59.07776,59.07776,0,0,1-3.30029,20.52759,47.89578,47.89578,0,0,1-9.01612,15.37549A53.611,53.611,0,0,1,108.814,157.41382a57.00728,57.00728,0,0,1-15.456,6.27905,68.04279,68.04279,0,0,1-16.26123,2.01245H65.10254q-6.36255,0-11.8335-.08056-5.47558-.08313-8.21093-.24146Q44.092,165.3833,44.0918,163.77319Zm22.21826-84.364v66.65405q1.76954,0,3.21973.08057c.9663.05542,1.957.10815,2.97851.16089q1.52856.08313,3.46143.08056a43.12081,43.12081,0,0,0,14.3291-2.2539,29.30626,29.30626,0,0,0,11.02832-6.762,30.37326,30.37326,0,0,0,7.08447-11.10913,42.13509,42.13509,0,0,0,2.49512-14.9729,37.77374,37.77374,0,0,0-2.415-14.08764,26.67052,26.67052,0,0,0-7.00342-10.14283,28.67277,28.67277,0,0,0-10.94775-6.03759A47.74907,47.74907,0,0,0,76.61377,79.0874q-3.22266,0-5.39356.08032Q69.04711,79.25085,66.31006,79.40918Z"/>
          <path class="cls-2" d="M197.36084,106.29639a37.64308,37.64308,0,0,0-9.57959-3.38111,50.87488,50.87488,0,0,0-11.18945-1.28808,20.82182,20.82182,0,0,0-6.0376.72461,5.4247,5.4247,0,0,0-3.13965,2.01245,5.06987,5.06987,0,0,0-.80469,2.73706,4.27537,4.27537,0,0,0,.96582,2.57593,10.95837,10.95837,0,0,0,3.38086,2.65649,67.45143,67.45143,0,0,0,7.084,3.30054,70.20059,70.20059,0,0,1,15.37549,7.32544,23.38251,23.38251,0,0,1,7.88916,8.2915,22.1075,22.1075,0,0,1,2.33447,10.3042,23.143,23.143,0,0,1-3.86377,13.28247,25.41568,25.41568,0,0,1-11.18994,8.9353q-7.32789,3.219-18.11231,3.22022a65.50371,65.50371,0,0,1-13.60449-1.28809,38.91576,38.91576,0,0,1-9.74072-3.22,2.08507,2.08507,0,0,1-1.127-1.93213V143.16528a.94571.94571,0,0,1,.40284-.88549.781.781,0,0,1,.88525.08056,40.135,40.135,0,0,0,11.91406,4.9104,51.12133,51.12133,0,0,0,11.75293,1.52954q5.63379,0,8.29151-1.449a4.55123,4.55123,0,0,0,2.65674-4.186q0-2.09033-2.415-4.0249-2.4148-1.93213-9.82129-4.66919a59.18347,59.18347,0,0,1-14.24854-7.24487,24.57169,24.57169,0,0,1-7.56689-8.45264,22.2018,22.2018,0,0,1-2.33448-10.22339,23.08045,23.08045,0,0,1,3.38086-12.075,24.57047,24.57047,0,0,1,10.46534-9.177q7.08252-3.53943,17.71-3.542a78.39983,78.39983,0,0,1,12.397.8855,30.2453,30.2453,0,0,1,8.37207,2.33447,1.46829,1.46829,0,0,1,.96582.8855,4.44825,4.44825,0,0,1,.16113,1.20752v16.261a1.08222,1.08222,0,0,1-.48291.96607A1.05562,1.05562,0,0,1,197.36084,106.29639Z"/>
        </g>
      </g>
    </g>
  </g>
</svg>
