<svg xmlns="http://www.w3.org/2000/svg" viewBox="0 0 240 234">
	<defs>
		<style>
			.cls-1{fill:#013301;}
			.cls-2{fill:#3f6;}
		</style>
	</defs>
	<g id="Layer_2" data-name="Layer 2">
		<g id="Surfaces">
			<g id="_3D_Surface" data-name="3D Surface">
				<g id="Outline_no_shadow" data-name="Outline no shadow">
					<rect class="cls-1" width="240" height="234" rx="42.5"/>
				</g>
			</g>
		</g>
		<g id="Outlined_Mnemonics_Logos" data-name="Outlined Mnemonics &amp; Logos">
			<g id="Dn">
				<path class="cls-2" d="M34.97778,163.77319V61.3772a1.17278,1.17278,0,0,1,1.127-1.28784q2.4148-.15858,7.084-.24146,4.66772-.07947,10.94775-.16113,6.27906-.07911,13.36328-.08057,19.31982,0,32.03906,6.60108a44.58836,44.58836,0,0,1,19.07813,18.11254q6.35816,11.51257,6.35986,26.48438a59.07744,59.07744,0,0,1-3.30078,20.52759,47.887,47.887,0,0,1-9.01611,15.37549,53.61121,53.61121,0,0,1-12.96045,10.70654,57.00734,57.00734,0,0,1-15.45606,6.27905,68.03882,68.03882,0,0,1-16.26074,2.01245H55.988q-6.36181,0-11.83349-.08056-5.47486-.08313-8.21094-.24146Q34.97754,165.3833,34.97778,163.77319Zm22.21777-84.364v66.65405q1.76954,0,3.22022.08057,1.44873.08313,2.97851.16089,1.52784.08313,3.46143.08056a43.12489,43.12489,0,0,0,14.3291-2.2539,29.31,29.31,0,0,0,11.02832-6.762,30.37228,30.37228,0,0,0,7.084-11.10913,42.13513,42.13513,0,0,0,2.4956-14.9729,37.7836,37.7836,0,0,0-2.415-14.08764,26.67041,26.67041,0,0,0-7.00342-10.14283A28.67481,28.67481,0,0,0,81.426,81.01929,47.74564,47.74564,0,0,0,67.49975,79.0874q-3.22266,0-5.39355.08032Q59.93237,79.25085,57.19555,79.40918Z"/>
				<path class="cls-2" d="M134.81664,163.93433V104.04224q0-2.7356-.08057-6.11792-.08275-3.38086-.24169-6.43994-.16187-3.05678-.32178-4.83008a.95617.95617,0,0,1,.16113-.96607,1.31233,1.31233,0,0,1,.96582-.322h16.74414a3.597,3.597,0,0,1,1.60987.322,1.5169,1.5169,0,0,1,.80517,1.127q.3208.96606.72461,2.17358a13.55431,13.55431,0,0,1,.56348,2.97852,32.335,32.335,0,0,1,10.626-6.19849,36.56889,36.56889,0,0,1,12.07471-2.01245,30.625,30.625,0,0,1,9.41846,1.52954,23.79474,23.79474,0,0,1,15.21484,14.812q2.41479,6.19959,2.415,16.01929v47.81714q0,1.44909-1.28809,1.449h-19.481a1.42267,1.42267,0,0,1-1.61035-1.61011V118.04932a20.111,20.111,0,0,0-1.44873-8.21094,11.5072,11.5072,0,0,0-4.10547-4.991,12.1163,12.1163,0,0,0-6.84278-1.771,20.03279,20.03279,0,0,0-7.56689,1.3684,19.0989,19.0989,0,0,0-5.957,3.78345v55.70606q0,1.44909-1.28809,1.449H136.26537A1.28058,1.28058,0,0,1,134.81664,163.93433Z"/>
			</g>
		</g>
	</g>
</svg>