<?xml version="1.0" encoding="utf-8"?>
<!-- Generator: Adobe Illustrator 24.2.0, SVG Export Plug-In . SVG Version: 6.00 Build 0)  -->
<svg version="1.1" id="Layer_1" xmlns="http://www.w3.org/2000/svg" xmlns:xlink="http://www.w3.org/1999/xlink" x="0px" y="0px"
	 viewBox="0 0 240 234" style="enable-background:new 0 0 240 234;" xml:space="preserve">
<style type="text/css">
	.st0{fill:#0B121E;}
	.st1{fill:#FFFFFF;}
</style>
<g>
	<g>
		<path class="st0" d="M197.5,4C218.8,4,236,21.2,236,42.5v149c0,21.3-17.2,38.5-38.5,38.5h-155C21.2,230,4,212.8,4,191.5v-149
			C4,21.2,21.2,4,42.5,4H197.5 M197.5,0h-155C19,0,0,19,0,42.5v149C0,215,19,234,42.5,234h155c23.5,0,42.5-19,42.5-42.5v-149
			C240,19,221,0,197.5,0z"/>
	</g>
	<path class="st1" d="M132.2,98c-5.6,18.8-10.3,36.9-15.9,54.6c-3.2,10-6.7,19.5-11.1,25.6c-4.8,6.8-13.9,13.3-24.8,13.3
		c-7.7,0-15.3-3.6-15.3-11.7c0-5,5.1-9.7,9.2-9.7c1.8-0.1,3.4,0.9,4.2,2.4c3.8,6.8,7.4,10.8,9.1,10.8s3-2.3,5.8-12.1L113.3,98H99.1
		c-1.1-3.2,0.5-7.1,2.3-7.9h14.2c2.7-8.8,5.9-17.6,10.5-25.6c6.8-12.3,17.7-22,32.7-22c11.4,0,16.1,5.5,16.1,12.4
		c-0.2,7.4-6.7,11.2-9.7,11.2c-2.4,0-3.6-1.8-4.4-4.4c-2.6-9.7-5.9-12.6-7.9-12.6c-2,0-5,3.6-8.3,11.2c-4.4,9.5-7.3,19.7-10,29.7
		h17.3c1.1,2.1,0.2,6.7-2.4,7.9H132.2z"/>
	<path class="st0" d="M132.2,98c-5.6,18.8-10.3,36.9-15.9,54.6c-3.2,10-6.7,19.5-11.1,25.6c-4.8,6.8-13.9,13.3-24.8,13.3
		c-7.7,0-15.3-3.6-15.3-11.7c0-5,5.1-9.7,9.2-9.7c1.8-0.1,3.4,0.9,4.2,2.4c3.8,6.8,7.4,10.8,9.1,10.8s3-2.3,5.8-12.1L113.3,98H99.1
		c-1.1-3.2,0.5-7.1,2.3-7.9h14.2c2.7-8.8,5.9-17.6,10.5-25.6c6.8-12.3,17.7-22,32.7-22c11.4,0,16.1,5.5,16.1,12.4
		c-0.2,7.4-6.7,11.2-9.7,11.2c-2.4,0-3.6-1.8-4.4-4.4c-2.6-9.7-5.9-12.6-7.9-12.6c-2,0-5,3.6-8.3,11.2c-4.4,9.5-7.3,19.7-10,29.7
		h17.3c1.1,2.1,0.2,6.7-2.4,7.9H132.2z"/>
</g>
</svg>
