<svg xmlns="http://www.w3.org/2000/svg" viewBox="0 0 240 234">
	<defs>
		<style>
			.cls-1{fill:#001e36;}
			.cls-2{fill:#31a8ff;}
		</style>
	</defs>
	<g id="Layer_2" data-name="Layer 2">
		<g id="Surfaces">
			<g id="Photo_Surface" data-name="Photo Surface">
				<g id="Outline_no_shadow" data-name="Outline no shadow">
					<rect class="cls-1" width="240" height="234" rx="42.5"/>
				</g>
			</g>
		</g>
		<g id="Outlined_Mnemonics_Logos" data-name="Outlined Mnemonics &amp; Logos">
			<g id="Fr">
				<path class="cls-2" d="M84.6626,124.65039v39.44482a1.1382,1.1382,0,0,1-1.28809,1.28809H63.57129a1.0384,1.0384,0,0,1-.88525-.322,1.94127,1.94127,0,0,1-.2417-1.127V61.05542q0-2.25293,1.127-2.25415h63.75635a1.95477,1.95477,0,0,1,1.12695.24145q.32081.24171.48291,2.17359l1.771,17.54907a.8212.8212,0,0,1-.2417.8855,1.41617,1.41617,0,0,1-1.04639.40234H84.6626v24.47217h40.25c.96582,0,1.44873.3772,1.44873,1.12695v17.71a1.1382,1.1382,0,0,1-1.28809,1.28809Z"/>
				<path class="cls-2" d="M140.52979,85.36621H158.0791a2.18994,2.18994,0,0,1,2.09278,1.61011,7.79663,7.79663,0,0,1,.80517,2.2539,26.1213,26.1213,0,0,1,.48291,3.13965q.1582,1.69044.16113,3.62232a37.60834,37.60834,0,0,1,10.70606-8.61328,30.14521,30.14521,0,0,1,14.89258-3.62256,1.28073,1.28073,0,0,1,1.44922,1.449v19.481c0,.7522-.53858,1.127-1.60987,1.127a40.64366,40.64366,0,0,0-18.91748,3.38111,17.01243,17.01243,0,0,0-5.39355,3.70288v51.03711q0,1.44909-1.28809,1.449H141.979a1.42268,1.42268,0,0,1-1.61035-1.61011V108.3894q0-3.53979-.08008-7.48657-.08349-3.94335-.24169-7.80859a51.03384,51.03384,0,0,0-.644-6.60083.92532.92532,0,0,1,1.127-1.1272Z"/>
			</g>
		</g>
	</g>
</svg>