<svg version="1.1" id="Layer_1" xmlns="http://www.w3.org/2000/svg" xmlns:xlink="http://www.w3.org/1999/xlink" x="0px" y="0px"
	 viewBox="0 0 240 234" style="enable-background:new 0 0 240 234;" xml:space="preserve">
<path style="fill:#EAEAEA;" d="M42.8681107-0.28347h154.9999695c23.4721069,0,42.5,19.0278969,42.5,42.5v149.0000305
	c0,23.4721069-19.0278931,42.5-42.5,42.5H42.8681107c-23.4721031,0-42.5-19.0278931-42.5-42.5V42.2165298
	C0.36811,18.7444267,19.3960075-0.28347,42.8681107-0.28347z"/>
<g id="_256">
	<rect x="0.36811" y="162.7165375" style="fill:#ACC6E6;" width="239.9999847" height="2"/>
	<rect x="0.36811" y="45.7165298" style="fill:#ACC6E6;" width="239.9999847" height="2"/>
	<rect x="0.36811" y="103.7165298" style="fill:#ACC6E6;" width="239.9999847" height="2"/>
	<path style="fill:#ACC6E6;" d="M228.4481049,220.7165375H12.2881002c0.6599998,0.6900024,1.3400002,1.3600006,2.0600004,2
		H226.388092L228.4481049,220.7165375z"/>
	<rect x="59.369091" y="-0.28347" style="fill:#ACC6E6;" width="2" height="234.0000153"/>
	<rect x="119.3681107" y="-0.28347" style="fill:#ACC6E6;" width="2" height="234.0000153"/>
	<rect x="179.368103" y="-0.28347" style="fill:#ACC6E6;" width="2" height="234.0000153"/>
</g>
<g>
	<g>
		<path style="fill:#1473E6;" d="M30.3445091,60.2253685c0.1006584-0.644043,0.509325-0.9660645,1.2236805-0.9660645h28.1428242
			c0.9175262,0,1.4769516,0.3774414,1.6824455,1.1271973c0.7120361,2.7922363,1.5794678,6.145504,2.5999756,10.0624962
			c1.0181847,3.9191895,2.1152306,8.2385254,3.2883568,12.9604492c1.1712646,4.7243652,2.3708191,9.5541992,3.5945053,14.4899902
			c1.2236786,4.9382324,2.4209213,9.7404785,3.5945053,14.4094238c1.1707993,4.6689453,2.1648712,8.9631348,2.9822006,12.880127
			c0.8150177,3.9191971,1.4769516,7.1643143,1.9886017,9.7404861h0.1530762
			c0.4058838-2.2541504,1.1207047-5.2578125,2.1412125-9.0161209c1.0177231-3.7558594,2.1913071-7.9694824,3.5175018-12.6384277
			c1.3243408-4.6689453,2.6769791-9.4714355,4.0532684-14.409668c1.3767624-4.9355469,2.7270813-9.8208008,4.0532761-14.6508789
			c1.3238754-4.8300781,2.5739975-9.3103027,3.7471161-13.4436035c1.1712646-4.1306152,2.1152344-7.5920372,2.8295898-10.3842735
			c0.2031784-0.7497559,0.6619415-1.1271973,1.3767624-1.1271973h27.3779068c0.8150177,0,1.2737732,0.3774414,1.3767548,1.1271973
			l3.670578,102.8789062c0.1006622,0.4301758,0.0241241,0.7797852-0.2291412,1.0463867
			c-0.2560577,0.2692871-0.5881958,0.4025879-0.9945374,0.4025879h-19.8832016
			c-0.3061523,0-0.5617447-0.0805664-0.7649231-0.2414551c-0.2054901-0.1611328-0.305687-0.4553223-0.305687-0.885498
			c0-5.4741211-0.0264359-11.2145996-0.0765381-17.2270508c-0.0528793-6.0097656-0.128952-12.0473633-0.2296143-18.1125488
			c-0.1025162-6.0625076-0.1025162-11.8862381,0-17.4685135c0.1006622-5.5795898,0.1530762-10.7316895,0.1530762-15.4560547
			c0-4.7216797,0.0236588-8.8271484,0.0765381-12.3164062c0.0501022-3.4865723,0.0765381-6.090332,0.0765381-7.8085938h-0.1530762
			c-0.6118393,2.6843262-1.4291763,6.1987305-2.4473648,10.5456543c-1.0205078,4.3469238-2.2177429,9.2321777-3.5940399,14.6508789
			c-1.3767548,5.4211426-2.8560333,11.0285645-4.4355011,16.8244629c-1.5822449,5.7961426-3.111618,11.5393143-4.5885696,17.2270584
			c-1.4792709,5.6904297-2.9061279,11.003418-4.2828903,15.9389648c-1.3762894,4.9382324-2.5234375,9.2851562-3.4414291,13.0410156
			c-0.305687,0.8603516-0.8674316,1.2880859-1.6824417,1.2880859H69.6526108c-1.0205078,0-1.6323471-0.4277344-1.8355179-1.2880859
			c-0.9175339-3.7558594-1.9640121-8.1027832-3.1352768-13.0410156c-1.1735878-4.9355469-2.3708267-10.0876465-3.5945091-15.4558105
			c-1.223217-5.3659668-2.5234375-10.8676834-3.9001961-16.5026932c-1.3762932-5.6350098-2.6765137-11.0812988-3.9001961-16.3413086
			c-1.223217-5.2578125-2.3202629-10.1958008-3.288353-14.8120117c-0.9704094-4.6137695-1.8614998-8.6940918-2.6765137-12.236084
			h-0.3061523c0,3.5419922,0,7.7834473,0,12.7189941c0,4.9382324-0.0760765,10.3845215-0.2291527,16.3415527
			s-0.3061523,12.1831055-0.4587631,18.6760254c-0.1530762,6.495369-0.3321304,13.2019119-0.5353012,20.1250076
			c-0.2054939,6.9228516-0.4592285,13.7653809-0.7649193,20.5273438c0,0.8603516-0.4086647,1.2880859-1.2236824,1.2880859
			h-17.741991c-0.4086666,0-0.7407951-0.0805664-0.9940662-0.2414551c-0.2560558-0.1611328-0.3325939-0.5634766-0.2296143-1.2075195
			L30.3445091,60.2253685z"/>
	</g>
	<g>
		<path style="fill:#1473E6;" d="M181.4694672,166.3203278c-7.9443359,0-15.1088867-1.5043945-21.4936523-4.5080566
			c-6.387207-3.0036621-11.4057617-7.5393066-15.0532227-13.6044922
			c-3.6503906-6.0627441-5.4741211-13.6574707-5.4741211-22.7814941c0-7.619873,1.8237305-14.651123,5.4741211-21.0910645
			c3.6474609-6.4399414,8.9604492-11.592041,15.9389648-15.4560547c6.9755859-3.8640137,15.4003906-5.7958984,25.2768555-5.7958984
			c0.5356445,0,1.2324219,0.0275879,2.0927734,0.0805664c0.8579102,0.0551758,1.8769531,0.1357422,3.059082,0.2414551V51.6882515
			c0-0.7497559,0.3222656-1.1269531,0.9663086-1.1269531h20.2856445c0.644043,0,0.9663086,0.3220215,0.9663086,0.9658203v95.151123
			c0,1.826416,0.0805664,3.8110352,0.2412109,5.9570312c0.1611328,2.1481934,0.2944336,4.0803223,0.402832,5.7958984
			c0,0.7521973-0.3222656,1.2880859-0.9663086,1.6101074c-5.4741211,2.2539062-10.8950195,3.8640137-16.2607422,4.829834
			C191.5568695,165.8371735,186.405014,166.3203278,181.4694672,166.3203278z M191.2902679,146.3562164v-43.9528809
			c-0.7519531-0.2138672-1.6376953-0.375-2.65625-0.4831543c-1.0214844-0.1057129-2.1206055-0.1608887-3.3007812-0.1608887
			c-4.0800781,0-7.8359375,0.8603516-11.2700195,2.5759277c-3.4360352,1.7182617-6.2539062,4.1860352-8.4521484,7.4060059
			c-2.2011719,3.2199707-3.3007812,7.4614258-3.3007812,12.7189941c0,3.972168,0.5634766,7.4060059,1.6904297,10.3039551
			s2.6289062,5.2602539,4.5083008,7.0839844c1.8764648,1.826416,4.1303711,3.1672363,6.7617188,4.0251465
			c2.6289062,0.8603516,5.3935547,1.2878418,8.2915039,1.2878418c1.5019531,0,2.8979492-0.0527344,4.1860352-0.1608887
			C189.0363617,146.8945465,190.2160492,146.6782379,191.2902679,146.3562164z"/>
	</g>
</g>
</svg>
