<?xml version="1.0" encoding="utf-8"?>
<!-- Generator: Adobe Illustrator 25.0.1, SVG Export Plug-In . SVG Version: 6.00 Build 0)  -->
<svg version="1.1" id="Layer_1" xmlns="http://www.w3.org/2000/svg" xmlns:xlink="http://www.w3.org/1999/xlink" x="0px" y="0px"
	 viewBox="0 0 240 234" style="enable-background:new 0 0 240 234;" xml:space="preserve">
<style type="text/css">
	.st0{fill:#1E3101;}
	.st1{fill:#99E83F;}
</style>
<g id="Layer_2_1_">
	<g id="Surfaces">
		<g id="_3D_Substance_Surface">
			<g id="Outline_no_shadow">
				<path class="st0" d="M42.5,0h155C220.972,0,240,19.028,240,42.5v149c0,23.472-19.028,42.5-42.5,42.5h-155
					C19.028,234,0,214.972,0,191.5v-149C0,19.028,19.028,0,42.5,0z"/>
			</g>
		</g>
	</g>
	<g id="Outlined_Mnemonics_Logos">
		<g id="Pt">
			<g>
				<path class="st1" d="M51.911,164.095V61.216c0-0.75,0.322-1.127,0.966-1.127c1.716,0,3.755-0.027,6.118-0.081
					c2.359-0.053,4.909-0.106,7.647-0.161c2.737-0.053,5.635-0.107,8.694-0.161c3.059-0.053,6.091-0.08,9.097-0.081
					c8.156,0,15.025,1.02,20.608,3.059c5.036,1.703,9.628,4.509,13.443,8.211c3.234,3.209,5.733,7.082,7.326,11.351
					c1.506,4.154,2.269,8.542,2.254,12.96c0,8.588-1.986,15.672-5.957,21.252c-3.998,5.603-9.617,9.845-16.1,12.156
					c-7.226,2.602-14.861,3.884-22.54,3.784c-2.362,0-4.025-0.027-4.991-0.081c-0.966-0.053-2.415-0.08-4.347-0.081v31.717
					c0.1,0.7-0.386,1.349-1.086,1.449c-0.12,0.017-0.242,0.017-0.362,0H53.038C52.286,165.383,51.911,164.956,51.911,164.095z
					 M74.129,79.409v33.327c1.394,0.108,2.682,0.162,3.864,0.161h5.313c3.897,0.057,7.779-0.486,11.511-1.61
					c3.19-0.947,6.04-2.792,8.211-5.313c2.093-2.468,3.14-5.902,3.14-10.304c0.085-3.114-0.725-6.188-2.334-8.855
					c-1.692-2.579-4.137-4.575-7.003-5.715c-3.742-1.455-7.74-2.139-11.753-2.012c-2.576,0-4.857,0.027-6.843,0.08
					C76.247,79.223,74.879,79.304,74.129,79.409L74.129,79.409z"/>
				<path class="st1" d="M187.794,149.444v13.202c0,1.182-0.429,1.88-1.288,2.093c-2.113,0.662-4.264,1.2-6.44,1.61
					c-2.55,0.454-5.138,0.67-7.728,0.644c-6.979,0-12.452-1.825-16.422-5.474c-3.972-3.648-5.958-9.497-5.957-17.549v-39.928h-9.499
					c-0.86,0-1.288-0.483-1.288-1.449V86.654c0-0.858,0.483-1.287,1.449-1.288h9.499c0.106-1.824,0.24-3.944,0.403-6.359
					c0.161-2.415,0.375-4.83,0.644-7.245c0.267-2.415,0.508-4.374,0.724-5.876c0.106-0.322,0.27-0.622,0.483-0.885
					c0.208-0.262,0.487-0.458,0.805-0.563l19.159-2.415c0.42-0.069,0.692-0.069,0.885,0.044c0.213,0.108,0.242,0.386,0.242,0.922
					c-0.216,2.47-0.377,5.825-0.483,10.062c-0.108,4.241-0.216,8.347-0.322,12.316h14.973c0.644,0,0.966,0.429,0.966,1.288v16.261
					c0.082,0.532-0.275,1.032-0.805,1.127h-15.295v34.454c0,3.65,0.617,6.253,1.852,7.808c1.232,1.557,3.513,2.336,6.842,2.335
					c0.966,0,1.876-0.025,2.737-0.081c0.858-0.053,1.717-0.133,2.576-0.241c0.292-0.109,0.618-0.08,0.885,0.08
					C187.658,148.559,187.794,148.908,187.794,149.444z"/>
			</g>
		</g>
	</g>
</g>
</svg>
