<svg xmlns="http://www.w3.org/2000/svg" viewBox="0 0 256 256">
  <defs>
    <style>
      .cls-1 {
        fill: #001e36;
      }

      .cls-2 {
        fill: #31a8ff;
      }

      .cls-3 {
        opacity: 0.6;
      }
    </style>
  </defs>
  <g id="Surfaces">
    <g id="Photo_Surface" data-name="Photo Surface">
      <g id="Outline_no_shadow" data-name="Outline no shadow">
        <rect class="cls-1" x="8" y="4" width="240" height="234" rx="42.5"/>
      </g>
    </g>
  </g>
  <g id="Outlined_Mnemonics_Logos" data-name="Outlined Mnemonics &amp; Logos">
    <g id="PsC">
      <g>
        <g id="Outlined_Mnemonics_Logos-2" data-name="Outlined Mnemonics Logos">
          <g id="Ps">
            <g>
              <path class="cls-2" d="M78.17407,155.11725V82.25806c0-.531.22823-.79814.68434-.79814,1.2148,0,2.324-.01782,3.997-.05706q2.50689-.056,5.416-.114,2.90789-.05628,6.15736-.11411,3.24915-.056,6.442-.05706a42.82381,42.82381,0,0,1,14.5946,2.16645,25.32167,25.32167,0,0,1,9.521,5.815,22.30546,22.30546,0,0,1,5.18773,8.03853,26.6631,26.6631,0,0,1,1.59657,9.17863q0,9.12348-4.21877,15.05074a23.837,23.837,0,0,1-11.40214,8.60858,45.421,45.421,0,0,1-15.96291,2.393q-2.50948,0-3.53479-.05706-1.026-.05628-3.07833-.05705v22.74878a.90712.90712,0,0,1-1.02634,1.02619H78.97217C78.43965,156.02948,78.17407,155.72656,78.17407,155.11725ZM93.57358,95.14234v23.76372q1.48038.11489,2.73633.11394h3.76269a26.74111,26.74111,0,0,0,8.15262-1.30146,12.29316,12.29316,0,0,0,5.815-3.76268q2.22317-2.62154,2.22351-7.29733a11.53155,11.53155,0,0,0-1.65366-6.2713,10.633,10.633,0,0,0-4.95984-4.04762,21.13243,21.13243,0,0,0-8.32344-1.42518q-2.73667,0-4.84572.05688-2.11116.05887-2.90751.171Z"/>
              <path class="cls-2" d="M175.85619,114.5852a26.6593,26.6593,0,0,0-6.7843-2.39451,36.03011,36.03011,0,0,0-7.92441-.91223,14.746,14.746,0,0,0-4.27584.51317,3.84187,3.84187,0,0,0-2.22351,1.42523,3.59042,3.59042,0,0,0-.56988,1.93839,3.02776,3.02776,0,0,0,.684,1.82428,7.76068,7.76068,0,0,0,2.39434,1.88134,47.76674,47.76674,0,0,0,5.01691,2.33745,49.71585,49.71585,0,0,1,10.889,5.1879,16.55952,16.55952,0,0,1,5.58714,5.87206,15.65665,15.65665,0,0,1,1.65328,7.29747,16.38984,16.38984,0,0,1-2.73634,9.40669,17.99949,17.99949,0,0,1-7.92475,6.328,31.90918,31.90918,0,0,1-12.8272,2.28056,46.39015,46.39015,0,0,1-9.63476-.91222,30.742,30.742,0,0,1-7.24041-2.28042,1.47667,1.47667,0,0,1-.79811-1.36834V140.69586a.66974.66974,0,0,1,.28529-.62711.55311.55311,0,0,1,.62694.05706,30.46075,30.46075,0,0,0,8.7796,3.47756,36.20453,36.20453,0,0,0,8.32346,1.08323,12.78611,12.78611,0,0,0,5.87207-1.02619,3.22318,3.22318,0,0,0,1.88151-2.96455,3.77191,3.77191,0,0,0-1.7103-2.85045,28.23369,28.23369,0,0,0-6.95547-3.30672,41.91447,41.91447,0,0,1-10.09087-5.13085,17.40177,17.40177,0,0,1-5.3589-5.98618,15.72336,15.72336,0,0,1-1.65328-7.24024,16.34552,16.34552,0,0,1,2.39434-8.55155,17.40084,17.40084,0,0,1,7.41158-6.49919,27.95107,27.95107,0,0,1,12.54229-2.50845,55.52285,55.52285,0,0,1,8.7796.62711,23.01419,23.01419,0,0,1,6.11213,1.6533,1.03985,1.03985,0,0,1,.684.62711,3.15018,3.15018,0,0,1,.11412.85517V113.901a.76644.76644,0,0,1-.342.68417A1.102,1.102,0,0,1,175.85619,114.5852Z"/>
            </g>
          </g>
        </g>
        <g class="cls-3">
          <path class="cls-2" d="M128.24685,208.19971a87.19971,87.19971,0,1,1,0-174.39942,86.27356,86.27356,0,0,1,39.30859,9.36878,1.99993,1.99993,0,1,1-1.80566,3.56909,82.31067,82.31067,0,0,0-37.50293-8.93787A83.19971,83.19971,0,1,0,211.44656,121a82.29122,82.29122,0,0,0-9.022-37.66577,2.00017,2.00017,0,0,1,3.56543-1.814A86.26118,86.26118,0,0,1,215.44656,121,87.29854,87.29854,0,0,1,128.24685,208.19971Z"/>
        </g>
      </g>
    </g>
  </g>
</svg>
