<svg xmlns="http://www.w3.org/2000/svg" viewBox="0 0 256 256">
  <defs>
    <style>
      .cls-1 {
        fill: #001e36;
      }

      .cls-2 {
        fill: #31a8ff;
      }

      .cls-3 {
        opacity: 0.6;
      }
    </style>
  </defs>
  <g id="Surfaces">
    <g id="Photo_Surface" data-name="Photo Surface">
      <g id="Outline_no_shadow" data-name="Outline no shadow">
        <rect class="cls-1" x="8" y="4" width="240" height="234" rx="42.5"/>
      </g>
    </g>
  </g>
  <g id="Outlined_Mnemonics_Logos" data-name="Outlined Mnemonics &amp; Logos">
    <g id="PsX">
      <g>
        <g id="Outlined_Mnemonics_Logos-2" data-name="Outlined Mnemonics Logos">
          <g id="Ps">
            <g>
              <path class="cls-2" d="M81.24138,155.94446V83.08527c0-.531.22823-.79815.68434-.79815,1.2148,0,2.324-.01781,3.997-.05706q2.50689-.056,5.416-.11394,2.90789-.05628,6.15736-.11411,3.24917-.056,6.442-.05706A42.82371,42.82371,0,0,1,118.5326,84.1114a25.32178,25.32178,0,0,1,9.521,5.815A22.30544,22.30544,0,0,1,133.2413,97.965a26.66287,26.66287,0,0,1,1.59658,9.17863q0,9.12348-4.21877,15.05074a23.83707,23.83707,0,0,1-11.40214,8.60858,45.42107,45.42107,0,0,1-15.96291,2.39295q-2.50948,0-3.53479-.05706-1.026-.05628-3.07834-.05705v22.74878a.90715.90715,0,0,1-1.02634,1.02619H82.03948C81.507,156.85669,81.24138,156.55377,81.24138,155.94446Zm15.3995-59.97491v23.76372q1.4804.11488,2.73634.11394h3.76269a26.7412,26.7412,0,0,0,8.15262-1.30146,12.29316,12.29316,0,0,0,5.815-3.76268q2.22318-2.62153,2.22351-7.29733a11.53154,11.53154,0,0,0-1.65365-6.2713,10.633,10.633,0,0,0-4.95985-4.04762,21.13239,21.13239,0,0,0-8.32343-1.42518q-2.73668,0-4.84573.05688-2.11116.05888-2.90751.171Z"/>
              <path class="cls-2" d="M178.9235,115.41241a26.6593,26.6593,0,0,0-6.7843-2.39451,36.03011,36.03011,0,0,0-7.92441-.91223,14.74614,14.74614,0,0,0-4.27585.51317,3.84182,3.84182,0,0,0-2.22351,1.42523,3.59059,3.59059,0,0,0-.56988,1.93839,3.02771,3.02771,0,0,0,.684,1.82428,7.76073,7.76073,0,0,0,2.39433,1.88133,47.76589,47.76589,0,0,0,5.01692,2.33746,49.71628,49.71628,0,0,1,10.889,5.1879,16.55949,16.55949,0,0,1,5.58713,5.87206,15.65652,15.65652,0,0,1,1.65328,7.29747,16.3899,16.3899,0,0,1-2.73633,9.40669,17.99952,17.99952,0,0,1-7.92476,6.328,31.90913,31.90913,0,0,1-12.82719,2.28056,46.39009,46.39009,0,0,1-9.63476-.91222,30.74247,30.74247,0,0,1-7.24041-2.28042,1.4767,1.4767,0,0,1-.79812-1.36834V141.52307a.66976.66976,0,0,1,.28529-.62711.55311.55311,0,0,1,.62694.05706,30.46075,30.46075,0,0,0,8.7796,3.47756,36.20523,36.20523,0,0,0,8.32347,1.08323,12.78611,12.78611,0,0,0,5.87207-1.02619,3.22321,3.22321,0,0,0,1.88151-2.96455,3.7719,3.7719,0,0,0-1.71031-2.85045,28.23369,28.23369,0,0,0-6.95547-3.30672,41.91422,41.91422,0,0,1-10.09086-5.13085,17.40177,17.40177,0,0,1-5.3589-5.98618,15.72336,15.72336,0,0,1-1.65328-7.24024,16.34551,16.34551,0,0,1,2.39433-8.55155,17.40086,17.40086,0,0,1,7.41159-6.49919,27.95107,27.95107,0,0,1,12.54229-2.50845,55.52294,55.52294,0,0,1,8.7796.62711,23.01429,23.01429,0,0,1,6.11213,1.6533,1.03987,1.03987,0,0,1,.684.62711,3.15017,3.15017,0,0,1,.11411.85517v11.5161a.76641.76641,0,0,1-.342.68417A1.10194,1.10194,0,0,1,178.9235,115.41241Z"/>
            </g>
          </g>
        </g>
        <g class="cls-3">
          <path class="cls-2" d="M128,217.76459a14.45449,14.45449,0,0,1-10.28809-4.26148L35.49707,131.288a14.54878,14.54878,0,0,1,0-20.576l82.21484-82.21509a14.54952,14.54952,0,0,1,20.57618,0L220.50293,110.712a14.54878,14.54878,0,0,1,0,20.576l-82.21484,82.21509A14.45449,14.45449,0,0,1,128,217.76459Zm-7.46-7.08985a10.55038,10.55038,0,0,0,14.91992,0l82.21484-82.21508a10.54965,10.54965,0,0,0,0-14.91932L135.46,31.32526a10.55038,10.55038,0,0,0-14.91992,0L38.3252,113.54034a10.54965,10.54965,0,0,0,0,14.91932Z"/>
        </g>
      </g>
    </g>
  </g>
</svg>
