<svg xmlns="http://www.w3.org/2000/svg" viewBox="0 0 240 234"><defs><style>.cls-1{fill:#000b1d;}.cls-2{fill:#fff;}</style></defs><title>Asset 136</title><g id="Layer_2" data-name="Layer 2"><g id="Surfaces"><g id="Utility_Surface" data-name="Utility Surface"><g id="Outline_no_shadow" data-name="Outline no shadow"><rect class="cls-1" width="240" height="234" rx="42.5"/></g></g></g><g id="Outlined_Mnemonics_Logos" data-name="Outlined Mnemonics &amp; Logos"><g id="Pf"><path class="cls-2" d="M57.0138,163.54525V61.21631c0-.74976.32227-1.127.96631-1.127q2.573,0,6.11767-.08057,3.53981-.07911,7.64746-.16089,4.106-.07947,8.69434-.16113,4.58789-.07911,9.09619-.08057,12.23364,0,20.60791,3.05908a35.755,35.755,0,0,1,13.44385,8.21094,31.496,31.496,0,0,1,7.3252,11.35059,37.64894,37.64894,0,0,1,2.25439,12.96045q0,12.88256-5.957,21.252A33.65844,33.65844,0,0,1,111.11,128.59473a64.0567,64.0567,0,0,1-22.54,3.78369q-3.54345,0-4.99121-.08057c-.96582-.053-2.81377.17692-4.74541.17692v31.16708a1.28093,1.28093,0,0,1-1.44922,1.449l-19.24336-.25749C57.3888,164.83333,57.0138,164.4056,57.0138,163.54525ZM78.83333,79.66667v33.32715c1.39356.10815,3.08037-.0966,4.2625-.0966h5.313a37.98372,37.98372,0,0,0,11.51172-1.60987,17.35829,17.35829,0,0,0,8.21094-5.313q3.13916-3.70167,3.13964-10.304a16.2828,16.2828,0,0,0-2.335-8.85522,15.014,15.014,0,0,0-7.00342-5.71534A29.83945,29.83945,0,0,0,90.17982,79.0874q-3.86427,0-6.84229.08032A35.325,35.325,0,0,0,78.83333,79.66667Z"/><path class="cls-2" d="M154.04016,103.90566l-9.89434.00138c-.75244-.10571-1.12695-.48291-1.12695-1.12695V86.26066a.99643.99643,0,0,1,1.12695-1.1272l9.89434-.00138v-2.3418a56.5104,56.5104,0,0,1,.80518-10.0625,31.94735,31.94735,0,0,1,2.57617-8.13037,27.93556,27.93556,0,0,1,9.17675-10.78711q5.9546-4.18468,15.77833-4.186a41.061,41.061,0,0,1,4.66894.24145,14.51713,14.51713,0,0,1,3.70264.8855,1.6581,1.6581,0,0,1,1.12744,1.61011v15.939q0,1.1283-1.28809.80493a17.40353,17.40353,0,0,0-2.415-.16088h-2.415a10.8904,10.8904,0,0,0-5.07177,1.127,6.89211,6.89211,0,0,0-3.21973,3.78345,18.8883,18.8883,0,0,0-1.577,7.16455v4.11279h13.568q.96606,0,1.20752.322a1.611,1.611,0,0,1,.24121.96606v16.35855q0,1.12828-1.44873,1.12695h-13.568v59.4787a2.14229,2.14229,0,0,1-.2417.96606q-.24169.483-1.20752.48291H155.32825c-.86036,0-1.28809-.48291-1.28809-1.449Z"/></g></g></g></svg>