<svg xmlns="http://www.w3.org/2000/svg" viewBox="0 0 256 256">
	<defs>
		<style>
			.cls-1{fill:#00005b;}
			.cls-2{fill:#99f;}
		</style>
	</defs>
	<g id="Surfaces">
		<g id="Video_Audio_Surface" data-name="Video/Audio Surface">
			<g id="Outline_no_shadow" data-name="Outline no shadow">
				<rect class="cls-1" x="8" y="4" width="240" height="234" rx="42.5"/>
			</g>
		</g>
	</g>
	<g id="Live_Text" data-name="Live Text">
		<g id="Ru">
			<path class="cls-2" d="M68.67,169.38H49.52c-.86,0-1.29-.48-1.29-1.45V65.54c0-1,.32-1.45,1-1.45q5.64-.17,9.66-.24l7.73-.16c2.47-.06,5-.08,7.65-.08H83q13.53,0,22.7,3.78a30.67,30.67,0,0,1,14.09,11Q124.7,85.5,124.7,96A28.09,28.09,0,0,1,122.13,108a30.3,30.3,0,0,1-7.09,9.58,34.67,34.67,0,0,1-10.46,6.52q1.61,2.1,4.51,6.36t6.36,9.5q3.45,5.24,6.92,10.55t6.28,9.82c1.87,3,3.3,5.37,4.26,7.08a1.75,1.75,0,0,1,.41,1.29.66.66,0,0,1-.73.64H109.25a3.36,3.36,0,0,1-1.45-.24,2.14,2.14,0,0,1-.81-.72c-1.18-1.72-2.65-4-4.43-6.76s-3.64-5.91-5.63-9.34-4-6.82-6-10.15-3.73-6.33-5.23-9A11,11,0,0,0,83.89,131a3.24,3.24,0,0,0-2-.56H70v37.51C70,168.9,69.53,169.38,68.67,169.38Zm1.29-58H82.52a32.18,32.18,0,0,0,10.55-1.53,13.89,13.89,0,0,0,6.84-4.75,13,13,0,0,0,2.41-8q0-7.4-5.47-10.7t-14.49-3.3c-2.58,0-5,0-7.16.08s-4,.13-5.24.24Z"/>
			<path class="cls-2" d="M209.55,90.49v61c0,2.69,0,5.07.08,7.17s.16,3.92.32,5.47.3,2.87.4,3.95c.11.86-.27,1.28-1.12,1.28H192a1.88,1.88,0,0,1-1.93-1.12c-.22-.75-.4-1.59-.57-2.5a14.48,14.48,0,0,1-.24-2.49A28.61,28.61,0,0,1,178,169.46,43.45,43.45,0,0,1,166.88,171,33.08,33.08,0,0,1,156,169.3a21.18,21.18,0,0,1-8.54-5.47,25.83,25.83,0,0,1-5.63-9.66,44.05,44.05,0,0,1-2-14.25V90.65a1.13,1.13,0,0,1,1.28-1.28h19.81a1.13,1.13,0,0,1,1.28,1.28v46.69q0,6.61,2.9,10.39t9.66,3.78a18.15,18.15,0,0,0,6.76-1.21,21.07,21.07,0,0,0,5.64-3.3V90.49c0-.75.48-1.12,1.45-1.12h19.8A1,1,0,0,1,209.55,90.49Z"/>
		</g>
	</g>
</svg>