<?xml version="1.0" encoding="utf-8"?>
<!-- Generator: Adobe Illustrator 25.0.1, SVG Export Plug-In . SVG Version: 6.00 Build 0)  -->
<svg version="1.1" id="Layer_1" xmlns="http://www.w3.org/2000/svg" xmlns:xlink="http://www.w3.org/1999/xlink" x="0px" y="0px"
	 viewBox="0 0 240 234" style="enable-background:new 0 0 240 234;" xml:space="preserve">
<style type="text/css">
	.st0{fill:#1E3101;}
	.st1{fill:#99E83F;}
</style>
<g id="Layer_2_1_">
	<g id="Surfaces">
		<g id="_3D_Substance_Surface">
			<g id="Outline_no_shadow">
				<path class="st0" d="M42.5,0h155C221,0,240,19,240,42.5v149c0,23.5-19,42.5-42.5,42.5h-155C19,234,0,215,0,191.5v-149
					C0,19,19,0,42.5,0z"/>
			</g>
		</g>
	</g>
	<g id="Outlined_Mnemonics_Logos">
		<g id="Sa">
			<g>
				<path class="st1" d="M75.1,167c-5.5,0.1-11-0.5-16.3-1.5c-4.2-0.8-8.4-2.1-12.3-3.9c-0.9-0.4-1.3-1.3-1.3-2.7v-19.2
					c0-0.3,0.1-0.7,0.4-0.9c0.3-0.2,0.7-0.1,1,0.1c4.5,2.8,9.3,4.9,14.3,6.3c4.8,1.4,9.8,2.1,14.8,2.1c6.1,0,10.5-0.9,13.1-2.8
					c2.4-1.5,3.9-4.1,3.9-7c0-1.7-0.4-3.4-1.3-4.9c-1.2-1.7-2.7-3.2-4.5-4.3c-2.8-1.7-5.8-3.2-8.9-4.3l-8-3.4
					c-6.5-2.8-11.7-5.8-15.4-8.9c-3.4-2.7-6-6.2-7.6-10.2c-1.4-3.8-2.1-7.7-2.1-11.8c-0.2-11.6,6.6-22.3,17.2-27
					c5.7-2.7,12.8-4.1,21.3-4.1c4.8,0,9.6,0.3,14.4,1c3.7,0.4,7.3,1.5,10.7,3.1c0.7,0.4,1.2,1.2,1.1,2.1c0,0,0,18.2,0,18.2
					c0,0.3-0.2,0.6-0.5,0.8c-0.4,0.2-0.8-0.1-1.1-0.2c-0.6-0.3-1.2-0.6-1.8-0.9c-1.2-0.5-2.4-1-3.7-1.5c-1.2-0.4-2.5-0.8-3.8-1.2
					c-0.6-0.2-1.3-0.3-1.9-0.5c-4.4-1-8.9-1.5-13.4-1.4c-2.7,0-5.3,0.2-7.9,0.8c-1.8,0.4-3.6,1.1-5.2,2c-1.3,0.7-2.3,1.8-3,3.1
					c-0.6,1.2-1,2.5-1,3.8c0,1.6,0.5,3.3,1.4,4.6c1.3,1.7,3,3,4.8,4c3,1.7,6.1,3.3,9.3,4.7l6,2.3c7.1,2.9,12.6,6,16.6,9.3
					c3.6,2.8,6.5,6.5,8.4,10.6c1.6,3.9,2.4,8.1,2.4,12.3c0.1,6-1.7,11.8-5.1,16.7c-3.6,4.9-8.5,8.7-14.1,11
					C90.4,165.7,83.3,167,75.1,167z"/>
				<path class="st1" d="M161.3,83.8c7.9,0,14.4,1.4,19.2,4.3c4.7,2.7,8.5,6.8,10.9,11.8c2.4,5.2,3.6,10.9,3.5,16.6v31.1
					c0,2,0,4,0.1,5.8c0.1,1.8,0.1,3.7,0.2,5.6c0,0.4-0.1,0.7-0.3,0.8c-4.8,1.8-9.1,3.3-12.9,4.3c-3.6,1-7.2,1.8-10.9,2.3
					c-3.7,0.4-7.5,0.7-11.3,0.6c-5.6,0.1-11.1-0.9-16.3-2.9c-4.7-1.8-8.8-4.9-11.8-8.9c-3-4-4.5-9-4.5-15.1c0-5.8,1.6-10.6,4.7-14.5
					c3.4-4,7.9-7.1,13-8.7c6.1-2,12.4-3,18.8-2.9h5.9c1.2,0,2.4,0,3.6,0.2v-1c-0.1-1-0.2-1.9-0.6-2.8c-0.4-1.3-1.2-2.5-2.2-3.5
					c-1.3-1.2-2.9-2.1-4.6-2.7c-2.6-0.8-5.3-1.1-8-1c-3.9,0-7.8,0.3-11.6,1.1c-3.4,0.7-6.7,1.7-9.8,3.1c-0.3,0.1-0.7,0.1-1,0
					c-0.3-0.1-0.5-0.5-0.5-0.8V90.4c-0.1-0.8,0.4-1.5,1.1-1.8c3.8-1.7,7.9-2.9,12-3.6C152.5,84.2,156.9,83.8,161.3,83.8z
					 M173.2,148.2v-17.1c-1.3-0.2-2.5-0.4-3.7-0.5c-1.2-0.1-2.6-0.2-4.3-0.2c-5.8,0-9.9,0.9-12.3,2.6c-2.3,1.6-3.7,4.3-3.6,7.1
					c0,1.7,0.5,3.3,1.4,4.7c1.1,1.6,2.7,2.8,4.5,3.5c2.5,1,5.2,1.5,8,1.4c1.8,0,3.7-0.1,5.5-0.4C170.1,149,171.7,148.6,173.2,148.2z
					"/>
			</g>
		</g>
	</g>
</g>
</svg>
