<?xml version="1.0" encoding="utf-8"?>
<!-- Generator: Adobe Illustrator 25.0.1, SVG Export Plug-In . SVG Version: 6.00 Build 0)  -->
<svg version="1.1" id="Layer_1" xmlns="http://www.w3.org/2000/svg" xmlns:xlink="http://www.w3.org/1999/xlink" x="0px" y="0px"
	 viewBox="0 0 112 108" style="enable-background:new 0 0 112 108;" xml:space="preserve">
<style type="text/css">
	.st0{fill:#1E3101;}
	.st1{fill:#99E83F;}
</style>
<g id="Layer_2_1_">
	<g id="Surfaces">
		<g id="_3D_Substance_Surface">
			<g id="Outline_no_shadow">
				<path class="st0" d="M19.908,0h72.184C103.087,0,112,8.913,112,19.908v68.184C112,99.087,103.087,108,92.092,108H19.908
					C8.913,108,0,99.087,0,88.092V19.908C0,8.913,8.913,0,19.908,0z"/>
			</g>
		</g>
	</g>
	<g id="Live_Text">
		<g id="Sg_copy">
			<g>
				<path class="st1" d="M34.645,76.449c-2.589,0.024-5.174-0.218-7.714-0.722c-2.006-0.384-3.959-1.009-5.814-1.862
					c-0.443-0.271-0.682-0.779-0.608-1.292v-9.044c-0.019-0.164,0.054-0.324,0.19-0.418c0.16-0.075,0.347-0.06,0.494,0.038
					c2.101,1.307,4.379,2.305,6.764,2.964c2.275,0.644,4.628,0.976,6.992,0.988c2.888,0,4.953-0.443,6.194-1.33
					c1.144-0.712,1.846-1.958,1.862-3.306c0.012-0.814-0.198-1.615-0.608-2.318c-0.549-0.823-1.276-1.511-2.128-2.014
					c-1.326-0.813-2.726-1.5-4.18-2.052l-3.8-1.596c-2.616-1.037-5.062-2.458-7.258-4.218c-1.59-1.279-2.832-2.939-3.61-4.826
					c-0.668-1.773-1.003-3.654-0.988-5.548c-0.1-5.494,3.105-10.511,8.132-12.73c3.157-1.388,6.585-2.05,10.032-1.938
					c2.275-0.011,4.548,0.142,6.802,0.456c1.752,0.201,3.46,0.689,5.054,1.444c0.353,0.199,0.56,0.584,0.532,0.988
					c0,0.081,0,0.163,0,0.244c0,0.22,0,0.44,0,0.661c0,0.324,0,0.648,0,0.972c0,0.393,0,0.786,0,1.179c0,0.427,0,0.854,0,1.281
					c0,0.426,0,0.851,0,1.277c0,0.39,0,0.779,0,1.169c0,0.318,0,0.637,0,0.955c0,0.212,0,0.424,0,0.636
					c0,0.11,0.008,0.224-0.019,0.332c-0.034,0.137-0.133,0.244-0.272,0.277c-0.183,0.043-0.324-0.056-0.479-0.134
					c-0.174-0.088-0.347-0.174-0.523-0.258c-0.351-0.167-0.706-0.325-1.065-0.472c-0.718-0.295-1.453-0.55-2.199-0.765
					c-0.478-0.137-0.961-0.258-1.448-0.361c-2.071-0.461-4.187-0.69-6.308-0.684c-1.252-0.023-2.502,0.105-3.724,0.38
					c-0.865,0.195-1.697,0.515-2.47,0.95c-0.595,0.34-1.082,0.84-1.406,1.444c-0.295,0.549-0.452,1.162-0.456,1.786
					c-0.011,0.777,0.229,1.536,0.684,2.166c0.626,0.779,1.401,1.425,2.28,1.9c1.43,0.822,2.902,1.57,4.408,2.242l2.812,1.064
					c2.81,1.065,5.447,2.537,7.828,4.37c1.704,1.327,3.06,3.049,3.952,5.016c0.769,1.841,1.157,3.819,1.141,5.814
					c0.055,2.809-0.783,5.564-2.395,7.866c-1.684,2.325-3.989,4.129-6.65,5.206C41.49,75.907,38.077,76.527,34.645,76.449z"/>
				<path class="st1" d="M68.312,66.341l10.792,0.532c2.995,0.018,5.96,0.598,8.74,1.71c1.93,0.78,3.574,2.133,4.712,3.876
					c0.975,1.643,1.475,3.524,1.444,5.434c-0.002,2.59-0.872,5.105-2.47,7.144c-1.81,2.302-4.196,4.085-6.916,5.168
					c-3.37,1.342-6.976,1.988-10.602,1.9c-3.556,0.117-7.098-0.491-10.412-1.786c-2.383-0.919-4.462-2.485-6.004-4.522
					c-1.176-1.559-1.84-3.444-1.9-5.396c0.026-0.915,0.26-1.811,0.685-2.622c0.586-1.127,1.314-2.174,2.166-3.116
					c1.204-1.353,2.499-2.623,3.876-3.8C64.303,69.251,66.269,67.741,68.312,66.341z M73.177,62.693
					c-1.906,0.003-3.806-0.214-5.662-0.646c-1.807-0.412-3.529-1.132-5.092-2.128c-1.536-0.977-2.803-2.322-3.687-3.914
					c-0.955-1.799-1.427-3.816-1.368-5.852c-0.021-2.307,0.612-4.573,1.824-6.536c1.283-2.036,3.113-3.669,5.282-4.712
					c2.623-1.234,5.5-1.833,8.398-1.748c1.368,0,2.698,0.063,3.99,0.19c1.292,0.127,2.369,0.267,3.23,0.418
					c0.354,0.051,0.684,0.089,0.988,0.114c0.304,0.026,0.582,0.038,0.836,0.038h10.412c0.304,0,0.456,0.178,0.456,0.532v7.068
					c0.061,0.233-0.08,0.472-0.313,0.532c-0.072,0.019-0.147,0.019-0.219,0c-0.507,0-1.305-0.038-2.394-0.114
					c-1.09-0.076-2.04-0.165-2.85-0.266c0.337,0.641,0.604,1.316,0.798,2.014c0.246,0.93,0.361,1.889,0.342,2.85
					c0.094,2.416-0.585,4.799-1.938,6.802c-1.349,1.843-3.213,3.244-5.358,4.028C78.399,62.281,75.796,62.732,73.177,62.693z
					 M72.112,67.329l-8.056,5.016c-0.969-0.993-1.731-2.168-2.242-3.458c-0.483-1.246-0.703-2.579-0.646-3.914
					c0.045-1.088,0.25-2.163,0.608-3.192c0.344-0.994,0.858-1.92,1.521-2.736l7.523,3.04c-0.167,0.359-0.27,0.745-0.304,1.14
					c-0.051,0.455-0.051,0.914,0,1.368c-0.003,0.5,0.143,0.989,0.418,1.406C71.267,66.492,71.663,66.939,72.112,67.329
					L72.112,67.329z M84.349,79.489c0.067-0.866-0.304-1.707-0.988-2.242c-0.824-0.548-1.758-0.911-2.736-1.064
					c-1.279-0.241-2.575-0.38-3.876-0.418l-8.36-0.38c-0.848,0.543-1.563,1.27-2.09,2.128c-0.427,0.582-0.701,1.261-0.798,1.976
					c0.044,0.862,0.41,1.676,1.026,2.28c0.877,0.877,1.962,1.518,3.154,1.862c1.622,0.512,3.316,0.756,5.016,0.722
					c1.873,0.053,3.744-0.177,5.548-0.684c1.176-0.314,2.25-0.929,3.116-1.786C83.982,81.24,84.335,80.384,84.349,79.489z
					 M78.269,50.153c0.015-0.943-0.18-1.878-0.57-2.736c-0.376-0.806-0.985-1.481-1.748-1.938c-0.915-0.514-1.954-0.764-3.002-0.722
					c-1.435-0.086-2.845,0.407-3.914,1.368c-0.996,1.066-1.505,2.497-1.406,3.952c-0.016,1.326,0.458,2.611,1.33,3.61
					c1.025,1.097,2.492,1.67,3.99,1.558c1.422,0.072,2.815-0.419,3.876-1.368C77.814,52.898,78.339,51.544,78.269,50.153z"/>
			</g>
		</g>
	</g>
</g>
</svg>
