<?xml version="1.0" encoding="UTF-8"?>
<svg xmlns="http://www.w3.org/2000/svg" viewBox="0 0 256 256">
  <defs>
    <style>
      .cls-1 {
        fill: #eaeaea;
      }

      .cls-2 {
        fill: #acc6e6;
      }

      .cls-3 {
        fill: #1473e6;
      }
    </style>
  </defs>
  <g id="Surfaces">
    <g id="BG_Fill_no_shadow" data-name="BG Fill no shadow">
      <rect class="cls-1" x="8" y="4" width="240" height="234" rx="42.5" ry="42.5"/>
    </g>
    <g id="GRID">
      <g id="_256" data-name="256">
        <rect class="cls-2" x="8" y="167" width="240" height="2"/>
        <rect class="cls-2" x="8" y="50" width="240" height="2"/>
        <rect class="cls-2" x="8" y="108" width="240" height="2"/>
        <path class="cls-2" d="m236.08,225H19.92c.66.69,1.34,1.36,2.06,2h212.04l2.06-2Z"/>
        <rect class="cls-2" x="67" y="4" width="2" height="234"/>
        <rect class="cls-2" x="127" y="4" width="2" height="234"/>
        <rect class="cls-2" x="187" y="4" width="2" height="234"/>
      </g>
    </g>
  </g>
  <g id="Outlined_Mnemonics_Logos" data-name="Outlined Mnemonics &amp;amp; Logos">
    <g id="Sn">
      <g>
        <path class="cls-3" d="m78.01,170.99c-6.01,0-11.46-.51-16.34-1.53-4.89-1.02-8.99-2.33-12.32-3.94-.86-.43-1.29-1.34-1.29-2.74v-19.16c0-.43.13-.72.4-.89.27-.16.62-.13,1.05.08,4.51,2.79,9.28,4.89,14.33,6.28,5.04,1.4,9.98,2.09,14.81,2.09,6.12,0,10.49-.94,13.12-2.82,2.63-1.88,3.94-4.21,3.94-7,0-1.82-.43-3.46-1.29-4.91-.86-1.45-2.36-2.87-4.51-4.27-2.15-1.39-5.1-2.84-8.86-4.35l-8.05-3.38c-6.55-2.79-11.67-5.77-15.38-8.94-3.7-3.16-6.25-6.57-7.65-10.22-1.4-3.65-2.09-7.57-2.09-11.75,0-5.8,1.45-11.05,4.35-15.78,2.9-4.72,7.19-8.45,12.88-11.19,5.69-2.74,12.77-4.11,21.25-4.11,5.15,0,9.95.32,14.41.97,4.45.64,8.02,1.67,10.71,3.06.75.43,1.13,1.13,1.13,2.09v18.19c0,.22-.14.46-.4.72-.27.27-.62.24-1.05-.08-3.22-1.72-6.98-3.06-11.27-4.03-4.29-.97-8.75-1.45-13.36-1.45-3.11,0-5.74.27-7.89.81-2.15.54-3.89,1.21-5.23,2.01-1.34.8-2.33,1.83-2.98,3.06-.64,1.24-.97,2.5-.97,3.78,0,1.72.48,3.25,1.45,4.59.97,1.34,2.58,2.68,4.83,4.03,2.25,1.34,5.37,2.93,9.34,4.75l5.96,2.25c7.08,2.9,12.61,5.98,16.58,9.26,3.97,3.28,6.76,6.82,8.37,10.63,1.61,3.81,2.42,7.92,2.42,12.32,0,6.33-1.69,11.89-5.07,16.66-3.38,4.78-8.08,8.45-14.09,11.03-6.01,2.58-13.1,3.86-21.25,3.86Z"/>
        <path class="cls-3" d="m133.23,167.93v-59.89c0-1.82-.03-3.86-.08-6.12-.06-2.25-.14-4.4-.24-6.44-.11-2.04-.22-3.65-.32-4.83-.11-.43-.06-.75.16-.97s.54-.32.97-.32h16.74c.64,0,1.18.11,1.61.32.43.22.7.59.81,1.13.21.64.46,1.37.72,2.17.27.8.46,1.8.56,2.98,3.22-2.79,6.76-4.86,10.63-6.2,3.86-1.34,7.89-2.01,12.07-2.01,3.11,0,6.25.51,9.42,1.53,3.17,1.02,6.09,2.71,8.77,5.07,2.68,2.36,4.83,5.61,6.44,9.74,1.61,4.13,2.42,9.47,2.42,16.02v47.82c0,.97-.43,1.45-1.29,1.45h-19.48c-1.07,0-1.61-.54-1.61-1.61v-45.72c0-3.33-.48-6.06-1.45-8.21-.97-2.15-2.33-3.81-4.11-4.99-1.77-1.18-4.05-1.77-6.84-1.77s-5.31.46-7.57,1.37c-2.25.91-4.24,2.17-5.96,3.78v55.71c0,.97-.43,1.45-1.29,1.45h-19.64c-.97,0-1.45-.48-1.45-1.45Z"/>
      </g>
    </g>
  </g>
</svg>