<svg xmlns="http://www.w3.org/2000/svg" width="48" height="42" viewBox="0 0 48 42">
  <defs>
    <style>
      .cls-1 {
        fill: none;
      }

      .cls-2 {
        fill: #494949;
      }
    </style>
  </defs>
  <g id="CreativeCloud" transform="translate(-186 -1344)">
    <rect id="Rectangle_151117" data-name="Rectangle 151117" class="cls-1" width="48" height="42" transform="translate(186 1344)"/>
    <g id="icons" transform="translate(191 1350.427)">
      <path id="_256" data-name=" 256" class="cls-2" d="M34.017,8.448A14.02,14.02,0,0,0,23.692,4a14.411,14.411,0,0,0-10.2,4.26c-.462-.042-.923-.084-1.364-.084A12.125,12.125,0,0,0,0,20.246a12.432,12.432,0,0,0,3.4,8.436,11.982,11.982,0,0,0,8.73,3.759H23.692A14.21,14.21,0,0,0,34.017,8.448ZM11.92,30.415a10.012,10.012,0,1,1,6.631-17.5l.042.042,4.176,4.26a1.777,1.777,0,0,1-.042,2.527,1.8,1.8,0,0,1-2.539-.042l-4.134-4.218a6.435,6.435,0,0,0-9.045.668,6.3,6.3,0,0,0-1.553,4.155A6.6,6.6,0,0,0,12,26.781h.818V26.8a19.628,19.628,0,0,0,4.47,3.612ZM32.506,26.8a12.019,12.019,0,0,1-8.6,3.675,12.54,12.54,0,0,1-8.646-3.759l-5.5-5.492a1.784,1.784,0,1,1,2.56-2.485l5.477,5.45A8.844,8.844,0,0,0,23.9,26.907a8.294,8.294,0,0,0,6.044-2.61,8.807,8.807,0,0,0,2.518-6.16,8.608,8.608,0,0,0-8.6-8.561A7.818,7.818,0,0,0,19.1,10.954c-.021-.021-.42-.271-.86-.543-.273-.167-.567-.334-.818-.459-.252-.146-1.007-.5-1.448-.689-.1-.042-.252-.1-.315-.125h.021A11.7,11.7,0,0,1,23.86,6,12.172,12.172,0,0,1,36.052,18.137,12.318,12.318,0,0,1,32.506,26.8Z" transform="translate(0 -4)"/>
    </g>
  </g>
</svg>
