<svg xmlns="http://www.w3.org/2000/svg" width="34" height="275.512" viewBox="0 0 34 275.512">
  <g id="Group_330361" data-name="Group 330361" transform="translate(4580 2999.012)">
    <g id="Ellipse_25529" data-name="Ellipse 25529" transform="translate(-4580 -2878)" fill="none" stroke="#fff" stroke-width="3">
      <circle cx="17" cy="17" r="17" stroke="none"/>
      <circle cx="17" cy="17" r="15.5" fill="none"/>
    </g>
    <line id="Line_30" data-name="Line 30" y2="120" transform="translate(-4562.5 -2843.5)" fill="none" stroke="#fff" stroke-width="3"/>
    <line id="Line_31" data-name="Line 31" x2="1" y2="121.5" transform="translate(-4563.5 -2999)" fill="none" stroke="#fff" stroke-width="3"/>
    <g id="Group_330360" data-name="Group 330360" transform="translate(0 -1)">
      <g id="Smock_Play_24_N_2x" data-name="Smock_Play_24_N@2x" transform="translate(-4562.517 -2865)">
        <rect id="Canvas" width="10" height="10" transform="translate(-0.483)" fill="#ff13dc" opacity="0"/>
        <path id="Path_1040435" data-name="Path 1040435" d="M6.976,4H6.4a.4.4,0,0,0-.4.4v7.239a.4.4,0,0,0,.4.4h.574a.805.805,0,0,0,.426-.122l6.051-3.553a.4.4,0,0,0,0-.694L7.4,4.122A.805.805,0,0,0,6.976,4Z" transform="translate(-5.003 -3.153)" fill="#fff"/>
      </g>
      <g id="Smock_Play_24_N_2x-2" data-name="Smock_Play_24_N@2x" transform="translate(-4573 -2865)">
        <rect id="Canvas-2" data-name="Canvas" width="10" height="10" fill="#ff13dc" opacity="0"/>
        <path id="Path_1040435-2" data-name="Path 1040435" d="M12.675,4h.574a.4.4,0,0,1,.4.4v7.239a.4.4,0,0,1-.4.4h-.574a.805.805,0,0,1-.426-.122L6.2,8.368a.4.4,0,0,1,0-.694l6.051-3.552A.805.805,0,0,1,12.675,4Z" transform="translate(-5.206 -3.153)" fill="#fff"/>
      </g>
    </g>
  </g>
</svg>
