<svg xmlns="http://www.w3.org/2000/svg" height="18" viewBox="0 0 18 18" width="18">
  <defs>
    <style>
      .a, .b, .c, .d, .e, .f, .g, .h, .i, .j, .k, .l, .m, .n {
        fill: #000000;
      }

      .a {
        opacity: 0.9;
      }

      .a, .b, .c, .d, .e, .f, .g, .h, .i, .j, .k, .l, .m {
        isolation: isolate;
      }

      .b {
        opacity: 0.8;
      }

      .c {
        opacity: 0.7;
      }

      .d {
        opacity: 0.6;
      }

      .e {
        opacity: 0.5;
      }

      .f {
        opacity: 0.4;
      }

      .g {
        opacity: 0.25;
      }

      .h {
        opacity: 0.3;
      }

      .i {
        opacity: 0.35;
      }

      .j {
        opacity: 0.2;
      }

      .k {
        opacity: 0.15;
      }

      .l {
        opacity: 0.1;
      }

      .m {
        opacity: 0.05;
      }
    </style>
  </defs>
  <title>S LinearGradient 18 N</title>
  <rect id="Canvas" fill="#ff13dc" opacity="0" width="18" height="18" /><rect class="a" height="1" width="14" x="2" y="15" />
  <rect class="b" height="1" width="14" x="2" y="14" />
  <rect class="c" height="1" width="14" x="2" y="13" />
  <rect class="d" height="1" width="14" x="2" y="12" />
  <rect class="e" height="1" width="14" x="2" y="11" />
  <rect class="f" height="1" width="14" x="2" y="10" />
  <rect class="g" height="1" width="14" x="2" y="7" />
  <rect class="h" height="1" width="14" x="2" y="8" />
  <rect class="i" height="1" width="14" x="2" y="9" />
  <rect class="j" height="1" width="14" x="2" y="6" />
  <rect class="k" height="1" width="14" x="2" y="5" />
  <rect class="l" height="1" width="14" x="2" y="4" />
  <rect class="m" height="1" width="14" x="2" y="3" />
  <path class="n" d="M1.5,17h15a.5.5,0,0,0,.5-.5V1.5a.5.5,0,0,0-.5-.5H1.5a.5.5,0,0,0-.5.5v15A.5.5,0,0,0,1.5,17ZM16,2V16H2V2Z" />
</svg>