<svg id="Group_56" data-name="Group 56" xmlns="http://www.w3.org/2000/svg" width="28.764" height="28.438" viewBox="0 0 28.764 28.438">
  <g id="Group_55" data-name="Group 55">
    <path id="Path_19" data-name="Path 19" d="M2781.048,3232.707l7.837-7.831-9.113-9.107,4.921-4.917,1.579,1.578-.85.85.3.3.79-.789,1.185,1.184-1.458,1.457.881.881,1.337-1.336,1.518,1.518-1.063,1.063.4.395,1.063-1.062,1.215,1.214-1.367,1.366.456.455,1.549-1.548,1.428,1.427,3.25-3.248,1.4,1.4.668-.668-7.047-7.042a2.985,2.985,0,0,1,4.071-.364c2.369,1.639,4.07,2.792,6.439,2.792a28.2,28.2,0,0,1,2.916,2.914,9.594,9.594,0,0,0,2.733,6.436c.851,1.821.3,2.671,0,3.946l-6.378-6.314-16.949,16.877Z" transform="translate(-2779.772 -3209.236)" fill="#fae015"/>
  </g>
  <path id="Path_20" data-name="Path 20" d="M2846.592,3288.663l4.781-4.781,1.018,1.018-1.6,1.6.4.4,1.635-1.635,1.388,1.388-.956.956.817.818.956-.957,1.157,1.157-1.82,1.82.524.524,1.728-1.728,1.234,1.234-.8.8.648.648.864-.864,1.6,1.6-4.719,4.719Z" transform="translate(-2833.282 -3268.955)" fill="#fae015"/>
</svg>
