<svg xmlns="http://www.w3.org/2000/svg" width="42.681" height="43.187" viewBox="0 0 42.681 43.187">
  <path id="Path_30" data-name="Path 30" d="M780.894,154.8q.209-1.546.308-3.063c.006-.092.013-.184.017-.276s.012-.21.016-.316v-.024h0c.31-6.315-.914-12.094-4.249-16.206l0,0c-.089-.109-.18-.218-.272-.325l-.014-.016c-.087-.1-.176-.2-.266-.3l-.029-.031c-.085-.093-.171-.184-.258-.276l-.046-.048c-.081-.086-.165-.169-.249-.252-.021-.021-.042-.043-.063-.063-.081-.08-.165-.159-.25-.238l-.071-.067c-.108-.1-.217-.2-.328-.294-.111.1-.221.195-.328.294-.023.022-.046.045-.071.067-.083.079-.167.158-.249.238-.021.02-.041.041-.061.061-.085.084-.168.167-.251.253l-.045.048c-.087.091-.174.183-.259.276l-.029.033c-.089.1-.179.2-.265.3l-.017.021c-.091.106-.18.211-.267.319l-.012.014c-.088.11-.175.22-.26.332l-.013.017c-.085.109-.167.219-.247.332l-.007.009h0c-2.987,4.133-4.048,9.754-3.7,15.853.008.129.015.259.024.39h0c.065.971.166,1.955.3,2.946-4.055,2.879-5.1,6.759-3.741,11.436a1.368,1.368,0,0,0,.955.686c-.022-4.357,1.356-6.392,3.859-6.565q.179.722.379,1.445h2.683v.049a21.55,21.55,0,0,0,.548,5.03,39.312,39.312,0,0,1,1.071,6.73,39.306,39.306,0,0,1,1.071-6.73,21.547,21.547,0,0,0,.548-5.03V161.8h2.683q.2-.722.379-1.445c2.5.173,3.881,2.208,3.86,6.565a1.368,1.368,0,0,0,.954-.686C785.992,161.561,784.949,157.68,780.894,154.8Zm-5.445,12.122h-.672v-13.28h.672Zm-.309-19.433a3.282,3.282,0,1,1,3.281-3.283A3.289,3.289,0,0,1,775.14,147.49Z" transform="matrix(0.719, 0.695, -0.695, 0.719, -429.753, -627.143)" fill="#01d9d9" fill-rule="evenodd"/>
</svg>
