<svg xmlns="http://www.w3.org/2000/svg" xmlns:xlink="http://www.w3.org/1999/xlink" width="960" height="193" viewBox="0 0 960 193">
  <defs>
    <clipPath id="clip-path">
      <rect id="Rectangle_83" data-name="Rectangle 83" width="960" height="193" transform="translate(0 -30)" fill="#fff" stroke="#707070" stroke-width="1"/>
    </clipPath>
  </defs>
  <g id="Mask_Group_1" data-name="Mask Group 1" transform="translate(0 30)" clip-path="url(#clip-path)">
    <g id="Group_13686" data-name="Group 13686" transform="translate(-13.098 -36.732)">
      <path id="Path_3970" data-name="Path 3970" d="M2099.657-488.336c17.979,15.506,31.291-5.126,50.295,7.414s15.189,50.753,65.2,50.747,99.317-104.43,168.484-108.078,70.6,66.572,133.728,77.208,112.411-75.642,157.953-56.707,62.5-9.41,109.613,8.128,65.285,47.3,102.028,28.7,50.324-79.874,86.72-67.911,20.665,37.64,53.651,44.749,41.347-38.925,41.347-92.208H2081S2081.677-503.842,2099.657-488.336Z" transform="translate(-2071.25 600.488)" fill="#f4f4f4"/>
      <path id="Path_3969" data-name="Path 3969" d="M2099.657-488.336c17.979,15.506,31.291-5.126,50.295,7.414s15.189,50.753,65.2,50.747,99.317-103.43,168.484-107.078,70.6,65.572,133.728,76.208,112.411-75.642,157.953-56.707,62.5-9.41,109.613,8.128,65.285,47.3,102.028,28.7,50.324-79.874,86.72-67.911,20.665,37.64,53.651,44.749,41.347-38.925,41.347-92.208H2081S2081.677-503.842,2099.657-488.336Z" transform="translate(-2081 596.293)" fill="#37c9d0"/>
    </g>
  </g>
</svg>
