<svg id="Group_66" data-name="Group 66" xmlns="http://www.w3.org/2000/svg" width="28.008" height="28.447" viewBox="0 0 28.008 28.447">
  <path id="Path_26" data-name="Path 26" d="M.535,0C.091,1.388-.186,2.643.147,2.883c.316.227,1.4-.1,2.611-.591A6.14,6.14,0,0,0,.535,0Z" transform="translate(0 25.491)" fill="#00b9fd"/>
  <path id="Path_27" data-name="Path 27" d="M7.539,5.385S7.245,4.316,5.188,2.378A11.057,11.057,0,0,0,1.874,0S.74,2.65,0,4.979A7.28,7.28,0,0,1,2.625,7.687C4.9,6.77,7.539,5.385,7.539,5.385Z" transform="translate(1.717 18.919)" fill="#00b9fd"/>
  <path id="Path_28" data-name="Path 28" d="M7.619,3.756,4.373.5A1.723,1.723,0,0,0,1.944.5L0,2.45,5.673,8.138,7.62,6.188A1.73,1.73,0,0,0,7.619,3.756Z" transform="translate(19.889 0)" fill="#00b9fd"/>
  <path id="Path_29" data-name="Path 29" d="M.225,13.111A1.606,1.606,0,0,0,0,13.393a13.486,13.486,0,0,1,3.353,2.465A10.483,10.483,0,0,1,5.8,18.883c.034-.028.071-.052.105-.083L18.982,5.688,13.305,0Z" transform="translate(5.12 3.916)" fill="#00b9fd"/>
</svg>
