<svg xmlns="http://www.w3.org/2000/svg" width="36" height="33.127" viewBox="0 0 36 33.127">
  <g id="Group_13570" data-name="Group 13570" transform="translate(-289.707 -381.421)">
    <path id="Path_3945" data-name="Path 3945" d="M316.588,389.7a2.645,2.645,0,0,0-3.1-2.092l1.724,8.873h0a2.646,2.646,0,0,0,2.092-3.1Z" transform="translate(2.436 0.629)" fill="#23da8d"/>
    <path id="Path_3946" data-name="Path 3946" d="M316.958,383.414h0v.007a.384.384,0,0,0-.5.2l-1.1,2.867a.385.385,0,0,0,.673.367.428.428,0,0,0,.04-.074l1.1-2.867A.385.385,0,0,0,316.958,383.414Z" transform="translate(2.624 0.202)" fill="#23da8d"/>
    <path id="Path_3947" data-name="Path 3947" d="M318.28,388.7a.378.378,0,0,0,.069-.046l2.3-2.038a.387.387,0,0,0,.05-.544l0,.006a.381.381,0,0,0-.537-.053h-.007l-2.3,2.038a.385.385,0,0,0,.426.636Z" transform="translate(2.869 0.462)" fill="#23da8d"/>
    <path id="Path_3948" data-name="Path 3948" d="M322.708,390.05h0a.381.381,0,0,0-.438-.315h-.008l-3.007.61a.385.385,0,0,0,.049.764.349.349,0,0,0,.083,0l3.009-.61a.385.385,0,0,0,.315-.443Z" transform="translate(2.993 0.851)" fill="#23da8d"/>
    <path id="Path_3949" data-name="Path 3949" d="M319.942,398.011l-2.089-2.249a.429.429,0,0,0-.065-.053.385.385,0,0,0-.485.592l2.089,2.248a.383.383,0,0,0,.541,0h0l0,.008a.385.385,0,0,0,.007-.546Z" transform="translate(2.815 1.457)" fill="#23da8d"/>
    <path id="Path_3950" data-name="Path 3950" d="M322.135,394.143l-2.9-1.029a.415.415,0,0,0-.082-.018.385.385,0,0,0-.157.749l2.895,1.029a.382.382,0,0,0,.479-.248h.008A.385.385,0,0,0,322.135,394.143Z" transform="translate(2.973 1.196)" fill="#23da8d"/>
    <path id="Path_3951" data-name="Path 3951" d="M318.249,404.123,313.9,381.772a.419.419,0,0,0-.054-.139.433.433,0,0,0-.594-.15l-19.033,11.432c-.01.006-.012.018-.021.024l-1.408.273a3.819,3.819,0,0,0-3.017,4.473l.139.715a3.819,3.819,0,0,0,4.474,3.016l1.4-.271c.014,0,.024.018.041.02l4.976.788,1.876,9.652a1.532,1.532,0,0,0-.76,1.625l.015.076a1.536,1.536,0,0,0,1.8,1.214l3.9-.758a1.537,1.537,0,0,0,1.214-1.8l-.014-.077a1.531,1.531,0,0,0-1.312-1.221l-1.533-7.89,11.765,1.861a.4.4,0,0,0,.15,0v0A.433.433,0,0,0,318.249,404.123Zm-6.264-18.759a.714.714,0,0,1-.084-.008.429.429,0,0,1-.157-.066.517.517,0,0,1-.064-.055.434.434,0,0,1-.119-.222.439.439,0,0,1,.066-.325.531.531,0,0,1,.054-.067.335.335,0,0,1,.067-.051.369.369,0,0,1,.074-.041.416.416,0,0,1,.168-.032.425.425,0,0,1,.084.009.337.337,0,0,1,.08.023.5.5,0,0,1,.076.041.59.59,0,0,1,.063.055.449.449,0,0,1,.095.141c.005.029.02.052.025.08a.711.711,0,0,1,.007.084.376.376,0,0,1-.01.087.393.393,0,0,1-.025.079.42.42,0,0,1-.313.259A.464.464,0,0,1,311.985,385.364Zm.229,2.992a.431.431,0,0,1,.338-.507.434.434,0,1,1,.166.851A.434.434,0,0,1,312.214,388.356Zm.648,3.34h0a.434.434,0,0,1,.34-.508.434.434,0,1,1,.165.851A.433.433,0,0,1,312.862,391.7Zm.65,3.341h0v0h0a.431.431,0,0,1,.34-.506.433.433,0,1,1,.165.85A.431.431,0,0,1,313.513,395.038Zm.649,3.341a.432.432,0,0,1,.34-.507.434.434,0,1,1,.165.851A.433.433,0,0,1,314.162,398.379Zm1.5,3.345a.346.346,0,0,1-.026.08.432.432,0,0,1-.037.075.542.542,0,0,1-.055.067.33.33,0,0,1-.066.051.487.487,0,0,1-.074.042.353.353,0,0,1-.082.026.5.5,0,0,1-.251-.024.642.642,0,0,1-.076-.042.443.443,0,0,1-.183-.277.579.579,0,0,1-.008-.087.53.53,0,0,1,.011-.084.311.311,0,0,1,.026-.078.433.433,0,0,1,.037-.075.816.816,0,0,1,.055-.067.611.611,0,0,1,.066-.054.77.77,0,0,1,.074-.039.443.443,0,0,1,.408.041.517.517,0,0,1,.064.055.366.366,0,0,1,.053.063.491.491,0,0,1,.042.074c.006.029.02.055.025.084a.744.744,0,0,1,.007.084A.365.365,0,0,1,315.66,401.724Z" transform="translate(0 0)" fill="#23da8d"/>
  </g>
</svg>
