<svg xmlns="http://www.w3.org/2000/svg" width="24.622" height="32.61" viewBox="0 0 24.622 32.61">
  <path id="Path_4" data-name="Path 4" d="M383.446,85.656h.369V83h-3.69v2.656h.367V88.1h2.954Zm1.586,19.083v1.522h-6.382v-1.522Zm-17.972,6.437a15.277,15.277,0,0,1-.265-2.822,15.691,15.691,0,0,1,4.231-11.072c2.476-2.478,4.472-3.642,7.908-4.009V89.2h6.183v8.55h-1.21v1.915h-3.763V97.752h-1.21v-.958c-4.419.62-6.658,3.723-8.043,7.847h5.23v2.231h11.9v3.079h-11.9v1.225h13.927v4.434H365.424v-4.434Z" transform="translate(-365.424 -83)" fill="#feaa0a"/>
</svg>
