<svg xmlns="http://www.w3.org/2000/svg" height="18" viewBox="0 0 18 18" width="18">
  <defs>
    <style>
      .a {
        fill: #ffffff;
      }
    </style>
  </defs>
  <title>S DevicePhoneRefresh 18 N</title>
  <rect id="Canvas" fill="#ff13dc" opacity="0" width="18" height="18" /><path class="a" d="M8,15H4V3h8V7.6735a5.79965,5.79965,0,0,1,1-.208V1a1,1,0,0,0-1-1H4A1,1,0,0,0,3,1V17a1,1,0,0,0,1,1H8ZM7.5,1h1a.52.52,0,0,1,.5.5.5205.5205,0,0,1-.5.5h-1A.512.512,0,0,1,7,1.5.512.512,0,0,1,7.5,1Z" />
  <path class="a" d="M9.2,12.2255a4.441,4.441,0,0,1,7.75-1.545l.6255-.6255a.243.243,0,0,1,.1745-.0735.25.25,0,0,1,.25.25V12.757a.236.236,0,0,1-.0895.167l.007.057H15.25a.25.25,0,0,1-.25-.25.243.243,0,0,1,.074-.175l.8695-.87a3.0285,3.0285,0,0,0-5.3.718.48749.48749,0,0,1-.4605.31H9.559a.38.38,0,0,1-.359-.4885Z" />
  <path class="a" d="M17.8,14.7555A4.441,4.441,0,0,1,10.05,16.3l-.625.6255A.24453.24453,0,0,1,9.25,17,.25.25,0,0,1,9,16.75V14.2235a.2385.2385,0,0,1,.0895-.167A.562.562,0,0,0,9.0825,14H11.75a.25.25,0,0,1,.25.25.24448.24448,0,0,1-.0735.175l-.87.8695a3.028,3.028,0,0,0,5.3-.718.488.488,0,0,1,.4605-.3095h.6255a.37949.37949,0,0,1,.3575.4885Z" />
</svg>