<svg xmlns="http://www.w3.org/2000/svg" width="48" height="42" viewBox="0 0 48 42">
  <defs>
    <style>
      .cls-1 {
        fill: none;
      }

      .cls-2 {
        fill: #ff13dc;
        opacity: 0;
      }

      .cls-3 {
        fill: #494949;
      }
    </style>
  </defs>
  <g id="Sequence" transform="translate(-186 -1344)">
    <rect id="Rectangle_151117" data-name="Rectangle 151117" class="cls-1" width="48" height="42" transform="translate(186 1344)"/>
    <g id="Smock_VideoOutline_18_N" transform="translate(192 1346.937)">
      <rect id="Canvas" class="cls-2" width="36" height="36" transform="translate(0 0.063)"/>
      <path id="Path_104070" data-name="Path 104070" class="cls-3" d="M28.816,2H2.993A.993.993,0,0,0,2,2.993V28.816a.993.993,0,0,0,.993.993H28.816a.993.993,0,0,0,.993-.993V2.993A.993.993,0,0,0,28.816,2ZM7.959,27.326a.5.5,0,0,1-.5.5H4.483a.5.5,0,0,1-.5-.5v-2.98a.5.5,0,0,1,.5-.5h2.98a.5.5,0,0,1,.5.5Zm0-6.66a.5.5,0,0,1-.5.5H4.483a.5.5,0,0,1-.5-.5v-2.98a.5.5,0,0,1,.5-.5h2.98a.5.5,0,0,1,.5.5Zm0-6.543a.5.5,0,0,1-.5.5H4.483a.5.5,0,0,1-.5-.5v-2.98a.5.5,0,0,1,.5-.5h2.98a.5.5,0,0,1,.5.5Zm0-6.66a.5.5,0,0,1-.5.5H4.483a.5.5,0,0,1-.5-.5V4.483a.5.5,0,0,1,.5-.5h2.98a.5.5,0,0,1,.5.5Zm13.9,20.36H9.945V17.891H21.864Zm0-13.9H9.945V3.986H21.864Zm5.959,13.408a.5.5,0,0,1-.5.5h-2.98a.5.5,0,0,1-.5-.5v-2.98a.5.5,0,0,1,.5-.5h2.98a.5.5,0,0,1,.5.5Zm0-6.66a.5.5,0,0,1-.5.5h-2.98a.5.5,0,0,1-.5-.5v-2.98a.5.5,0,0,1,.5-.5h2.98a.5.5,0,0,1,.5.5Zm0-6.543a.5.5,0,0,1-.5.5h-2.98a.5.5,0,0,1-.5-.5v-2.98a.5.5,0,0,1,.5-.5h2.98a.5.5,0,0,1,.5.5Zm0-6.66a.5.5,0,0,1-.5.5h-2.98a.5.5,0,0,1-.5-.5V4.483a.5.5,0,0,1,.5-.5h2.98a.5.5,0,0,1,.5.5Z" transform="translate(1.973 1.973)"/>
    </g>
  </g>
</svg>
