<?xml version="1.0" encoding="utf-8"?>
<!-- Generator: Adobe Illustrator 24.0.3, SVG Export Plug-In . SVG Version: 6.00 Build 0)  -->
<svg version="1.1" id="Layer_1" xmlns="http://www.w3.org/2000/svg" xmlns:xlink="http://www.w3.org/1999/xlink" x="0px" y="0px"
	 viewBox="0 0 614.14 242.45" style="enable-background:new 0 0 614.14 242.45;" xml:space="preserve">
<style type="text/css">
	.st0{fill:#3E1BB2;}
	.st1{fill:#FFFFFF;}
</style>
<g>
	<g>
		<path class="st1" d="M142.68,77.82l-6.08,16.75c-0.07,0.28-0.21,0.35-0.42,0.35h-2.69c-0.28,0-0.35-0.14-0.28-0.42l16.26-44.33
			c0.14-0.42,0.28-0.71,0.35-1.98c0-0.14,0.14-0.28,0.28-0.28h4.1c0.28,0,0.35,0.07,0.42,0.28l16.9,46.3c0.07,0.28,0,0.42-0.28,0.42
			h-2.9c-0.21,0-0.35-0.07-0.42-0.28l-6.15-16.83H142.68z M160.78,74.64c-1.63-4.6-7.14-19.51-8.48-24.11h-0.07
			c-1.27,4.45-5.16,14.92-8.48,24.11H160.78z"/>
		<path class="st1" d="M175.55,78.25c0-10.46,7.92-17.82,18.52-17.82c2.76,0,4.24,0.21,5.8,0.57V44.24c0-0.28,0.07-0.35,0.35-0.35
			h2.69c0.35,0,0.35,0.07,0.35,0.35v46.3c0,0.56,0,1.2,0.07,2.19c0,0.21-0.07,0.28-0.28,0.42c-3.46,1.77-6.93,2.47-10.6,2.47
			C182.97,95.64,175.55,89.7,175.55,78.25z M199.87,64.46c-1.41-0.71-3.53-0.99-5.94-0.99c-9.76,0-14.92,6.79-14.92,14.56
			c0,10.6,6.93,14.49,13.71,14.49c2.26,0,5.16-0.28,7.14-1.2V64.46z"/>
		<path class="st1" d="M242.14,78.03c0,10.46-6.22,17.6-15.27,17.6c-10.89,0-15.55-9.26-15.55-17.6c0-10.04,6.29-17.6,15.48-17.6
			C235.92,60.43,242.14,67.43,242.14,78.03z M214.71,77.89c0,7.78,4.38,14.63,12.37,14.63c5.51,0,11.66-4.24,11.66-14.42
			c0-7.28-3.46-14.63-12.16-14.63C219.52,63.47,214.71,69.41,214.71,77.89z"/>
		<path class="st1" d="M253.31,43.89c0.21,0,0.35,0,0.35,0.28V62.2c2.54-1.13,5.37-1.77,8.7-1.77c9.4,0,15.62,6.72,15.62,16.33
			c0,12.37-9.12,18.88-18.59,18.88c-3.39,0-6.01-0.42-8.77-1.34c-0.21-0.07-0.35-0.28-0.35-0.57V44.17c0-0.21,0.14-0.28,0.42-0.28
			H253.31z M262,63.47c-3.61,0-6.08,0.64-8.34,1.7v26.65c1.7,0.5,3.39,0.78,5.94,0.78c7.78,0,14.99-5.3,14.99-15.62
			C274.59,69.2,269.92,63.47,262,63.47z"/>
		<path class="st1" d="M287.38,77.47c-0.35,8.55,4.17,14.99,12.94,14.99c3.04,0,6.08-0.5,8.84-1.98c0.21-0.14,0.35-0.07,0.35,0.21
			v2.33c0,0.28-0.07,0.42-0.28,0.5c-2.12,1.2-5.23,2.12-9.4,2.12c-11.52,0-15.84-8.84-15.84-17.39c0-9.97,5.73-17.82,14.7-17.82
			c9.76,0,13.08,8.06,13.08,13.43c0,1.56-0.07,2.4-0.21,2.97c0,0.21-0.21,0.42-0.5,0.42c-1.06,0.14-4.52,0.21-7.28,0.21H287.38z
			 M303.14,74.71c4.31,0,5.02-0.07,5.23-0.14c0.07-0.21,0.07-0.71,0.07-0.92c0-3.11-1.84-10.25-9.83-10.25
			c-6.79,0-10.32,5.44-11.1,11.31H303.14z"/>
		<path class="st1" d="M333.53,92.81c-0.21-0.14-0.28-0.35-0.28-0.64V89.2c0-0.21,0.21-0.35,0.42-0.21
			c3.61,2.62,7.99,3.46,11.59,3.46c7.78,0,11.45-3.82,11.45-9.19c0-4.1-2.05-7.07-9.54-10.46l-2.9-1.2
			c-8.7-3.82-10.53-8.27-10.53-12.51c0-7.21,5.66-11.88,14.07-11.88c4.52,0,8.2,0.78,10.11,1.98c0.21,0.14,0.28,0.21,0.28,0.57v2.69
			c0,0.28-0.21,0.42-0.42,0.28c-2.33-1.62-6.22-2.4-10.11-2.4c-8.62,0-10.6,5.09-10.6,8.41c0,3.89,2.05,6.93,9.05,9.97l3.18,1.34
			c8.27,3.68,10.89,7.92,10.89,12.94c0,7-5.09,12.65-14.99,12.65C340.53,95.64,336.29,94.58,333.53,92.81z"/>
		<path class="st1" d="M381.89,94.08c0,0.21,0,0.35-0.28,0.5c-1.41,0.78-3.25,1.06-4.74,1.06c-4.52,0-7.28-2.12-7.28-8.62V64.18
			h-5.23c-0.35-0.07-0.42-0.21-0.42-0.5v-2.19c0-0.28,0.07-0.42,0.42-0.42h5.23c0-2.76,0.28-7.99,0.57-9.4
			c0.07-0.21,0.14-0.35,0.28-0.42l2.62-0.49c0.21-0.07,0.42,0,0.42,0.14c-0.35,2.62-0.5,6.72-0.5,10.18h7.99
			c0.28,0,0.42,0.14,0.42,0.42v2.26c0,0.28-0.14,0.35-0.42,0.42h-8.06v22.9c0,3.32,1.41,5.44,4.74,5.44c1.13,0,2.4-0.14,3.89-0.78
			c0.21-0.07,0.35-0.07,0.35,0.21V94.08z"/>
		<path class="st1" d="M415.96,78.03c0,10.46-6.22,17.6-15.27,17.6c-10.89,0-15.55-9.26-15.55-17.6c0-10.04,6.29-17.6,15.48-17.6
			C409.74,60.43,415.96,67.43,415.96,78.03z M388.53,77.89c0,7.78,4.38,14.63,12.37,14.63c5.51,0,11.67-4.24,11.67-14.42
			c0-7.28-3.46-14.63-12.16-14.63C393.34,63.47,388.53,69.41,388.53,77.89z"/>
		<path class="st1" d="M446.56,94.01c0,0.28,0,0.42-0.21,0.5c-2.4,0.92-5.09,1.13-7.56,1.13c-11.59,0-16.83-8.48-16.83-17.53
			c0-10.04,7.07-17.67,17.6-17.67c3.61,0,5.66,0.42,6.72,0.92c0.28,0.14,0.35,0.28,0.35,0.57l-0.07,2.62c0,0.21-0.14,0.21-0.35,0.14
			c-2.05-0.85-3.82-1.2-6.93-1.2c-8.13,0-13.86,5.94-13.86,14.49c0,9.33,6.08,14.49,13.79,14.49c2.69,0,4.95-0.28,7-1.06
			c0.28-0.07,0.35,0,0.35,0.21V94.01z"/>
		<path class="st1" d="M457.52,94.58c0,0.28-0.07,0.35-0.28,0.35h-2.76c-0.21,0-0.35-0.07-0.35-0.35V44.17
			c0-0.21,0.14-0.28,0.35-0.28h2.76c0.21,0,0.28,0.07,0.28,0.28V94.58z M458.08,76.83c3.04-2.76,14.35-13.57,16.4-15.48
			c0.14-0.21,0.28-0.28,0.57-0.28h3.32c0.28,0,0.35,0.28,0.14,0.42c-1.91,1.98-14,12.87-16.47,15.27c-0.07,0.07-0.07,0.07,0,0.21
			c4.81,4.67,13.22,12.44,18.8,17.53c0.21,0.21,0.07,0.42-0.14,0.42h-3.82c-0.35,0-0.5-0.07-0.64-0.28
			c-4.52-4.17-14.49-13.43-18.17-16.97C457.8,77.33,457.8,77.18,458.08,76.83z"/>
	</g>
	<g>
		<path class="st1" d="M68.25,178.91l-5.68,17.52c-0.24,0.59-0.59,0.95-1.3,0.95H47.53c-0.83,0-1.07-0.47-0.95-1.18l23.68-68.32
			c0.47-1.3,0.95-2.72,1.18-7.22c0-0.47,0.35-0.83,0.71-0.83H91.1c0.59,0,0.83,0.12,0.95,0.71l26.88,75.78
			c0.24,0.59,0.12,1.07-0.59,1.07h-15.39c-0.71,0-1.07-0.24-1.3-0.83l-6.04-17.64H68.25z M91.22,164.11
			c-2.37-7.82-7.1-22.14-9.35-30.55h-0.12c-1.89,7.93-6.16,20.96-9.24,30.55H91.22z"/>
		<path class="st1" d="M122.48,168.49c0-16.93,12.67-31.14,34.34-31.14c0.95,0,2.13,0.12,3.91,0.24v-23.33
			c0-0.59,0.36-0.83,0.83-0.83h14.92c0.59,0,0.71,0.24,0.71,0.71v69.98c0,2.72,0.12,6.28,0.47,8.64c0,0.59-0.12,0.83-0.83,1.07
			c-8.17,3.43-15.99,4.74-23.33,4.74C135.98,198.56,122.48,188.62,122.48,168.49z M160.73,151.67c-1.18-0.47-2.72-0.59-4.38-0.59
			c-9.12,0-16.93,5.57-16.93,16.58c0,11.72,6.75,16.81,15.75,16.81c2.01,0,3.91-0.12,5.57-0.71V151.67z"/>
		<path class="st1" d="M205.37,197.38c-0.83,0-1.18-0.36-1.42-0.83c-4.5-13.38-14.45-43.46-19.3-57.07
			c-0.12-0.47,0.12-0.95,0.83-0.95h15.51c0.83,0,1.07,0.24,1.3,0.83c7.7,26.64,10.3,37.18,11.49,42.51h0.24
			c1.18-5.33,4.26-15.99,12.55-42.51c0.24-0.59,0.47-0.83,1.07-0.83h13.74c0.47,0,0.95,0.36,0.71,1.07
			c-5.09,13.97-15.04,43.93-19.77,56.84c-0.35,0.59-0.59,0.95-1.42,0.95H205.37z"/>
		<path class="st1" d="M304.36,167.66c0,18.59-12.08,30.91-29.13,30.91c-20.25,0-29.25-15.28-29.25-30.55
			c0-16.81,11.25-30.67,29.48-30.67C294.53,137.35,304.36,151.67,304.36,167.66z M262.68,167.78c0,10.42,4.85,17.05,12.79,17.05
			c6.87,0,12.08-5.92,12.08-16.81c0-9.24-3.79-16.93-12.79-16.93C267.89,151.08,262.68,157.24,262.68,167.78z"/>
		<path class="st1" d="M357.17,195.72c0,0.59-0.12,0.83-0.59,0.95c-3.79,1.54-8.64,1.89-13.26,1.89
			c-19.18,0-31.26-12.91-31.26-30.31c0-17.76,13.38-30.91,33.51-30.91c5.8,0,9,0.59,10.89,1.3c0.59,0.24,0.71,0.59,0.71,1.3
			l-0.12,12.2c0,0.83-0.47,0.95-0.95,0.83c-2.25-0.83-5.57-1.42-9.95-1.42c-9.95,0-17.17,5.45-17.17,16.1
			c0,12.31,9.12,16.34,17.41,16.34c4.14,0,7.82-0.47,9.83-1.07c0.71-0.24,0.95,0,0.95,0.47V195.72z"/>
		<path class="st1" d="M414.72,184.24c0,3.08,0,5.57,0.24,8.41c0,0.24,0,0.47-0.24,0.59c-10.42,4.03-17.29,5.33-25.81,5.33
			c-13.14,0-23.92-6.04-23.92-19.77c0-12.55,11.01-19.18,26.76-19.18c3.2,0,5.92,0,6.99,0.24v-0.83c0-2.25-1.42-7.46-11.37-7.46
			c-5.92,0-11.13,1.18-15.63,3.2c-0.47,0.24-1.07,0-1.07-0.59V142.2c0-0.59,0.12-0.95,0.83-1.18c5.21-2.49,11.96-3.67,18.59-3.67
			c17.05,0,24.63,10.54,24.63,24.04V184.24z M398.73,172.04c-1.89-0.24-3.55-0.36-5.92-0.36c-8.41,0-11.84,2.72-11.84,6.99
			c0,3.91,2.96,7.1,10.42,7.1c2.72,0,5.09-0.35,7.34-1.07V172.04z"/>
		<path class="st1" d="M457.34,195.37c0,0.71-0.12,1.3-0.83,1.54c-3.32,1.18-6.39,1.66-10.54,1.66c-10.3,0-16.34-5.09-16.34-16.93
			v-29.37h-7.1c-0.71-0.12-0.95-0.36-0.95-1.07v-11.6c0-0.83,0.24-1.07,1.07-1.07h7.1c0.12-4.03,0.59-11.01,1.18-14.33
			c0.12-0.59,0.47-0.95,1.07-1.07l13.85-1.78c0.59-0.12,0.95-0.12,0.95,0.71c-0.36,3.67-0.59,10.66-0.59,16.46h10.89
			c0.71,0,0.95,0.24,0.95,0.95v11.96c0,0.59-0.24,0.71-0.83,0.83H446.1v25.34c0,5.21,1.54,7.58,6.39,7.58
			c1.42,0,2.61-0.24,4.03-0.47c0.47,0,0.83,0.12,0.83,0.83V195.37z"/>
		<path class="st1" d="M480.2,172.28c0.59,6.75,5.33,12.31,16.93,12.31c5.33,0,10.07-0.83,14.56-2.72c0.36-0.24,0.71-0.12,0.71,0.59
			v11.25c0,0.83-0.24,1.18-0.83,1.42c-4.74,2.25-9.95,3.43-18.12,3.43c-22.26,0-30.08-15.28-30.08-29.96
			c0-16.34,10.06-31.26,28.66-31.26c17.88,0,24.98,13.85,24.98,25.58c0,3.67-0.24,6.63-0.59,7.93c-0.12,0.59-0.36,0.83-0.95,0.95
			c-1.54,0.24-6.04,0.47-12.2,0.47H480.2z M495.59,160.79c3.79,0,5.45-0.12,5.92-0.24c0-0.24,0-0.71,0-0.83
			c0-2.84-2.25-9.35-10.07-9.35c-7.46,0-10.66,5.57-11.37,10.42H495.59z"/>
		<path class="st1" d="M547.69,150.49c-5.57,0-7.34,2.01-7.34,4.03c0,2.01,1.54,3.55,8.41,6.16c14.33,5.21,18.83,10.77,18.83,19.18
			c0,11.25-8.76,18.71-24.39,18.71c-7.22,0-13.5-1.3-17.17-3.32c-0.59-0.35-0.83-0.71-0.83-1.3v-12.79c0-0.71,0.47-1.07,0.95-0.71
			c5.45,3.43,12.08,4.74,17.41,4.74c5.57,0,8.05-1.54,8.05-4.03c0-2.25-2.01-3.91-9-6.51c-13.38-4.97-17.76-10.66-17.76-19.18
			c0-9.24,7.46-18.12,23.09-18.12c6.99,0,12.43,0.95,15.39,2.37c0.71,0.36,0.83,0.95,0.83,1.54v11.84c0,0.71-0.47,1.18-1.18,0.83
			C559.06,151.91,553.02,150.49,547.69,150.49z"/>
	</g>
</g>
</svg>
