<svg enable-background="new 0 0 614.14 242.45" viewBox="0 0 614.14 242.45" xmlns="http://www.w3.org/2000/svg"><g fill="#3e1bb2"><path d="m142.68 77.82-6.08 16.75c-.07.28-.21.35-.42.35h-2.69c-.28 0-.35-.14-.28-.42l16.26-44.33c.14-.42.28-.71.35-1.98 0-.14.14-.28.28-.28h4.1c.28 0 .35.07.42.28l16.9 46.3c.07.28 0 .42-.28.42h-2.9c-.21 0-.35-.07-.42-.28l-6.15-16.83h-19.09zm18.1-3.18c-1.63-4.6-7.14-19.51-8.48-24.11h-.07c-1.27 4.45-5.16 14.92-8.48 24.11z"/><path d="m175.55 78.25c0-10.46 7.92-17.82 18.52-17.82 2.76 0 4.24.21 5.8.57v-16.76c0-.28.07-.35.35-.35h2.69c.35 0 .35.07.35.35v46.3c0 .56 0 1.2.07 2.19 0 .21-.07.28-.28.42-3.46 1.77-6.93 2.47-10.6 2.47-9.48.02-16.9-5.92-16.9-17.37zm24.32-13.79c-1.41-.71-3.53-.99-5.94-.99-9.76 0-14.92 6.79-14.92 14.56 0 10.6 6.93 14.49 13.71 14.49 2.26 0 5.16-.28 7.14-1.2v-26.86z"/><path d="m242.14 78.03c0 10.46-6.22 17.6-15.27 17.6-10.89 0-15.55-9.26-15.55-17.6 0-10.04 6.29-17.6 15.48-17.6 9.12 0 15.34 7 15.34 17.6zm-27.43-.14c0 7.78 4.38 14.63 12.37 14.63 5.51 0 11.66-4.24 11.66-14.42 0-7.28-3.46-14.63-12.16-14.63-7.06 0-11.87 5.94-11.87 14.42z"/><path d="m253.31 43.89c.21 0 .35 0 .35.28v18.03c2.54-1.13 5.37-1.77 8.7-1.77 9.4 0 15.62 6.72 15.62 16.33 0 12.37-9.12 18.88-18.59 18.88-3.39 0-6.01-.42-8.77-1.34-.21-.07-.35-.28-.35-.57v-49.56c0-.21.14-.28.42-.28zm8.69 19.58c-3.61 0-6.08.64-8.34 1.7v26.65c1.7.5 3.39.78 5.94.78 7.78 0 14.99-5.3 14.99-15.62 0-7.78-4.67-13.51-12.59-13.51z"/><path d="m287.38 77.47c-.35 8.55 4.17 14.99 12.94 14.99 3.04 0 6.08-.5 8.84-1.98.21-.14.35-.07.35.21v2.33c0 .28-.07.42-.28.5-2.12 1.2-5.23 2.12-9.4 2.12-11.52 0-15.84-8.84-15.84-17.39 0-9.97 5.73-17.82 14.7-17.82 9.76 0 13.08 8.06 13.08 13.43 0 1.56-.07 2.4-.21 2.97 0 .21-.21.42-.5.42-1.06.14-4.52.21-7.28.21h-16.4zm15.76-2.76c4.31 0 5.02-.07 5.23-.14.07-.21.07-.71.07-.92 0-3.11-1.84-10.25-9.83-10.25-6.79 0-10.32 5.44-11.1 11.31z"/><path d="m333.53 92.81c-.21-.14-.28-.35-.28-.64v-2.97c0-.21.21-.35.42-.21 3.61 2.62 7.99 3.46 11.59 3.46 7.78 0 11.45-3.82 11.45-9.19 0-4.1-2.05-7.07-9.54-10.46l-2.9-1.2c-8.7-3.82-10.53-8.27-10.53-12.51 0-7.21 5.66-11.88 14.07-11.88 4.52 0 8.2.78 10.11 1.98.21.14.28.21.28.57v2.69c0 .28-.21.42-.42.28-2.33-1.62-6.22-2.4-10.11-2.4-8.62 0-10.6 5.09-10.6 8.41 0 3.89 2.05 6.93 9.05 9.97l3.18 1.34c8.27 3.68 10.89 7.92 10.89 12.94 0 7-5.09 12.65-14.99 12.65-4.67 0-8.91-1.06-11.67-2.83z"/><path d="m381.89 94.08c0 .21 0 .35-.28.5-1.41.78-3.25 1.06-4.74 1.06-4.52 0-7.28-2.12-7.28-8.62v-22.84h-5.23c-.35-.07-.42-.21-.42-.5v-2.19c0-.28.07-.42.42-.42h5.23c0-2.76.28-7.99.57-9.4.07-.21.14-.35.28-.42l2.62-.49c.21-.07.42 0 .42.14-.35 2.62-.5 6.72-.5 10.18h7.99c.28 0 .42.14.42.42v2.26c0 .28-.14.35-.42.42h-8.06v22.9c0 3.32 1.41 5.44 4.74 5.44 1.13 0 2.4-.14 3.89-.78.21-.07.35-.07.35.21z"/><path d="m415.96 78.03c0 10.46-6.22 17.6-15.27 17.6-10.89 0-15.55-9.26-15.55-17.6 0-10.04 6.29-17.6 15.48-17.6 9.12 0 15.34 7 15.34 17.6zm-27.43-.14c0 7.78 4.38 14.63 12.37 14.63 5.51 0 11.67-4.24 11.67-14.42 0-7.28-3.46-14.63-12.16-14.63-7.07 0-11.88 5.94-11.88 14.42z"/><path d="m446.56 94.01c0 .28 0 .42-.21.5-2.4.92-5.09 1.13-7.56 1.13-11.59 0-16.83-8.48-16.83-17.53 0-10.04 7.07-17.67 17.6-17.67 3.61 0 5.66.42 6.72.92.28.14.35.28.35.57l-.07 2.62c0 .21-.14.21-.35.14-2.05-.85-3.82-1.2-6.93-1.2-8.13 0-13.86 5.94-13.86 14.49 0 9.33 6.08 14.49 13.79 14.49 2.69 0 4.95-.28 7-1.06.28-.07.35 0 .35.21z"/><path d="m457.52 94.58c0 .28-.07.35-.28.35h-2.76c-.21 0-.35-.07-.35-.35v-50.41c0-.21.14-.28.35-.28h2.76c.21 0 .28.07.28.28zm.56-17.75c3.04-2.76 14.35-13.57 16.4-15.48.14-.21.28-.28.57-.28h3.32c.28 0 .35.28.14.42-1.91 1.98-14 12.87-16.47 15.27-.07.07-.07.07 0 .21 4.81 4.67 13.22 12.44 18.8 17.53.21.21.07.42-.14.42h-3.82c-.35 0-.5-.07-.64-.28-4.52-4.17-14.49-13.43-18.17-16.97-.27-.34-.27-.49.01-.84z"/><path d="m68.25 178.91-5.68 17.52c-.24.59-.59.95-1.3.95h-13.74c-.83 0-1.07-.47-.95-1.18l23.68-68.32c.47-1.3.95-2.72 1.18-7.22 0-.47.35-.83.71-.83h18.95c.59 0 .83.12.95.71l26.88 75.78c.24.59.12 1.07-.59 1.07h-15.39c-.71 0-1.07-.24-1.3-.83l-6.04-17.64h-27.36zm22.97-14.8c-2.37-7.82-7.1-22.14-9.35-30.55h-.12c-1.89 7.93-6.16 20.96-9.24 30.55z"/><path d="m122.48 168.49c0-16.93 12.67-31.14 34.34-31.14.95 0 2.13.12 3.91.24v-23.33c0-.59.36-.83.83-.83h14.92c.59 0 .71.24.71.71v69.98c0 2.72.12 6.28.47 8.64 0 .59-.12.83-.83 1.07-8.17 3.43-15.99 4.74-23.33 4.74-17.52-.01-31.02-9.95-31.02-30.08zm38.25-16.82c-1.18-.47-2.72-.59-4.38-.59-9.12 0-16.93 5.57-16.93 16.58 0 11.72 6.75 16.81 15.75 16.81 2.01 0 3.91-.12 5.57-.71v-32.09z"/><path d="m205.37 197.38c-.83 0-1.18-.36-1.42-.83-4.5-13.38-14.45-43.46-19.3-57.07-.12-.47.12-.95.83-.95h15.51c.83 0 1.07.24 1.3.83 7.7 26.64 10.3 37.18 11.49 42.51h.24c1.18-5.33 4.26-15.99 12.55-42.51.24-.59.47-.83 1.07-.83h13.74c.47 0 .95.36.71 1.07-5.09 13.97-15.04 43.93-19.77 56.84-.35.59-.59.95-1.42.95h-15.53z"/><path d="m304.36 167.66c0 18.59-12.08 30.91-29.13 30.91-20.25 0-29.25-15.28-29.25-30.55 0-16.81 11.25-30.67 29.48-30.67 19.07 0 28.9 14.32 28.9 30.31zm-41.68.12c0 10.42 4.85 17.05 12.79 17.05 6.87 0 12.08-5.92 12.08-16.81 0-9.24-3.79-16.93-12.79-16.93-6.87-.01-12.08 6.15-12.08 16.69z"/><path d="m357.17 195.72c0 .59-.12.83-.59.95-3.79 1.54-8.64 1.89-13.26 1.89-19.18 0-31.26-12.91-31.26-30.31 0-17.76 13.38-30.91 33.51-30.91 5.8 0 9 .59 10.89 1.3.59.24.71.59.71 1.3l-.12 12.2c0 .83-.47.95-.95.83-2.25-.83-5.57-1.42-9.95-1.42-9.95 0-17.17 5.45-17.17 16.1 0 12.31 9.12 16.34 17.41 16.34 4.14 0 7.82-.47 9.83-1.07.71-.24.95 0 .95.47z"/><path d="m414.72 184.24c0 3.08 0 5.57.24 8.41 0 .24 0 .47-.24.59-10.42 4.03-17.29 5.33-25.81 5.33-13.14 0-23.92-6.04-23.92-19.77 0-12.55 11.01-19.18 26.76-19.18 3.2 0 5.92 0 6.99.24v-.83c0-2.25-1.42-7.46-11.37-7.46-5.92 0-11.13 1.18-15.63 3.2-.47.24-1.07 0-1.07-.59v-11.98c0-.59.12-.95.83-1.18 5.21-2.49 11.96-3.67 18.59-3.67 17.05 0 24.63 10.54 24.63 24.04zm-15.99-12.2c-1.89-.24-3.55-.36-5.92-.36-8.41 0-11.84 2.72-11.84 6.99 0 3.91 2.96 7.1 10.42 7.1 2.72 0 5.09-.35 7.34-1.07z"/><path d="m457.34 195.37c0 .71-.12 1.3-.83 1.54-3.32 1.18-6.39 1.66-10.54 1.66-10.3 0-16.34-5.09-16.34-16.93v-29.37h-7.1c-.71-.12-.95-.36-.95-1.07v-11.6c0-.83.24-1.07 1.07-1.07h7.1c.12-4.03.59-11.01 1.18-14.33.12-.59.47-.95 1.07-1.07l13.85-1.78c.59-.12.95-.12.95.71-.36 3.67-.59 10.66-.59 16.46h10.89c.71 0 .95.24.95.95v11.96c0 .59-.24.71-.83.83h-11.12v25.34c0 5.21 1.54 7.58 6.39 7.58 1.42 0 2.61-.24 4.03-.47.47 0 .83.12.83.83v9.83z"/><path d="m480.2 172.28c.59 6.75 5.33 12.31 16.93 12.31 5.33 0 10.07-.83 14.56-2.72.36-.24.71-.12.71.59v11.25c0 .83-.24 1.18-.83 1.42-4.74 2.25-9.95 3.43-18.12 3.43-22.26 0-30.08-15.28-30.08-29.96 0-16.34 10.06-31.26 28.66-31.26 17.88 0 24.98 13.85 24.98 25.58 0 3.67-.24 6.63-.59 7.93-.12.59-.36.83-.95.95-1.54.24-6.04.47-12.2.47h-23.07zm15.39-11.49c3.79 0 5.45-.12 5.92-.24 0-.24 0-.71 0-.83 0-2.84-2.25-9.35-10.07-9.35-7.46 0-10.66 5.57-11.37 10.42z"/><path d="m547.69 150.49c-5.57 0-7.34 2.01-7.34 4.03 0 2.01 1.54 3.55 8.41 6.16 14.33 5.21 18.83 10.77 18.83 19.18 0 11.25-8.76 18.71-24.39 18.71-7.22 0-13.5-1.3-17.17-3.32-.59-.35-.83-.71-.83-1.3v-12.79c0-.71.47-1.07.95-.71 5.45 3.43 12.08 4.74 17.41 4.74 5.57 0 8.05-1.54 8.05-4.03 0-2.25-2.01-3.91-9-6.51-13.38-4.97-17.76-10.66-17.76-19.18 0-9.24 7.46-18.12 23.09-18.12 6.99 0 12.43.95 15.39 2.37.71.36.83.95.83 1.54v11.84c0 .71-.47 1.18-1.18.83-3.92-2.02-9.96-3.44-15.29-3.44z"/></g></svg>