<?xml version="1.0" encoding="utf-8"?>
<!-- Generator: Adobe Illustrator 24.0.3, SVG Export Plug-In . SVG Version: 6.00 Build 0)  -->
<svg version="1.1" id="Layer_1" xmlns="http://www.w3.org/2000/svg" xmlns:xlink="http://www.w3.org/1999/xlink" x="0px" y="0px"
	 viewBox="0 0 614.1 345.5" style="enable-background:new 0 0 614.1 345.5;" xml:space="preserve">
<style type="text/css">
	.st0{fill:#FFFFFF;}
</style>
<g>
	<g>
		<path class="st0" d="M142.7,82.9l-6.1,16.8c-0.1,0.3-0.2,0.3-0.4,0.3h-2.7c-0.3,0-0.4-0.1-0.3-0.4l16.3-44.3
			c0.1-0.4,0.3-0.7,0.4-2c0-0.1,0.1-0.3,0.3-0.3h4.1c0.3,0,0.4,0.1,0.4,0.3l16.9,46.3c0.1,0.3,0,0.4-0.3,0.4h-2.9
			c-0.2,0-0.4-0.1-0.4-0.3l-6.1-16.8L142.7,82.9L142.7,82.9z M160.8,79.7c-1.6-4.6-7.1-19.5-8.5-24.1h-0.1
			c-1.3,4.5-5.2,14.9-8.5,24.1H160.8z"/>
		<path class="st0" d="M175.6,83.3c0-10.5,7.9-17.8,18.5-17.8c2.8,0,4.2,0.2,5.8,0.6V49.3c0-0.3,0.1-0.3,0.4-0.3h2.7
			c0.4,0,0.4,0.1,0.4,0.3v46.3c0,0.6,0,1.2,0.1,2.2c0,0.2-0.1,0.3-0.3,0.4c-3.5,1.8-6.9,2.5-10.6,2.5
			C183,100.7,175.6,94.7,175.6,83.3z M199.9,69.5c-1.4-0.7-3.5-1-5.9-1c-9.8,0-14.9,6.8-14.9,14.6c0,10.6,6.9,14.5,13.7,14.5
			c2.3,0,5.2-0.3,7.1-1.2L199.9,69.5L199.9,69.5z"/>
		<path class="st0" d="M242.1,83.1c0,10.5-6.2,17.6-15.3,17.6c-10.9,0-15.6-9.3-15.6-17.6c0-10,6.3-17.6,15.5-17.6
			C235.9,65.5,242.1,72.5,242.1,83.1z M214.7,82.9c0,7.8,4.4,14.6,12.4,14.6c5.5,0,11.7-4.2,11.7-14.4c0-7.3-3.5-14.6-12.2-14.6
			C219.5,68.5,214.7,74.4,214.7,82.9z"/>
		<path class="st0" d="M253.3,48.9c0.2,0,0.4,0,0.4,0.3v18c2.5-1.1,5.4-1.8,8.7-1.8c9.4,0,15.6,6.7,15.6,16.3
			c0,12.4-9.1,18.9-18.6,18.9c-3.4,0-6-0.4-8.8-1.3c-0.2-0.1-0.4-0.3-0.4-0.6V49.2c0-0.2,0.1-0.3,0.4-0.3L253.3,48.9L253.3,48.9z
			 M262,68.5c-3.6,0-6.1,0.6-8.3,1.7v26.7c1.7,0.5,3.4,0.8,5.9,0.8c7.8,0,15-5.3,15-15.6C274.6,74.2,269.9,68.5,262,68.5z"/>
		<path class="st0" d="M287.4,82.5c-0.4,8.6,4.2,15,12.9,15c3,0,6.1-0.5,8.8-2c0.2-0.1,0.4-0.1,0.4,0.2v2.3c0,0.3-0.1,0.4-0.3,0.5
			c-2.1,1.2-5.2,2.1-9.4,2.1c-11.5,0-15.8-8.8-15.8-17.4c0-10,5.7-17.8,14.7-17.8c9.8,0,13.1,8.1,13.1,13.4c0,1.6-0.1,2.4-0.2,3
			c0,0.2-0.2,0.4-0.5,0.4c-1.1,0.1-4.5,0.2-7.3,0.2L287.4,82.5L287.4,82.5z M303.1,79.8c4.3,0,5-0.1,5.2-0.1
			c0.1-0.2,0.1-0.7,0.1-0.9c0-3.1-1.8-10.2-9.8-10.2c-6.8,0-10.3,5.4-11.1,11.3H303.1z"/>
		<path class="st0" d="M333.5,97.8c-0.2-0.1-0.3-0.3-0.3-0.6v-3c0-0.2,0.2-0.3,0.4-0.2c3.6,2.6,8,3.5,11.6,3.5
			c7.8,0,11.5-3.8,11.5-9.2c0-4.1-2-7.1-9.5-10.5l-2.9-1.2c-8.7-3.8-10.5-8.3-10.5-12.5c0-7.2,5.7-11.9,14.1-11.9
			c4.5,0,8.2,0.8,10.1,2c0.2,0.1,0.3,0.2,0.3,0.6v2.7c0,0.3-0.2,0.4-0.4,0.3c-2.3-1.6-6.2-2.4-10.1-2.4c-8.6,0-10.6,5.1-10.6,8.4
			c0,3.9,2,6.9,9,10l3.2,1.3c8.3,3.7,10.9,7.9,10.9,12.9c0,7-5.1,12.7-15,12.7C340.5,100.7,336.3,99.6,333.5,97.8z"/>
		<path class="st0" d="M381.9,99.1c0,0.2,0,0.3-0.3,0.5c-1.4,0.8-3.2,1.1-4.7,1.1c-4.5,0-7.3-2.1-7.3-8.6V69.2h-5.2
			c-0.4-0.1-0.4-0.2-0.4-0.5v-2.2c0-0.3,0.1-0.4,0.4-0.4h5.2c0-2.8,0.3-8,0.6-9.4c0.1-0.2,0.1-0.3,0.3-0.4l2.6-0.5
			c0.2-0.1,0.4,0,0.4,0.1c-0.4,2.6-0.5,6.7-0.5,10.2h8c0.3,0,0.4,0.1,0.4,0.4v2.3c0,0.3-0.1,0.3-0.4,0.4h-8.1v22.9
			c0,3.3,1.4,5.4,4.7,5.4c1.1,0,2.4-0.1,3.9-0.8c0.2-0.1,0.4-0.1,0.4,0.2L381.9,99.1L381.9,99.1z"/>
		<path class="st0" d="M416,83.1c0,10.5-6.2,17.6-15.3,17.6c-10.9,0-15.5-9.3-15.5-17.6c0-10,6.3-17.6,15.5-17.6
			C409.7,65.5,416,72.5,416,83.1z M388.5,82.9c0,7.8,4.4,14.6,12.4,14.6c5.5,0,11.7-4.2,11.7-14.4c0-7.3-3.5-14.6-12.2-14.6
			C393.3,68.5,388.5,74.4,388.5,82.9z"/>
		<path class="st0" d="M446.6,99.1c0,0.3,0,0.4-0.2,0.5c-2.4,0.9-5.1,1.1-7.6,1.1c-11.6,0-16.8-8.5-16.8-17.5
			c0-10,7.1-17.7,17.6-17.7c3.6,0,5.7,0.4,6.7,0.9c0.3,0.1,0.4,0.3,0.4,0.6l-0.1,2.6c0,0.2-0.1,0.2-0.4,0.1c-2-0.8-3.8-1.2-6.9-1.2
			c-8.1,0-13.9,5.9-13.9,14.5c0,9.3,6.1,14.5,13.8,14.5c2.7,0,5-0.3,7-1.1c0.3-0.1,0.4,0,0.4,0.2L446.6,99.1L446.6,99.1z"/>
		<path class="st0" d="M457.5,99.6c0,0.3-0.1,0.3-0.3,0.3h-2.8c-0.2,0-0.4-0.1-0.4-0.3V49.2c0-0.2,0.1-0.3,0.4-0.3h2.8
			c0.2,0,0.3,0.1,0.3,0.3V99.6z M458.1,81.9c3-2.8,14.4-13.6,16.4-15.5c0.1-0.2,0.3-0.3,0.6-0.3h3.3c0.3,0,0.4,0.3,0.1,0.4
			c-1.9,2-14,12.9-16.5,15.3c-0.1,0.1-0.1,0.1,0,0.2c4.8,4.7,13.2,12.4,18.8,17.5c0.2,0.2,0.1,0.4-0.1,0.4h-3.8
			c-0.4,0-0.5-0.1-0.6-0.3c-4.5-4.2-14.5-13.4-18.2-17C457.8,82.4,457.8,82.2,458.1,81.9z"/>
	</g>
	<g>
		<path class="st0" d="M130.1,264.6c0-0.2,0.1-0.2,0.2-0.2c1.3,0,3.2-0.1,4.9-0.1c4.5,0,7.7,2.1,7.7,6c0,3.1-2.1,4.9-3.4,5.6
			c1.2,0.6,3.1,2.3,3.1,5.3c0,4.8-4.1,7.4-10.3,7.4c-2.1,0-4.9-0.1-6.2-0.1c-0.2,0-0.2-0.1-0.2-0.3L130.1,264.6z M129.3,285.9
			c1,0,2.3,0,3.4,0c4.1,0,6.9-1.5,6.9-4.8c0-2.1-1.2-3.3-3-3.9c-0.9-0.3-2.2-0.4-3.4-0.4h-2.4L129.3,285.9z M131.4,274.4h2.6
			c1.4,0,2.5,0.1,3.5,0.3c1.4-0.7,2.6-2,2.6-4.1c0-2.7-2.1-3.9-4.8-3.9c-0.7,0-1.4,0.1-2.6,0.1L131.4,274.4z"/>
		<path class="st0" d="M157.4,287.4c0,0.2-0.1,0.2-0.2,0.3c-1.2,0.7-2.4,1.1-4.7,1.1c-4.1,0-6.8-2.5-6.8-7.4
			c0-5.7,3.9-11.1,9.3-11.1c3.8,0,5,2.2,5.1,4.4c0,4-3.6,6.2-11.5,6c0,0.4-0.1,0.9-0.1,1.1c0.1,2.2,1.2,4.4,4.6,4.4
			c1.4,0,3-0.3,4.5-1.3c0.1,0,0.2,0,0.1,0.1L157.4,287.4z M157.4,274.9c0-0.8-0.3-2.2-2.7-2.2c-2.7,0-5.1,2.3-5.9,5.8
			C156,278.8,157.4,276.6,157.4,274.9z"/>
		<path class="st0" d="M176.5,272.8c-2.3,0-3.4,1.2-3.4,2.6c0,1.1,0.7,1.8,2.5,2.8c2.7,1.4,4.3,2.7,4.3,5.2c0,3.6-2.9,5.4-6.5,5.4
			c-2.2,0-4-0.6-4.9-1.4c-0.1-0.1-0.1-0.2-0.1-0.4l0.5-2.2c0-0.1,0.1-0.1,0.2,0c1.4,1,3,1.5,4.6,1.5c2.4,0,3.4-1.3,3.4-2.6
			c0-1.3-0.9-2-2.7-3.1c-2.2-1.2-4-2.4-4-4.9c0-2.9,2.3-5.4,6.5-5.4c1.7,0,3.2,0.4,3.9,0.8c0.1,0.1,0.1,0.2,0.1,0.3l-0.5,2.1
			c0,0.1-0.1,0.1-0.3,0.1C179.1,273,177.7,272.8,176.5,272.8z"/>
		<path class="st0" d="M194.6,287.4c0,0.2-0.1,0.2-0.3,0.3c-1.2,0.7-2.4,1.1-4.7,1.1c-4.1,0-6.8-2.5-6.8-7.4
			c0-5.7,3.9-11.1,9.3-11.1c3.8,0,5,2.2,5.1,4.4c0,4-3.6,6.2-11.5,6c0,0.4-0.1,0.9-0.1,1.1c0.1,2.2,1.2,4.4,4.6,4.4
			c1.4,0,3-0.3,4.5-1.3c0.1,0,0.2,0,0.1,0.1L194.6,287.4z M194.6,274.9c0-0.8-0.3-2.2-2.7-2.2c-2.7,0-5.1,2.3-5.9,5.8
			C193.2,278.8,194.6,276.6,194.6,274.9z"/>
		<path class="st0" d="M210.7,287.4c0,0.2-0.1,0.2-0.3,0.3c-1.2,0.7-2.4,1.1-4.7,1.1c-4.1,0-6.8-2.5-6.8-7.4
			c0-5.7,3.9-11.1,9.3-11.1c3.8,0,5,2.2,5.1,4.4c0,4-3.6,6.2-11.5,6c0,0.4-0.1,0.9-0.1,1.1c0.1,2.2,1.2,4.4,4.6,4.4
			c1.4,0,3-0.3,4.5-1.3c0.1,0,0.2,0,0.1,0.1L210.7,287.4z M210.7,274.9c0-0.8-0.3-2.2-2.7-2.2c-2.7,0-5.1,2.3-5.9,5.8
			C209.4,278.8,210.7,276.6,210.7,274.9z"/>
		<path class="st0" d="M217.1,274.8c0.3-1.7,0.5-3,0.6-4c0-0.1,0-0.2,0.2-0.2h2.2c0.1,0,0.2,0,0.2,0.1c0,0.3-0.1,1.6-0.2,2.5
			c1.6-1.8,3.5-3,6.2-3c2.2,0,5.1,1.2,4,7l-1.9,10.9c0,0.1-0.1,0.2-0.2,0.2h-2.5c-0.1,0-0.2-0.1-0.2-0.2l2-11.2
			c0.4-2.4-0.1-4.1-2.3-4.1c-1.8,0-3.5,1-5,3c-0.3,0.4-0.5,0.8-0.6,1.4l-1.9,11c0,0.1-0.1,0.2-0.2,0.2h-2.5c-0.1,0-0.2-0.1-0.2-0.2
			L217.1,274.8z"/>
		<path class="st0" d="M232.5,286.9c0.1-1.1,0.9-1.8,2-1.8c1.1,0,1.8,0.9,1.7,1.9c-0.1,1.1-0.8,1.9-2,1.9
			C233.1,288.8,232.4,288,232.5,286.9z"/>
		<path class="st0" d="M252.5,264.6c0-0.2,0.1-0.2,0.2-0.2c1.3,0,3.2-0.1,4.9-0.1c4.5,0,7.7,2.1,7.7,6c0,3.1-2.1,4.9-3.4,5.6
			c1.2,0.6,3.1,2.3,3.1,5.3c0,4.8-4,7.4-10.3,7.4c-2.1,0-4.9-0.1-6.2-0.1c-0.1,0-0.2-0.1-0.1-0.3L252.5,264.6z M251.7,285.9
			c1,0,2.3,0,3.4,0c4,0,6.9-1.5,6.9-4.8c0-2.1-1.2-3.3-3-3.9c-0.9-0.3-2.2-0.4-3.4-0.4h-2.4L251.7,285.9z M253.7,274.4h2.6
			c1.4,0,2.5,0.1,3.5,0.3c1.4-0.7,2.6-2,2.6-4.1c0-2.7-2.1-3.9-4.8-3.9c-0.7,0-1.4,0.1-2.6,0.1L253.7,274.4z"/>
		<path class="st0" d="M279.7,287.4c0,0.2-0.1,0.2-0.2,0.3c-1.2,0.7-2.5,1.1-4.7,1.1c-4.1,0-6.8-2.5-6.8-7.4
			c0-5.7,3.9-11.1,9.3-11.1c3.8,0,5,2.2,5.1,4.4c0,4-3.6,6.2-11.5,6c0,0.4-0.1,0.9-0.1,1.1c0.1,2.2,1.2,4.4,4.6,4.4
			c1.4,0,3-0.3,4.5-1.3c0.1,0,0.2,0,0.1,0.1L279.7,287.4z M279.7,274.9c0-0.8-0.3-2.2-2.7-2.2c-2.7,0-5.1,2.3-5.9,5.8
			C278.4,278.8,279.7,276.6,279.7,274.9z"/>
		<path class="st0" d="M296.6,262.5c0-0.1,0.1-0.2,0.2-0.2c0.5,0,2.2-0.2,2.5-0.2c0.1,0,0.2,0,0.2,0.2l-1.9,11c1.5-1.6,3.5-3,6-3
			c2.4,0,5,1.4,4.1,6.8l-2,11.1c0,0.2-0.1,0.2-0.2,0.2H303c-0.2,0-0.2-0.1-0.2-0.2l2-11.1c0.4-2.5-0.1-4.2-2.3-4.2
			c-1.8,0-3.5,1-5.2,3.1c-0.1,0.2-0.3,0.5-0.4,1.2l-1.9,11.1c0,0.1-0.1,0.2-0.3,0.2h-2.5c-0.1,0-0.1-0.1-0.1-0.2L296.6,262.5z"/>
		<path class="st0" d="M322.7,287.4c0,0.2-0.1,0.2-0.3,0.3c-1.2,0.7-2.5,1.1-4.7,1.1c-4.1,0-6.8-2.5-6.8-7.4
			c0-5.7,3.9-11.1,9.3-11.1c3.8,0,5,2.2,5.1,4.4c0,4-3.6,6.2-11.5,6c0,0.4-0.1,0.9-0.1,1.1c0.1,2.2,1.2,4.4,4.6,4.4
			c1.4,0,3-0.3,4.5-1.3c0.1,0,0.2,0,0.1,0.1L322.7,287.4z M322.7,274.9c0-0.8-0.3-2.2-2.7-2.2c-2.7,0-5.1,2.3-5.9,5.8
			C321.4,278.8,322.7,276.6,322.7,274.9z"/>
		<path class="st0" d="M340.1,287.4c0,0.1-0.1,0.2-0.2,0.3c-1.8,0.8-3.5,1.2-5.5,1.2c-4.1,0-7.2-2.3-7.2-7.3
			c0-5.6,4.6-11.1,11.8-11.1c1.6,0,2.9,0.2,4,0.5c0,0,0.1,0.1,0.1,0.2L340.1,287.4z M339.8,273c-0.3-0.1-0.7-0.1-1.4-0.1
			c-4.6,0-8.3,3.8-8.3,8.5c0,3,1.6,5,4.9,5c1,0,1.8-0.1,2.5-0.5L339.8,273z"/>
		<path class="st0" d="M350.4,270.7c0.2,0,0.2,0,0.3,0.2c0,0.5-0.2,2.6-0.3,3.4c1.5-2.1,4.2-3.9,6.4-3.9c0.1,0,0.3,0,0.2,0.3
			l-0.5,2.7c0,0.1-0.1,0.2-0.2,0.2c-2.2,0.2-4.5,1.6-5.7,3.4c-0.3,0.4-0.4,0.6-0.5,1.1l-1.8,10.3c0,0.1,0,0.2-0.2,0.2h-2.5
			c-0.1,0-0.2-0.1-0.2-0.2l2.3-13c0.4-1.9,0.5-3.3,0.6-4.4c0-0.1,0.1-0.2,0.2-0.2H350.4z"/>
		<path class="st0" d="M370.2,287.2c0,0.2-0.1,0.3-0.2,0.3c-2,1-3.6,1.2-5.5,1.2c-4.1,0-7.3-2.4-7.3-7.6c0-5.9,4.7-10.9,10.8-10.9
			c1,0,1.8,0.1,2.3,0.3l1.4-8.1c0-0.1,0.1-0.2,0.2-0.2c0.6-0.1,2.4-0.2,2.5-0.2c0.1,0,0.2,0,0.2,0.2L370.2,287.2z M369.8,273.1
			c-0.5-0.3-1.4-0.3-2.3-0.3c-3.9,0-7.5,3.5-7.5,8.3c0,2.9,1.5,5.1,5,5.1c1.1,0,2-0.2,2.6-0.5L369.8,273.1z"/>
		<path class="st0" d="M374,286.9c0.1-1.1,0.9-1.8,2-1.8c1.1,0,1.8,0.9,1.7,1.9c-0.1,1.1-0.8,1.9-2,1.9
			C374.6,288.8,373.9,288,374,286.9z"/>
		<path class="st0" d="M394,264.6c0-0.2,0.1-0.2,0.2-0.2c1.3,0,3.2-0.1,4.9-0.1c4.5,0,7.7,2.1,7.7,6c0,3.1-2.1,4.9-3.4,5.6
			c1.2,0.6,3.1,2.3,3.1,5.3c0,4.8-4,7.4-10.3,7.4c-2.1,0-4.9-0.1-6.2-0.1c-0.1,0-0.2-0.1-0.1-0.3L394,264.6z M393.2,285.9
			c1,0,2.3,0,3.4,0c4,0,6.9-1.5,6.9-4.8c0-2.1-1.2-3.3-3-3.9c-0.9-0.3-2.2-0.4-3.4-0.4h-2.5L393.2,285.9z M395.2,274.4h2.6
			c1.4,0,2.5,0.1,3.5,0.3c1.4-0.7,2.6-2,2.6-4.1c0-2.7-2.1-3.9-4.8-3.9c-0.7,0-1.4,0.1-2.6,0.1L395.2,274.4z"/>
		<path class="st0" d="M421.2,287.4c0,0.2-0.1,0.2-0.3,0.3c-1.2,0.7-2.5,1.1-4.7,1.1c-4.1,0-6.8-2.5-6.8-7.4
			c0-5.7,3.9-11.1,9.3-11.1c3.8,0,5,2.2,5.1,4.4c0,4-3.6,6.2-11.5,6c0,0.4-0.1,0.9-0.1,1.1c0.1,2.2,1.2,4.4,4.6,4.4
			c1.4,0,3-0.3,4.5-1.3c0.1,0,0.2,0,0.1,0.1L421.2,287.4z M421.2,274.9c0-0.8-0.3-2.2-2.7-2.2c-2.7,0-5.1,2.3-5.9,5.8
			C419.9,278.8,421.2,276.6,421.2,274.9z"/>
		<path class="st0" d="M436.6,270.7c0.1,0,0.2,0,0.2,0.2c1.6,8.3,2.1,12.6,2.3,14.3h0c2.2-4,4.8-9.4,7-14.3c0.1-0.1,0.1-0.2,0.3-0.2
			h2.5c0.2,0,0.3,0.1,0.2,0.2c-2.2,4.8-5.7,11.5-8.7,16.7c-2.6,4.5-4.7,7.3-5.5,8.5c-0.1,0.1-0.2,0.1-0.3,0.1l-2.9,0.2
			c-0.2,0-0.2-0.1-0.1-0.3c1.6-2.2,3.9-5.6,5.3-8c0.1-0.1,0.1-0.3,0.1-0.4c-0.3-1.4-2.7-14-3.2-17c0-0.1,0.1-0.2,0.2-0.2
			L436.6,270.7L436.6,270.7z"/>
		<path class="st0" d="M465.3,277.8c0,5.4-3.3,11-9,11c-4.1,0-6.6-2.7-6.6-7.3c0-5.7,3.6-11.1,9.2-11.1
			C462.7,270.3,465.3,273,465.3,277.8z M452.5,281.4c0,2.6,1.1,4.9,4,4.9c3.2,0,5.8-3.8,5.8-8.6c0-2.4-1-4.8-3.9-4.8
			C455.1,272.8,452.5,276.8,452.5,281.4z"/>
		<path class="st0" d="M481.2,284.5c-0.3,1.7-0.4,3.1-0.5,3.8c0,0.1-0.1,0.2-0.2,0.2h-2.1c-0.2,0-0.3-0.1-0.3-0.2
			c0-0.4,0-1.5,0.2-2.2c-1.9,2.2-4,2.8-5.7,2.8c-2.5,0-5.1-1.4-4.3-6.4l2.1-11.5c0-0.1,0.1-0.2,0.3-0.2h2.5c0.1,0,0.2,0.1,0.2,0.2
			l-2.1,11.4c-0.4,2.5,0.4,3.9,2.4,3.9c1.4,0,3-0.5,4.5-2.5c0.3-0.4,0.5-0.7,0.6-1.1l2.2-11.7c0-0.1,0.1-0.1,0.3-0.1h2.4
			c0.1,0,0.1,0.1,0.1,0.2L481.2,284.5z"/>
		<path class="st0" d="M484.4,286.9c0.1-1.1,0.9-1.8,2-1.8c1.1,0,1.8,0.9,1.7,1.9c-0.1,1.1-0.8,1.9-2,1.9
			C485,288.8,484.3,288,484.4,286.9z"/>
	</g>
	<g>
		<path class="st0" d="M68.2,183.9l-5.7,17.5c-0.2,0.6-0.6,0.9-1.3,0.9H47.5c-0.8,0-1.1-0.5-1-1.2l23.7-68.3
			c0.5-1.3,0.9-2.7,1.2-7.2c0-0.5,0.3-0.8,0.7-0.8h19c0.6,0,0.8,0.1,0.9,0.7l26.9,75.8c0.2,0.6,0.1,1.1-0.6,1.1h-15.4
			c-0.7,0-1.1-0.2-1.3-0.8l-6-17.6L68.2,183.9L68.2,183.9z M91.2,169.1c-2.4-7.8-7.1-22.1-9.3-30.6h-0.1c-1.9,7.9-6.2,21-9.2,30.6
			H91.2z"/>
		<path class="st0" d="M122.5,173.5c0-16.9,12.7-31.1,34.3-31.1c0.9,0,2.1,0.1,3.9,0.2v-23.3c0-0.6,0.4-0.8,0.8-0.8h14.9
			c0.6,0,0.7,0.2,0.7,0.7v70c0,2.7,0.1,6.3,0.5,8.6c0,0.6-0.1,0.8-0.8,1.1c-8.2,3.4-16,4.7-23.3,4.7
			C136,203.6,122.5,193.7,122.5,173.5z M160.7,156.7c-1.2-0.5-2.7-0.6-4.4-0.6c-9.1,0-16.9,5.6-16.9,16.6c0,11.7,6.8,16.8,15.8,16.8
			c2,0,3.9-0.1,5.6-0.7L160.7,156.7L160.7,156.7z"/>
		<path class="st0" d="M205.4,202.4c-0.8,0-1.2-0.4-1.4-0.8c-4.5-13.4-14.4-43.5-19.3-57.1c-0.1-0.5,0.1-0.9,0.8-0.9H201
			c0.8,0,1.1,0.2,1.3,0.8c7.7,26.6,10.3,37.2,11.5,42.5h0.2c1.2-5.3,4.3-16,12.6-42.5c0.2-0.6,0.5-0.8,1.1-0.8h13.7
			c0.5,0,0.9,0.4,0.7,1.1c-5.1,14-15,43.9-19.8,56.8c-0.4,0.6-0.6,0.9-1.4,0.9L205.4,202.4L205.4,202.4z"/>
		<path class="st0" d="M304.4,172.7c0,18.6-12.1,30.9-29.1,30.9c-20.2,0-29.2-15.3-29.2-30.6c0-16.8,11.2-30.7,29.5-30.7
			C294.5,142.4,304.4,156.7,304.4,172.7z M262.7,172.8c0,10.4,4.9,17.1,12.8,17.1c6.9,0,12.1-5.9,12.1-16.8
			c0-9.2-3.8-16.9-12.8-16.9C267.9,156.1,262.7,162.3,262.7,172.8z"/>
		<path class="st0" d="M357.2,200.8c0,0.6-0.1,0.8-0.6,0.9c-3.8,1.5-8.6,1.9-13.3,1.9c-19.2,0-31.3-12.9-31.3-30.3
			c0-17.8,13.4-30.9,33.5-30.9c5.8,0,9,0.6,10.9,1.3c0.6,0.2,0.7,0.6,0.7,1.3l-0.1,12.2c0,0.8-0.5,0.9-1,0.8
			c-2.2-0.8-5.6-1.4-10-1.4c-10,0-17.2,5.4-17.2,16.1c0,12.3,9.1,16.3,17.4,16.3c4.1,0,7.8-0.5,9.8-1.1c0.7-0.2,1,0,1,0.5
			L357.2,200.8L357.2,200.8z"/>
		<path class="st0" d="M414.7,189.3c0,3.1,0,5.6,0.2,8.4c0,0.2,0,0.5-0.2,0.6c-10.4,4-17.3,5.3-25.8,5.3c-13.1,0-23.9-6-23.9-19.8
			c0-12.6,11-19.2,26.8-19.2c3.2,0,5.9,0,7,0.2v-0.8c0-2.2-1.4-7.5-11.4-7.5c-5.9,0-11.1,1.2-15.6,3.2c-0.5,0.2-1.1,0-1.1-0.6v-12
			c0-0.6,0.1-0.9,0.8-1.2c5.2-2.5,12-3.7,18.6-3.7c17,0,24.6,10.5,24.6,24L414.7,189.3L414.7,189.3z M398.7,177.1
			c-1.9-0.2-3.5-0.4-5.9-0.4c-8.4,0-11.8,2.7-11.8,7c0,3.9,3,7.1,10.4,7.1c2.7,0,5.1-0.4,7.3-1.1V177.1z"/>
		<path class="st0" d="M457.3,200.4c0,0.7-0.1,1.3-0.8,1.5c-3.3,1.2-6.4,1.7-10.5,1.7c-10.3,0-16.3-5.1-16.3-16.9v-29.4h-7.1
			c-0.7-0.1-1-0.4-1-1.1v-11.6c0-0.8,0.2-1.1,1.1-1.1h7.1c0.1-4,0.6-11,1.2-14.3c0.1-0.6,0.5-0.9,1.1-1.1l13.9-1.8
			c0.6-0.1,1-0.1,1,0.7c-0.4,3.7-0.6,10.7-0.6,16.5h10.9c0.7,0,1,0.2,1,0.9v12c0,0.6-0.2,0.7-0.8,0.8h-11.1v25.3
			c0,5.2,1.5,7.6,6.4,7.6c1.4,0,2.6-0.2,4-0.5c0.5,0,0.8,0.1,0.8,0.8L457.3,200.4L457.3,200.4z"/>
		<path class="st0" d="M480.2,177.3c0.6,6.8,5.3,12.3,16.9,12.3c5.3,0,10.1-0.8,14.6-2.7c0.4-0.2,0.7-0.1,0.7,0.6v11.2
			c0,0.8-0.2,1.2-0.8,1.4c-4.7,2.2-10,3.4-18.1,3.4c-22.3,0-30.1-15.3-30.1-30c0-16.3,10.1-31.3,28.7-31.3c17.9,0,25,13.9,25,25.6
			c0,3.7-0.2,6.6-0.6,7.9c-0.1,0.6-0.4,0.8-1,0.9c-1.5,0.2-6,0.5-12.2,0.5L480.2,177.3L480.2,177.3z M495.6,165.8
			c3.8,0,5.5-0.1,5.9-0.2c0-0.2,0-0.7,0-0.8c0-2.8-2.2-9.4-10.1-9.4c-7.5,0-10.7,5.6-11.4,10.4L495.6,165.8L495.6,165.8z"/>
		<path class="st0" d="M547.7,155.5c-5.6,0-7.3,2-7.3,4c0,2,1.5,3.6,8.4,6.2c14.3,5.2,18.8,10.8,18.8,19.2
			c0,11.2-8.8,18.7-24.4,18.7c-7.2,0-13.5-1.3-17.2-3.3c-0.6-0.4-0.8-0.7-0.8-1.3v-12.8c0-0.7,0.5-1.1,1-0.7
			c5.5,3.4,12.1,4.7,17.4,4.7c5.6,0,8-1.5,8-4c0-2.2-2-3.9-9-6.5c-13.4-5-17.8-10.7-17.8-19.2c0-9.2,7.5-18.1,23.1-18.1
			c7,0,12.4,0.9,15.4,2.4c0.7,0.4,0.8,0.9,0.8,1.5v11.8c0,0.7-0.5,1.2-1.2,0.8C559.1,157,553,155.5,547.7,155.5z"/>
	</g>
</g>
</svg>
