<svg xmlns="http://www.w3.org/2000/svg" width="40" height="42" viewBox="0 0 40 42">
  <g id="lp_editing3_icon3" transform="translate(-4 -3)">
    <rect id="Canvas" width="40" height="42" transform="translate(4 3)" fill="#282828" opacity="0"/>
    <path id="Path_82866" data-name="Path 82866" d="M43,8H21.675A6.956,6.956,0,0,0,8.325,8H5A1,1,0,0,0,4,9v2a1,1,0,0,0,1,1H8.325a6.956,6.956,0,0,0,13.35,0H43a1,1,0,0,0,1-1V9A1,1,0,0,0,43,8ZM15,13.3A3.3,3.3,0,1,1,18.3,10,3.3,3.3,0,0,1,15,13.3Z" fill="#282828"/>
    <path id="Path_82867" data-name="Path 82867" d="M5,26H26.325a6.956,6.956,0,0,0,13.35,0H43a1,1,0,0,0,1-1V23a1,1,0,0,0-1-1H39.675a6.956,6.956,0,0,0-13.35,0H5a1,1,0,0,0-1,1v2A1,1,0,0,0,5,26Zm24.7-2A3.3,3.3,0,1,1,33,27.3,3.3,3.3,0,0,1,29.7,24Z" fill="#282828"/>
    <path id="Path_82868" data-name="Path 82868" d="M43,36H27.675a6.956,6.956,0,0,0-13.35,0H5a1,1,0,0,0-1,1v2a1,1,0,0,0,1,1h9.325a6.956,6.956,0,0,0,13.35,0H43a1,1,0,0,0,1-1V37A1,1,0,0,0,43,36ZM21,41.3A3.3,3.3,0,1,1,24.3,38,3.3,3.3,0,0,1,21,41.3Z" fill="#282828"/>
  </g>
</svg>
