<?xml version="1.0"?>
<svg xmlns="http://www.w3.org/2000/svg" width="44" height="45" viewBox="0 0 44 45">
  <g id="lp_design3_icon1" transform="translate(-4 -3)">
    <rect id="Canvas" width="44" height="45" transform="translate(4 3)" fill="#282828" opacity="0"/>
    <path id="Path_82843" data-name="Path 82843" d="M5,12H8.325a6.956,6.956,0,0,0,13.35,0H43a1,1,0,0,0,1-1V9a1,1,0,0,0-1-1H21.675A6.956,6.956,0,0,0,8.325,8H5A1,1,0,0,0,4,9v2A1,1,0,0,0,5,12ZM15,6.7A3.3,3.3,0,1,1,11.7,10,3.3,3.3,0,0,1,15,6.7Z" fill="#282828"/>
    <path id="Path_82844" data-name="Path 82844" d="M20.223,38.662a3.31,3.31,0,1,1-.207-1.966c-.01-.231-.016-.463-.016-.7a15.97,15.97,0,0,1,.512-4.022A6.856,6.856,0,0,0,17,31a6.977,6.977,0,0,0-6.675,5H5a1,1,0,0,0-1,1v2a1,1,0,0,0,1,1h5.325A6.977,6.977,0,0,0,17,45a6.88,6.88,0,0,0,4.69-1.849,15.875,15.875,0,0,1-1.467-4.489Z" fill="#282828"/>
    <path id="Path_82845" data-name="Path 82845" d="M5,26H22.325a7.1,7.1,0,0,0,.411,1.053,16.021,16.021,0,0,1,3-3.372,3.281,3.281,0,0,1,4.575-2.709,15.759,15.759,0,0,1,4.377-1A6.944,6.944,0,0,0,22.325,22H5a1,1,0,0,0-1,1v2A1,1,0,0,0,5,26Z" fill="#282828"/>
    <path id="Path_82846" data-name="Path 82846" d="M36,24A12,12,0,1,0,48,36,12,12,0,0,0,36,24Zm8,13a1,1,0,0,1-1,1H38v5a1,1,0,0,1-1,1H35a1,1,0,0,1-1-1V38H29a1,1,0,0,1-1-1V35a1,1,0,0,1,1-1h5V29a1,1,0,0,1,1-1h2a1,1,0,0,1,1,1v5h5a1,1,0,0,1,1,1Z" fill="#282828"/>
  </g>
</svg>
