<svg version="1.1" id="Layer_1" xmlns="http://www.w3.org/2000/svg" xmlns:xlink="http://www.w3.org/1999/xlink" x="0px" y="0px"
	 viewBox="0 0 145 46.4" style="enable-background:new 0 0 145 46.4;" xml:space="preserve">
<style type="text/css">
	.st0{fill:#301111;}
	.st1{fill:#F89A1C;}
	.st2{fill:#071F35;}
	.st3{fill:#56A1D8;}
	.st4{fill:none;stroke:#000000;stroke-width:1.6018;stroke-miterlimit:10;}
</style>
<g>
	<g id="Logo">
		<g id="Surfaces">
			<g id="Drawing_Surface">
				<g id="Outline_no_shadow">
					<path id="Rectangle_149641" class="st0" d="M7.7,0h32.1c4.3,0,7.7,3.5,7.7,7.7v30.9c0,4.3-3.5,7.7-7.7,7.7H7.7
						c-4.3,0-7.7-3.5-7.7-7.7V7.7C0,3.5,3.5,0,7.7,0z"/>
				</g>
			</g>
		</g>
		<g id="Outlined_Mnemonics_Logos" transform="translate(6.351 6.648)">
			<g id="Ai">
				<path id="Path_102391" class="st1" d="M16.7,21.2H9.3l-1.5,4.7c0,0.2-0.2,0.3-0.4,0.3H3.7c-0.2,0-0.3-0.1-0.2-0.4L9.9,7.4
					C9.9,7.2,10,7,10.1,6.7c0.1-0.4,0.1-0.9,0.1-1.3c0-0.1,0.1-0.2,0.2-0.2h5.2c0.1,0,0.2,0.1,0.2,0.2L23,25.8
					c0.1,0.2,0,0.3-0.2,0.3h-4.2c-0.1,0-0.3-0.1-0.3-0.2L16.7,21.2z M10.5,17.2h5c-0.1-0.4-0.3-0.9-0.4-1.4
					c-0.2-0.5-0.4-1.1-0.5-1.7s-0.4-1.2-0.6-1.8c-0.2-0.6-0.4-1.2-0.5-1.8c-0.2-0.6-0.3-1.1-0.4-1.5l0,0c-0.2,0.9-0.4,1.7-0.7,2.6
					l-0.9,2.9C11.1,15.4,10.8,16.3,10.5,17.2L10.5,17.2z"/>
				<path id="Path_102392" class="st1" d="M27.3,8.6c-0.6,0-1.3-0.2-1.7-0.7c-0.5-0.5-0.7-1.1-0.7-1.8c0-0.7,0.2-1.3,0.7-1.8
					c0.5-0.5,1.1-0.7,1.8-0.7c0.7,0,1.3,0.2,1.8,0.7c0.9,1,0.9,2.6,0,3.6C28.7,8.4,28,8.7,27.3,8.6z M25.1,25.8V10.5
					c0-0.2,0.1-0.3,0.3-0.3h3.9c0.2,0,0.2,0.1,0.2,0.3v15.3c0,0.2-0.1,0.3-0.2,0.3h-3.9C25.2,26.1,25.1,26,25.1,25.8
					C25.1,25.8,25.1,25.8,25.1,25.8L25.1,25.8z"/>
			</g>
		</g>
	</g>
	<g>
		<g id="Surfaces_1_">
			<g id="Photo_Surface">
				<g id="Outline_no_shadow_1_">
					<path id="Rectangle_149582" class="st2" d="M105.2,0h32.1c4.3,0,7.7,3.5,7.7,7.7v30.9c0,4.3-3.5,7.7-7.7,7.7h-32.1
						c-4.3,0-7.7-3.5-7.7-7.7V7.7C97.5,3.5,100.9,0,105.2,0z"/>
				</g>
			</g>
		</g>
		<g id="Outlined_Mnemonics_Logos_1_" transform="translate(6.928 7.703)">
			<g id="Ps">
				<path id="Path_102258" class="st3" d="M101.2,24.8V4.4c0-0.2,0.1-0.2,0.2-0.2h6.2c1.4,0,2.8,0.2,4.1,0.6c1,0.3,1.9,0.9,2.7,1.6
					c0.6,0.6,1.1,1.4,1.5,2.2c0.3,0.8,0.4,1.7,0.4,2.6c0.1,1.5-0.4,3-1.2,4.2c-0.8,1.1-1.9,1.9-3.2,2.4c-1.4,0.5-3,0.7-4.5,0.7h-1.8
					v6.4c0,0.1-0.1,0.3-0.2,0.3h-3.9C101.3,25.1,101.2,25,101.2,24.8z M105.5,8v6.6h1.8c0.8,0,1.5-0.1,2.3-0.4
					c0.6-0.2,1.2-0.5,1.6-1c0.4-0.6,0.7-1.3,0.6-2c0-0.6-0.1-1.2-0.5-1.7c-0.3-0.5-0.8-0.9-1.4-1.1c-0.7-0.3-1.5-0.4-2.3-0.4h-1.4
					C106.1,8,105.8,8,105.5,8L105.5,8z"/>
				<path id="Path_102259" class="st3" d="M128.6,13.5c-0.6-0.3-1.2-0.5-1.9-0.7c-0.7-0.2-1.5-0.2-2.2-0.3c-0.4,0-0.8,0-1.2,0.1
					c-0.2,0.1-0.5,0.2-0.6,0.4c-0.1,0.2-0.2,0.4-0.2,0.6c0,0.2,0.1,0.4,0.2,0.5c0.2,0.2,0.4,0.4,0.7,0.5c0.5,0.2,0.9,0.5,1.4,0.7
					c1.1,0.4,2.1,0.8,3,1.5c0.7,0.4,1.2,1,1.6,1.6c0.3,0.6,0.5,1.3,0.5,2c0,0.9-0.2,1.8-0.8,2.6c-0.6,0.8-1.3,1.4-2.2,1.8
					c-1.1,0.5-2.4,0.7-3.6,0.6c-0.9,0-1.8-0.1-2.7-0.3c-0.7-0.1-1.4-0.3-2-0.6c-0.1-0.1-0.2-0.2-0.2-0.4v-3.4c0-0.1,0-0.1,0.1-0.2
					c0.1,0,0.1,0,0.2,0c0.8,0.5,1.6,0.8,2.5,1c0.8,0.2,1.5,0.3,2.3,0.3c0.6,0,1.1-0.1,1.6-0.3c0.3-0.1,0.6-0.5,0.5-0.9
					c0-0.3-0.2-0.6-0.5-0.8c-0.6-0.4-1.3-0.7-1.9-0.9c-1-0.3-2-0.8-2.8-1.4c-0.6-0.4-1.1-1-1.5-1.7c-0.3-0.6-0.5-1.3-0.5-2
					c0-0.8,0.2-1.7,0.7-2.4c0.5-0.8,1.2-1.4,2.1-1.8c1.1-0.5,2.3-0.7,3.5-0.7c0.8,0,1.6,0.1,2.5,0.2c0.6,0.1,1.2,0.2,1.7,0.5
					c0.1,0,0.2,0.1,0.2,0.2c0,0.1,0,0.2,0,0.2v3.2c0,0.1,0,0.2-0.1,0.2C128.7,13.5,128.6,13.5,128.6,13.5z"/>
			</g>
		</g>
	</g>
	<g>
		<line class="st4" x1="66.7" y1="17.7" x2="77.6" y2="28.7"/>
		<line class="st4" x1="66.7" y1="28.7" x2="77.6" y2="17.7"/>
	</g>
</g>
</svg>
