<svg xmlns="http://www.w3.org/2000/svg" width="43.687" height="44" viewBox="0 0 43.687 44">
  <g id="Ai_TWP_LP_Illustration4_Pattern_Icon3" transform="translate(-770.311 -1285)">
    <path id="Path_82918" data-name="Path 82918" d="M23.113,1H10.283A1.283,1.283,0,0,0,9,2.283V8.7h5.132A2.566,2.566,0,0,1,16.7,11.264V16.4h6.415A1.283,1.283,0,0,0,24.4,15.113V2.283A1.283,1.283,0,0,0,23.113,1Z" transform="translate(781.8 1284)" fill="#282828"/>
    <rect id="Rectangle_147832" data-name="Rectangle 147832" width="15" height="16" rx="0.5" transform="translate(770.311 1305.589)" fill="#282828"/>
    <path id="Path_82919" data-name="Path 82919" d="M12.7,15.264v4.48a15.846,15.846,0,0,1,7.7-7.355V6.283A1.283,1.283,0,0,0,19.113,5H6.283A1.283,1.283,0,0,0,5,6.283V12.7h5.132A2.566,2.566,0,0,1,12.7,15.264Z" transform="translate(775.398 1290.398)" fill="#282828"/>
    <path id="Path_82920" data-name="Path 82920" d="M20.518,9.1A11.418,11.418,0,1,0,31.937,20.518,11.418,11.418,0,0,0,20.518,9.1Zm6.415,12.06a.641.641,0,0,1-.641.641H21.8v4.49a.641.641,0,0,1-.641.641H19.877a.641.641,0,0,1-.641-.641V21.8h-4.49a.641.641,0,0,1-.641-.641V19.877a.641.641,0,0,1,.641-.641h4.49v-4.49a.641.641,0,0,1,.641-.641H21.16a.641.641,0,0,1,.641.641v4.49h4.49a.641.641,0,0,1,.641.641Z" transform="translate(782.06 1297.063)" fill="#282828"/>
  </g>
</svg>