<svg xmlns="http://www.w3.org/2000/svg" width="44.417" height="43.998" viewBox="0 0 44.417 43.998">
  <g id="Group_162037" data-name="Group 162037" transform="translate(-843.781 -1111.938)">
    <path id="Path_104060" data-name="Path 104060" d="M45.138,27.958a88.739,88.739,0,0,0-1.8-9.146c-.861-3.359-4.026-4.11-7.364-4.562L24.793,3.07a1.379,1.379,0,0,0-1.95,0h0L19.5,6.421l6.719,6.719a2.069,2.069,0,1,1-2.874,2.976l-.051-.051L16.574,9.346,1.186,24.734a1.379,1.379,0,0,0,0,1.95h0L16.015,41.5a1.379,1.379,0,0,0,1.95,0L39.439,19.99a1.379,1.379,0,0,0,.021-1.931.524.524,0,0,1,.781.205,9.164,9.164,0,0,1-.728,7.687,13.08,13.08,0,0,0-1.914,4.49A3.47,3.47,0,0,0,41.43,34.3C43.694,34.3,45.56,32.18,45.138,27.958Z" transform="translate(843 1114.037)" fill="#282828"/>
    <path id="Path_104061" data-name="Path 104061" d="M14.856,9.452l-7.9-7.906A2.07,2.07,0,1,0,4.024,4.471l7.906,7.906Z" transform="translate(847.637 1111)" fill="#282828"/>
  </g>
</svg>