<svg xmlns="http://www.w3.org/2000/svg" viewBox="0 0 45.95 33.86"><defs><style>.cls-1{fill:#282828;}</style></defs><g id="Layer_2" data-name="Layer 2"><g id="Layer_1-2" data-name="Layer 1"><path class="cls-1" d="M30.22.34C24.58-.56,18.6.34,17.77,3a2.94,2.94,0,0,0,1.67,3.75,4,4,0,0,1,1.76,5.38,3.82,3.82,0,0,1-.29.48,3.66,3.66,0,0,1-4,1.46C12,12.89,6.69,10.39,2.31,14.55c-4,3.8-2.37,9.44,1.5,12.51a30.21,30.21,0,0,0,18.73,6.8C34.92,33.86,46,26.57,46,16.93S36.7,1.37,30.22.34ZM11,27.84a4.91,4.91,0,1,1,4.91-4.9h0A4.9,4.9,0,0,1,11,27.84ZM35.86,7.15a3.23,3.23,0,1,1-3.23,3.22,3.22,3.22,0,0,1,3.23-3.22ZM22,30.56a4.6,4.6,0,1,1,4.6-4.6h0A4.59,4.59,0,0,1,22,30.56ZM32.1,28.63A3.88,3.88,0,1,1,36,24.74h0A3.88,3.88,0,0,1,32.1,28.63Zm6.36-7.1a3.46,3.46,0,1,1,3.46-3.46h0a3.46,3.46,0,0,1-3.45,3.46h0Z"/></g></g></svg>