<svg xmlns="http://www.w3.org/2000/svg" viewBox="0 0 46.16 46.16"><defs><style>.cls-1{fill:#fff;}.cls-2{fill:#282828;}</style></defs><g id="Layer_2" data-name="Layer 2"><g id="Layer_1-2" data-name="Layer 1"><circle class="cls-1" cx="17.62" cy="30.63" r="6.5"/><path class="cls-2" d="M17.62,38.18a7.55,7.55,0,1,1,7.56-7.55A7.52,7.52,0,0,1,17.62,38.18Zm0-13a5.46,5.46,0,1,0,5.46,5.45A5.41,5.41,0,0,0,17.62,25.18Z"/><circle class="cls-2" cx="17.62" cy="30.63" r="2.83"/><path class="cls-2" d="M0,9H36.82V46.16h4.83V6.61A2.38,2.38,0,0,0,39.23,4.2H0Z"/><rect class="cls-1" x="32.94" y="1.57" width="11.64" height="11.64"/><path class="cls-2" d="M46.16,14.79H31.37V0H46.16ZM34.51,11.64H43V3.15h-8.5Z"/></g></g></svg>