<?xml version="1.0"?>
<svg xmlns="http://www.w3.org/2000/svg" viewBox="0 0 51.212 59">
  <g id="lp_editing1_icon1" transform="translate(-3.202)">
    <rect id="Canvas" width="51" height="59" transform="translate(3.202)" fill="#282828" opacity="0"/>
    <path id="Path_82798" data-name="Path 82798" d="M19.192,22.587h4.8V5.8a.8.8,0,0,0-.8-.8H8V9.8H19.192Z" transform="translate(17.632 10.989)" fill="#282828"/>
    <path id="Path_82799" data-name="Path 82799" d="M38.974,30.18H14.192V3.8a.8.8,0,0,0-.8-.8h-3.2a.8.8,0,0,0-.8.8V9.4H3.8a.8.8,0,0,0-.8.8v3.2a.8.8,0,0,0,.8.8H9.4V34.178a.8.8,0,0,0,.8.8H30.18v5.6a.8.8,0,0,0,.8.8h3.2a.8.8,0,0,0,.8-.8v-5.6h4a.8.8,0,0,0,.8-.8v-3.2A.8.8,0,0,0,38.974,30.18Z" transform="translate(6.644 6.593)" fill="#282828"/>
    <path id="Path_82800" data-name="Path 82800" d="M19.879,4.8h-.368V.8a.8.8,0,0,0-.806-.8.787.787,0,0,0-.56.237L11.7,5.89a.79.79,0,0,0,0,1.01l6.447,5.654a.787.787,0,0,0,.56.237.8.8,0,0,0,.806-.8V7.927h.368a6.05,6.05,0,0,1,6.044,6.22V15.47a.521.521,0,0,0,.521.518h2.085a.521.521,0,0,0,.521-.521V14.143A9.181,9.181,0,0,0,19.879,4.8Z" transform="translate(25.361 0)" fill="#282828"/>
    <path id="Path_82801" data-name="Path 82801" d="M11.905,16.434a.787.787,0,0,0-.56-.237.8.8,0,0,0-.806.8v4.064h-.368a6.05,6.05,0,0,1-6.044-6.22V13.518A.521.521,0,0,0,3.607,13H1.522A.521.521,0,0,0,1,13.521v1.324a9.181,9.181,0,0,0,9.171,9.347h.368v4a.8.8,0,0,0,.806.8.787.787,0,0,0,.56-.237L18.352,23.1a.79.79,0,0,0,0-1.01Z" transform="translate(2.247 28.57)" fill="#282828"/>
  </g>
</svg>
