<?xml version="1.0"?>
<svg xmlns="http://www.w3.org/2000/svg" width="52.796" height="52.796" viewBox="0 0 52.796 52.796">
  <g id="lp_design2_icon1" transform="translate(-2.448 -2.449)">
    <rect id="Canvas" width="52" height="52" transform="translate(2.847 2.847)" fill="#282828" opacity="0"/>
    <path id="Path_82813" data-name="Path 82813" d="M52.4,38H18.8V4.4A2.4,2.4,0,0,0,16.4,2H14a2.4,2.4,0,0,0-2.4,2.4v7.2H4.4A2.4,2.4,0,0,0,2,14v2.4a2.4,2.4,0,0,0,2.4,2.4h7.2v24A2.4,2.4,0,0,0,14,45.2H38v7.2a2.4,2.4,0,0,0,2.4,2.4h2.4a2.4,2.4,0,0,0,2.4-2.4V45.2h7.2a2.4,2.4,0,0,0,2.4-2.4V40.4A2.4,2.4,0,0,0,52.4,38Z" transform="translate(0.449 0.449)" fill="#282828"/>
    <path id="Path_82814" data-name="Path 82814" d="M34.4,31.6h7.2V12.4A2.4,2.4,0,0,0,39.2,10H20v7.2H34.4Z" transform="translate(4.047 2.048)" fill="#282828"/>
  </g>
</svg>
