<svg xmlns="http://www.w3.org/2000/svg" width="44.003" height="44.002" viewBox="0 0 44.003 44.002">
  <path id="Ai_TWP_LP_Layout5_StyleText_Icon1" d="M42.423,12.618V4.371a.692.692,0,0,0-.692-.692H33.483a22.011,22.011,0,0,0-20.864,0H4.371a.692.692,0,0,0-.692.692v8.248a22.009,22.009,0,0,0,0,20.864v8.248a.692.692,0,0,0,.692.692h8.248a22.011,22.011,0,0,0,20.864,0h8.248a.692.692,0,0,0,.692-.692V33.483a22.009,22.009,0,0,0,0-20.865Zm-8.3-6.171h5.535v5.535H34.121Zm-27.674,0h5.535v5.535H6.447Zm5.535,33.209H6.447V34.121h5.535Zm27.674,0H34.121V34.121h5.535Zm.743-8.3H32.045a.692.692,0,0,0-.692.692V40.4a19.065,19.065,0,0,1-16.6,0V32.045a.692.692,0,0,0-.692-.692H5.7a19.065,19.065,0,0,1,0-16.6h8.353a.692.692,0,0,0,.692-.692V5.7a19.065,19.065,0,0,1,16.6,0v8.355a.692.692,0,0,0,.692.692H40.4a19.065,19.065,0,0,1,0,16.6Z" transform="translate(-1.05 -1.05)" fill="#282828"/>
</svg>