<svg xmlns="http://www.w3.org/2000/svg" width="36" height="44" viewBox="0 0 36 44">
  <g id="Ai_TWP_LP_Layout6_Align_Icon4" transform="translate(-847 -1080)">
    <rect id="Rectangle_151117" data-name="Rectangle 151117" width="13" height="31" rx="0.5" transform="translate(847 1093)" fill="#282828"/>
    <rect id="Rectangle_151118" data-name="Rectangle 151118" width="15" height="20" rx="0.5" transform="translate(868 1096)" fill="#282828"/>
    <path id="Path_104054" data-name="Path 104054" d="M19.529,9.706a.647.647,0,0,0,.647.647h1.294a.647.647,0,0,0,.647-.647V5.176h4.529a.647.647,0,0,0,.647-.647V3.235a.647.647,0,0,0-.647-.647H22.118V.647A.647.647,0,0,0,21.471,0H20.176a.647.647,0,0,0-.647.647V2.588H11.765V.647A.647.647,0,0,0,11.118,0H9.824a.647.647,0,0,0-.647.647V2.588H4.647A.647.647,0,0,0,4,3.235V4.529a.647.647,0,0,0,.647.647H9.176V9.706a.647.647,0,0,0,.647.647h1.294a.647.647,0,0,0,.647-.647V5.176h7.765Z" transform="translate(848.176 1080)" fill="#282828"/>
  </g>
</svg>