<?xml version="1.0"?>
<svg xmlns="http://www.w3.org/2000/svg" width="54" height="51.333" viewBox="0 0 54 51.333">
  <g id="lp_design4_icon1" transform="translate(-2 -4.667)">
    <rect id="Canvas" width="54" height="51" transform="translate(2 5)" fill="#282828" opacity="0"/>
    <path id="Path_82869" data-name="Path 82869" d="M51.04,29.816,44.314,23.09a1.3,1.3,0,0,0-.952-.42c-.015,0-.117-.014-.128-.014a1.575,1.575,0,0,0-1.057.5L26.212,39.119a1.15,1.15,0,0,0-.293.491L22.678,50.466c-.133.44.535.993.913.993a.342.342,0,0,0,.071-.007c.323-.075,9.178-2.736,10.864-3.242a1.148,1.148,0,0,0,.483-.291L50.977,31.953a1.6,1.6,0,0,0,.467-1.031A1.424,1.424,0,0,0,51.04,29.816Zm-25.317,18.6,2.35-7.855L33.58,46.05c-2.524.759-5.675,1.711-7.853,2.362Z" transform="translate(3.777 3.776)" fill="#282828"/>
    <path id="Path_82870" data-name="Path 82870" d="M26.37,38.915l2.247-2.248H6.667v-28h42V21.438a6.067,6.067,0,0,1,2.4,1.469l2.269,2.269V5.167A1.167,1.167,0,0,0,52.167,4h-49A1.167,1.167,0,0,0,2,5.167v35a1.167,1.167,0,0,0,1.167,1.167H24.909a5.86,5.86,0,0,1,1.462-2.419Z" transform="translate(0.333 0.667)" fill="#282828"/>
  </g>
</svg>
