<svg xmlns="http://www.w3.org/2000/svg" width="45.836" height="44.001" viewBox="0 0 45.836 44.001">
  <g id="Ai_TWP_LP_Layout2_BusinessCard_Icon1" transform="translate(-177 -1317.704)">
    <path id="Path_82946" data-name="Path 82946" d="M38.717,38.526l-8-10.686A15.308,15.308,0,1,0,4.425,19.045a8.362,8.362,0,0,0,2.9,1.631A12.751,12.751,0,1,1,18.905,30c-.04.024-.074.059-.113.082a15.711,15.711,0,0,1-4.461,1.612A15.278,15.278,0,0,0,26.3,31.081l8,10.687a2.746,2.746,0,0,0,4.417-3.242Z" transform="translate(183.695 1318.967)" fill="#282828"/>
    <path id="Path_82947" data-name="Path 82947" d="M27.233,12.291a14.213,14.213,0,0,1-6.644,8.888A14.34,14.34,0,0,1,1.727,15.751l3.078-1.7a10.625,10.625,0,0,0,13.87,3.676,9.692,9.692,0,0,0,5-6.5l-4.8-1.434,8.637-4.777,4.879,8.819Z" transform="translate(179.675 1323.675)" fill="#282828"/>
    <path id="Path_82948" data-name="Path 82948" d="M10.9,5.372a8.284,8.284,0,0,1,5.628-1.467,17.68,17.68,0,0,1,4.333-1.829A11.362,11.362,0,0,0,9,2.714a11.147,11.147,0,0,0-4.541,7.875L0,9.838l4.843,6.8L11.626,11.8,7.519,11.1A7.918,7.918,0,0,1,10.9,5.372Z" transform="translate(177 1317)" fill="#282828"/>
  </g>
</svg>