<svg version="1.1" id="Layer_1" xmlns="http://www.w3.org/2000/svg" xmlns:xlink="http://www.w3.org/1999/xlink" x="0px" y="0px"
	 viewBox="0 0 45 43.8" style="enable-background:new 0 0 45 43.8;" xml:space="preserve">
<style type="text/css">
	.st0{fill:none;stroke:#282828;stroke-width:3.8913;stroke-miterlimit:10;}
	.st1{fill:#282828;}
</style>
<g>
	<path class="st0" d="M36.9,42.2H8c-3.6,0-6.4-2.9-6.4-6.4V8c0-3.6,2.9-6.4,6.4-6.4h29c3.6,0,6.4,2.9,6.4,6.4v27.9
		C43.4,39.3,40.5,42.2,36.9,42.2z"/>
	<g>
		<path class="st1" d="M20,17.6l0.3-1h1.9c0.4-1.5,0.8-2.7,1.8-4c0.8-0.9,1.9-1.5,3.4-1.5c1.9,0,2.6,0.8,2.6,1.6
			c0,0.8-0.8,1.4-1.4,1.4c-0.4,0-0.7-0.2-0.8-0.7c-0.4-1.1-0.7-1.4-1-1.4c-0.4,0-0.8,0.4-1,1.5l-0.7,3h2.4l-0.3,1H25l-2,8.9
			c-0.9,4.1-2.7,6.2-5.4,6.2c-1.5,0-2.6-0.7-2.6-1.5c0-0.7,0.8-1.5,1.4-1.5c0.4,0,0.7,0.3,0.9,0.5c0.7,1.2,1.1,1.4,1.3,1.4
			c0.4,0,0.7-0.7,0.8-1.4c0.7-2.6,2-9.3,2.6-12.6h-2V17.6z"/>
	</g>
</g>
</svg>
