<svg xmlns="http://www.w3.org/2000/svg" width="50.285" height="43.999" viewBox="0 0 50.285 43.999">
  <g id="Ai_TWP_LP_Illustration2_Gradients_Icon1" transform="translate(-121 -1051)">
    <rect id="Rectangle_147882" data-name="Rectangle 147882" width="4" height="38" transform="translate(124 1054)" fill="#6e6e6e" opacity="0.9" style="isolation: isolate"/>
    <rect id="Rectangle_147883" data-name="Rectangle 147883" width="2" height="38" transform="translate(128 1054)" fill="#6e6e6e" opacity="0.8" style="isolation: isolate"/>
    <rect id="Rectangle_147884" data-name="Rectangle 147884" width="4" height="38" transform="translate(130 1054)" fill="#6e6e6e" opacity="0.7" style="isolation: isolate"/>
    <rect id="Rectangle_147885" data-name="Rectangle 147885" width="2" height="38" transform="translate(134 1054)" fill="#6e6e6e" opacity="0.6" style="isolation: isolate"/>
    <rect id="Rectangle_147886" data-name="Rectangle 147886" width="4" height="38" transform="translate(136 1054)" fill="#6e6e6e" opacity="0.5" style="isolation: isolate"/>
    <rect id="Rectangle_147887" data-name="Rectangle 147887" width="3" height="38" transform="translate(140 1054)" fill="#6e6e6e" opacity="0.4" style="isolation: isolate"/>
    <rect id="Rectangle_147888" data-name="Rectangle 147888" width="3" height="38" transform="translate(150 1054)" fill="#6e6e6e" opacity="0.25" style="isolation: isolate"/>
    <rect id="Rectangle_147889" data-name="Rectangle 147889" width="4" height="38" transform="translate(146 1054)" fill="#6e6e6e" opacity="0.3" style="isolation: isolate"/>
    <rect id="Rectangle_147890" data-name="Rectangle 147890" width="3" height="38" transform="translate(143 1054)" fill="#6e6e6e" opacity="0.35" style="isolation: isolate"/>
    <rect id="Rectangle_147891" data-name="Rectangle 147891" width="2" height="38" transform="translate(153 1054)" fill="#6e6e6e" opacity="0.2" style="isolation: isolate"/>
    <rect id="Rectangle_147892" data-name="Rectangle 147892" width="4" height="38" transform="translate(155 1054)" fill="#6e6e6e" opacity="0.15" style="isolation: isolate"/>
    <rect id="Rectangle_147893" data-name="Rectangle 147893" width="3" height="38" transform="translate(159 1054)" fill="#6e6e6e" opacity="0.1" style="isolation: isolate"/>
    <rect id="Rectangle_147894" data-name="Rectangle 147894" width="3" height="38" transform="translate(162 1054)" fill="#6e6e6e" opacity="0.05" style="isolation: isolate"/>
    <path id="Path_82955" data-name="Path 82955" d="M1,3.571V44.428A1.571,1.571,0,0,0,2.571,46H49.714a1.571,1.571,0,0,0,1.571-1.571V3.571A1.571,1.571,0,0,0,49.714,2H2.571A1.571,1.571,0,0,0,1,3.571ZM48.142,42.856h-44V5.143h44Z" transform="translate(120 1049)" fill="#282828"/>
  </g>
</svg>