<svg xmlns="http://www.w3.org/2000/svg" width="48" height="47.55" viewBox="0 0 48 47.55">
  <g id="lp_editing6_icon1" transform="translate(-4 -6.66)">
    <rect id="Canvas" width="48" height="47" transform="translate(4 6.73)" fill="#282828" opacity="0"/>
    <path id="Path_82889" data-name="Path 82889" d="M50.657,15.953C48.814,9.743,41.516,5.736,32.063,5.736a35.713,35.713,0,0,0-9.269,1.249C14.885,9.111,8.339,13.643,5.283,19.107a12.075,12.075,0,0,0-1.342,9.46,11.138,11.138,0,0,0,2.283,4.112A5.788,5.788,0,0,0,5.9,34.567c0,4.022,3.926,7.293,8.75,7.293a9.791,9.791,0,0,0,1.821-.21c1.057.935,2.5,2.5.654,4.346a31.99,31.99,0,0,1-5.149,3.586.574.574,0,0,0-.207.78l1.484,2.629a.581.581,0,0,0,.8.218,34.955,34.955,0,0,0,6.037-4.265,6.85,6.85,0,0,0,2.322-5.434,6.68,6.68,0,0,0-1.858-3.636,8.106,8.106,0,0,0,1.239-1.127h.046c.232.015.464.031.7.031A35.691,35.691,0,0,0,31.8,37.524c7.908-2.124,14.455-6.655,17.511-12.119a12.084,12.084,0,0,0,1.348-9.452ZM9.55,34.561a2.292,2.292,0,0,1,.036-.4l.046-.2a2.926,2.926,0,0,1,.259-.661,3.2,3.2,0,0,1,.336-.505,4.384,4.384,0,0,1,.773-.74,5.779,5.779,0,0,0,1.509,5.491c.042.041.146.138.3.279l.18.164.015.015C11,37.522,9.55,36.16,9.55,34.561Zm5.848.4a4.027,4.027,0,0,1-.186-4.017c2.533.206,4.534,1.776,4.534,3.619a2.809,2.809,0,0,1-.729,1.8c-.056.053-.116.116-.153.156a3.744,3.744,0,0,1-1,.834C17.276,36.787,15.456,35.029,15.4,34.96ZM45.721,23.4C43.2,27.914,37.594,31.71,30.736,33.556a32,32,0,0,1-6.875,1.082c0-.026,0-.052,0-.078,0-4.276-4.135-7.755-9.214-7.755A10.136,10.136,0,0,0,8.5,28.79a6.183,6.183,0,0,1-.62-1.393,8.087,8.087,0,0,1,.989-6.278C11.4,16.607,17,12.81,23.861,10.962a31.733,31.733,0,0,1,8.2-1.115c7.589,0,13.337,2.857,14.648,7.277a8.068,8.068,0,0,1-.986,6.274Z" transform="translate(0.566 0.924)" fill="#282828"/>
  </g>
</svg>
