<?xml version="1.0"?>
<svg xmlns="http://www.w3.org/2000/svg" viewBox="0 0 40.24 48">
  <g id="lp_editing2_icon4" transform="translate(-3.882)">
    <rect id="Canvas" width="40" height="48" transform="translate(4)" fill="#282828" opacity="0"/>
    <path id="Path_82830" data-name="Path 82830" d="M43.842,35.724,36.75,32.171,24,38.558,11.25,32.171,4.158,35.724a.5.5,0,0,0,0,.894l19.394,9.716a1,1,0,0,0,.9,0l19.394-9.716a.5.5,0,0,0,0-.894Z" fill="#282828"/>
    <path id="Path_82831" data-name="Path 82831" d="M43.842,23.724,36.75,20.171,24,26.558,11.25,20.171,4.158,23.724a.5.5,0,0,0,0,.894l19.394,9.716a1,1,0,0,0,.9,0l19.394-9.716a.5.5,0,0,0,0-.894Z" fill="#282828"/>
    <path id="Path_82832" data-name="Path 82832" d="M23.552,22.334,4.158,12.618a.5.5,0,0,1,0-.894L23.552,2.008a1,1,0,0,1,.9,0l19.394,9.716a.5.5,0,0,1,0,.894l-19.4,9.716A1,1,0,0,1,23.552,22.334Z" fill="#282828"/>
  </g>
</svg>
