<svg xmlns="http://www.w3.org/2000/svg" viewBox="0 0 38.26 43.06"><defs><style>.cls-1{fill:#282828;}</style></defs><g id="Layer_2" data-name="Layer 2"><g id="Layer_1-2" data-name="Layer 1"><path class="cls-1" d="M38.26,1.37A1.36,1.36,0,0,0,36.9,0a1.5,1.5,0,0,0-.37.05L14.7,6.12a1.35,1.35,0,0,0-1,1.31V30a9,9,0,0,0-8.39.08C1.08,32.15-1.07,36.5.53,39.77S6.87,44.05,11.11,42a8.75,8.75,0,0,0,5.32-7.27V14.2l19.1-5.46V24.55a9,9,0,0,0-8.38.08C22.9,26.7,20.76,31,22.36,34.32s6.33,4.27,10.58,2.2a8.76,8.76,0,0,0,5.32-7.3Z"/></g></g></svg>