<?xml version="1.0"?>
<svg xmlns="http://www.w3.org/2000/svg" width="37.404" height="46.404" viewBox="0 0 37.404 46.404">
  <g id="lp_design6_icon3" transform="translate(-9 -4.651)">
    <rect id="Canvas" width="37" height="46" transform="translate(9 4.696)" fill="#282828" opacity="0"/>
    <path id="Path_82836" data-name="Path 82836" d="M29.091,4H10.32A2.32,2.32,0,0,0,8,6.32V48.084a2.32,2.32,0,0,0,2.32,2.32H42.8a2.32,2.32,0,0,0,2.32-2.32V20.033a4.64,4.64,0,0,0-1.359-3.28L32.371,5.36A4.64,4.64,0,0,0,29.091,4ZM40.483,45.764H12.64V8.64H26.562v11.6a2.32,2.32,0,0,0,2.32,2.32h11.6ZM31.2,17.921V10.752l7.169,7.169Z" transform="translate(1.281 0.652)" fill="#282828"/>
  </g>
</svg>
