<svg xmlns="http://www.w3.org/2000/svg" width="54.854" height="42.502" viewBox="0 0 54.854 42.502">
  <path id="Ai_TWP_LP_Layout5_StyleText_Icon4" d="M46.771,18.347V10.173a1.635,1.635,0,0,0-1.635-1.635l-20.159.013L19.583,2.994A3.269,3.269,0,0,0,17.231,2H4.269A3.269,3.269,0,0,0,1,5.269v37.6A1.635,1.635,0,0,0,2.635,44.5h43a1.635,1.635,0,0,0,1.53-1.061L55.75,20.555a1.635,1.635,0,0,0-1.53-2.208ZM4.269,5.269H17.231l5.4,5.558.964.992h1.381L43.5,11.808v6.539H11.941a1.635,1.635,0,0,0-1.53,1.061L4.269,35.784Z" transform="translate(-1 -2)" fill="#282828"/>
</svg>