<svg xmlns="http://www.w3.org/2000/svg" width="42.999" height="42.999" viewBox="0 0 42.999 42.999">
  <path id="Ai_TWP_LP_Layout3_Artboards_Icon3" d="M42.655,6.375H38.624V2.344A1.344,1.344,0,0,0,37.28,1H2.344A1.344,1.344,0,0,0,1,2.344V37.28a1.344,1.344,0,0,0,1.344,1.344H6.375v4.031A1.344,1.344,0,0,0,7.719,44H42.655A1.344,1.344,0,0,0,44,42.655V7.719A1.344,1.344,0,0,0,42.655,6.375ZM3.687,35.936V3.687H35.936V6.375H7.719A1.344,1.344,0,0,0,6.375,7.719V35.936Zm37.624,5.375H9.062V9.062H27.874V27.874l5.375-4.031,5.375,4.031V9.062h2.687Z" transform="translate(-1 -1)" fill="#282828"/>
</svg>