<svg xmlns="http://www.w3.org/2000/svg" width="43.011" height="43" viewBox="0 0 43.011 43">
  <g id="Ai_TWP_LP_Illustration3_MinimalistArtwork_Icon2" transform="translate(-442.02 -1035.04)">
    <path id="Path_102593" data-name="Path 102593" d="M25.864,4,5.127,24.74a1.338,1.338,0,0,0-.339.568L1.04,37.865c-.154.507.619,1.147,1.056,1.147A.421.421,0,0,0,2.18,39c.372-.086,10.614-3.163,12.562-3.748a1.328,1.328,0,0,0,.56-.337l20.743-20.74ZM13.648,32.76c-2.916.876-6.56,1.977-9.079,2.728l2.711-9.08Z" transform="translate(441 1039.028)" fill="#282828"/>
    <path id="Path_102594" data-name="Path 102594" d="M26.714,9.3,18.933,1.516a1.639,1.639,0,0,0-1.168-.476h-.046a1.851,1.851,0,0,0-1.251.549L10.936,7.12,21.114,17.3l5.532-5.532a1.851,1.851,0,0,0,.54-1.191A1.651,1.651,0,0,0,26.714,9.3Z" transform="translate(457.842 1034)" fill="#282828"/>
  </g>
</svg>