<?xml version="1.0" encoding="utf-8"?>
<!-- Generator: Adobe Illustrator 24.0.1, SVG Export Plug-In . SVG Version: 6.00 Build 0)  -->
<svg version="1.1" id="Layer_1" xmlns="http://www.w3.org/2000/svg" xmlns:xlink="http://www.w3.org/1999/xlink" x="0px" y="0px"
	 viewBox="0 0 128 128" style="enable-background:new 0 0 128 128;" xml:space="preserve">
<image style="display:none;overflow:visible;" width="102" height="88" xlink:href="../../../../../Desktop/deb387d2-repositioning-2x_02u02u02u02g000006001.png"  transform="matrix(1.1921 0 0 1.1775 1.2879 10.5217)">
</image>
<polygon points="14.5,16.4 7.3,16.4 7.3,23.2 7.3,42.7 14.5,42.7 14.5,23.2 34.4,23.2 34.4,16.4 "/>
<polygon points="7.7,102.1 7.7,109.3 14.4,109.3 34,109.3 34,102.1 14.4,102.1 14.4,82.3 7.7,82.3 "/>
<polygon points="114.5,23.2 114.5,16 107.8,16 88.3,16 88.3,23.2 107.8,23.2 107.8,43.1 114.5,43.1 "/>
<polygon points="107.7,108.9 114.9,108.9 114.9,102.2 114.9,82.7 107.7,82.7 107.7,102.2 87.9,102.2 87.9,108.9 "/>
<rect x="27.2" y="37.3" width="67.3" height="51.4"/>
</svg>
