<svg xmlns="http://www.w3.org/2000/svg" width="43.223" height="44" viewBox="0 0 43.223 44">
  <g id="Ai_TWP_LP_Layout2_BusinessCard_Icon4" transform="translate(-820.258 -1118.9)">
    <ellipse id="Ellipse_92" data-name="Ellipse 92" cx="1.511" cy="1.511" rx="1.511" ry="1.511" transform="translate(852.005 1156.076)" fill="#282828"/>
    <ellipse id="Ellipse_93" data-name="Ellipse 93" cx="1.511" cy="1.511" rx="1.511" ry="1.511" transform="translate(856.943 1150.771)" fill="#282828"/>
    <ellipse id="Ellipse_94" data-name="Ellipse 94" cx="1.511" cy="1.511" rx="1.511" ry="1.511" transform="translate(845.479 1159.209)" fill="#282828"/>
    <ellipse id="Ellipse_95" data-name="Ellipse 95" cx="1.511" cy="1.511" rx="1.511" ry="1.511" transform="translate(838.347 1159.878)" fill="#282828"/>
    <ellipse id="Ellipse_96" data-name="Ellipse 96" cx="1.511" cy="1.511" rx="1.511" ry="1.511" transform="translate(831.37 1158.042)" fill="#282828"/>
    <ellipse id="Ellipse_97" data-name="Ellipse 97" cx="1.511" cy="1.511" rx="1.511" ry="1.511" transform="translate(825.41 1153.884)" fill="#282828"/>
    <ellipse id="Ellipse_98" data-name="Ellipse 98" cx="1.511" cy="1.511" rx="1.511" ry="1.511" transform="translate(821.409 1148.138)" fill="#282828"/>
    <path id="Path_82944" data-name="Path 82944" d="M22.511.9A21.882,21.882,0,0,0,7.038,7.3l-4.7-3.243A.686.686,0,0,0,1.262,4.7L2.7,18.735l13.589-3.68a.687.687,0,0,0,.21-1.228l-4.593-3.159A18.567,18.567,0,0,1,23.848,6.41a17.32,17.32,0,0,1,17.87,16.6v.038a20.388,20.388,0,0,1-.472,4.129,1.38,1.38,0,1,0,2.694.549A21.974,21.974,0,0,0,22.511.9Z" transform="translate(819 1118)" fill="#282828"/>
  </g>
</svg>