<svg xmlns="http://www.w3.org/2000/svg" viewBox="0 0 42.9 42.9"><defs><style>.cls-1{fill:#282828;}</style></defs><g id="Layer_2" data-name="Layer 2"><g id="Layer_1-2" data-name="Layer 1"><g id="Smock_VideoOutline_18_N" data-name="Smock VideoOutline 18 N"><path id="Path_104070" data-name="Path 104070" class="cls-1" d="M41.37,0H1.53A1.54,1.54,0,0,0,0,1.53H0V41.37A1.54,1.54,0,0,0,1.53,42.9H41.37a1.54,1.54,0,0,0,1.53-1.53h0V1.53A1.54,1.54,0,0,0,41.37,0ZM9.19,39.07a.77.77,0,0,1-.77.77H3.83a.77.77,0,0,1-.77-.77v-4.6a.76.76,0,0,1,.77-.77h4.6a.77.77,0,0,1,.77.77Zm0-10.28a.77.77,0,0,1-.77.78H3.83a.77.77,0,0,1-.77-.78V24.2a.76.76,0,0,1,.77-.77h4.6a.77.77,0,0,1,.77.77Zm0-10.09a.76.76,0,0,1-.77.77H3.83a.76.76,0,0,1-.77-.77V14.1a.77.77,0,0,1,.77-.77h4.6a.78.78,0,0,1,.77.77Zm0-10.27a.77.77,0,0,1-.77.77H3.83a.77.77,0,0,1-.77-.77V3.83a.76.76,0,0,1,.77-.77h4.6a.77.77,0,0,1,.77.77Zm21.44,31.4H12.26V24.51H30.64Zm0-21.44H12.26V3.06H30.64Zm9.2,20.69a.78.78,0,0,1-.78.77H34.46a.77.77,0,0,1-.77-.77v-4.6a.76.76,0,0,1,.77-.77h4.59a.77.77,0,0,1,.78.77Zm0-10.28a.77.77,0,0,1-.78.77H34.46a.76.76,0,0,1-.77-.77V24.2a.77.77,0,0,1,.77-.77h4.59a.78.78,0,0,1,.78.77Zm0-10.09a.78.78,0,0,1-.78.77H34.46a.77.77,0,0,1-.77-.77v-4.6a.77.77,0,0,1,.77-.77h4.59a.78.78,0,0,1,.78.77Zm0-10.28a.78.78,0,0,1-.78.78H34.46a.77.77,0,0,1-.77-.78V3.83a.76.76,0,0,1,.77-.77h4.59a.77.77,0,0,1,.78.77Z"/></g></g></g></svg>