<svg xmlns="http://www.w3.org/2000/svg" width="51.537" height="44" viewBox="0 0 51.537 44">
  <path id="Ai_TWP_LP_Illustration1_Logo_Icon1" d="M34.288,46.1a18.026,18.026,0,0,1-17.62-14.387l-.051-.255H1.153A.408.408,0,0,1,.8,31.25a.392.392,0,0,1,0-.408l16.3-28.536a.416.416,0,0,1,.717,0l6.283,11,.287-.191A17.982,17.982,0,1,1,34.288,46.1ZM19.8,31.857a14.954,14.954,0,1,0,6.041-16.086l-.244.159,8.517,14.9a.4.4,0,0,1,0,.408.41.41,0,0,1-.359.209H19.7Z" transform="translate(-0.739 -2.101)" fill="#282828"/>
</svg>