<svg xmlns="http://www.w3.org/2000/svg" viewBox="0 0 38.33 45.6"><defs><style>.cls-1{fill:#282828;}.cls-2{fill:#9b999a;}.cls-3{fill:#fff;stroke:#282828;stroke-miterlimit:10;}</style></defs><g id="Layer_2" data-name="Layer 2"><g id="Layer_1-2" data-name="Layer 1"><rect class="cls-1" x="13.31" y="16.29" width="19.22" height="19.22"/><path class="cls-1" d="M26.43,0H8.79A1.28,1.28,0,0,0,7.51,1.28V39.81A1.28,1.28,0,0,0,8.79,41.1H37.05a1.28,1.28,0,0,0,1.28-1.29V11.9a2.58,2.58,0,0,0-.75-1.82L28.25.75A2.58,2.58,0,0,0,26.43,0Zm9.33,38.53H10.08v-36H25.64V11.4a1.29,1.29,0,0,0,1.29,1.29h8.83Zm-7.7-28.26V4.19l6.08,6.08Z"/><polygon class="cls-2" points="28.06 10.25 28.06 4.17 34.14 10.25 28.06 10.25"/><rect class="cls-3" x="0.5" y="26.99" width="18.11" height="18.11"/></g></g></svg>