<?xml version="1.0"?>
<svg xmlns="http://www.w3.org/2000/svg" viewBox="0 0 55.102 39.286">
  <g id="lp_editing1_icon2" transform="translate(0.473 -5.703)">
    <rect id="Canvas" width="55" height="39" transform="translate(-0.473 5.703)" fill="#282828" opacity="0"/>
    <path id="Path_82802" data-name="Path 82802" d="M53.826,7H.8a.8.8,0,0,0-.8.8V28.691a.8.8,0,0,0,.8.8H53.826a.8.8,0,0,0,.8-.8V7.8A.8.8,0,0,0,53.826,7ZM35.692,10.214l.029,1.555c0,3.345-5.357,5.032-8.407,5.032s-8.435-1.687-8.435-4.981V10.214ZM9.641,26.281H3.214V10.214H9.641Zm32.135,0H12.854V10.214h3.214V11.82c0,4.82,5.036,8.034,11.247,8.034s11.247-3.214,11.247-8.034V10.214h3.214Zm9.641,0H44.989V10.214h6.427Z" transform="translate(0 15.495)" fill="#282828"/>
    <circle id="Ellipse_2" data-name="Ellipse 2" cx="2.089" cy="2.089" r="2.089" transform="translate(9.158 15.585)" fill="#282828"/>
    <circle id="Ellipse_3" data-name="Ellipse 3" cx="2.089" cy="2.089" r="2.089" transform="translate(41.294 15.585)" fill="#282828"/>
    <circle id="Ellipse_4" data-name="Ellipse 4" cx="2.089" cy="2.089" r="2.089" transform="translate(25.226 5.945)" fill="#282828"/>
    <circle id="Ellipse_5" data-name="Ellipse 5" cx="2.089" cy="2.089" r="2.089" transform="translate(15.585 9.158)" fill="#282828"/>
    <circle id="Ellipse_6" data-name="Ellipse 6" cx="2.089" cy="2.089" r="2.089" transform="translate(34.867 9.158)" fill="#282828"/>
  </g>
</svg>
