<svg xmlns="http://www.w3.org/2000/svg" width="41" height="44" viewBox="0 0 41 44">
  <g id="Ai_TWP_LP_Illustration4_Pattern_Icon2" transform="translate(-52.45 -1338.139)">
    <rect id="Rectangle_147812" data-name="Rectangle 147812" width="8" height="6" rx="0.25" transform="translate(52.45 1340.139)" fill="#282828"/>
    <rect id="Rectangle_147813" data-name="Rectangle 147813" width="3" height="10" rx="0.25" transform="translate(63.45 1338.139)" fill="#282828"/>
    <rect id="Rectangle_147814" data-name="Rectangle 147814" width="7" height="6" rx="0.25" transform="translate(69.45 1340.139)" fill="#282828"/>
    <rect id="Rectangle_147815" data-name="Rectangle 147815" width="8" height="6" rx="0.25" transform="translate(85.45 1340.139)" fill="#282828"/>
    <rect id="Rectangle_147816" data-name="Rectangle 147816" width="3" height="10" rx="0.25" transform="translate(79.45 1338.139)" fill="#282828"/>
    <rect id="Rectangle_147817" data-name="Rectangle 147817" width="8" height="6" rx="0.25" transform="translate(52.45 1363.139)" fill="#282828"/>
    <rect id="Rectangle_147818" data-name="Rectangle 147818" width="3" height="12" rx="0.25" transform="translate(63.45 1360.139)" fill="#282828"/>
    <rect id="Rectangle_147819" data-name="Rectangle 147819" width="7" height="6" rx="0.25" transform="translate(69.45 1363.139)" fill="#282828"/>
    <rect id="Rectangle_147820" data-name="Rectangle 147820" width="8" height="6" rx="0.25" transform="translate(85.45 1363.139)" fill="#282828"/>
    <rect id="Rectangle_147821" data-name="Rectangle 147821" width="3" height="12" rx="0.25" transform="translate(79.45 1360.139)" fill="#282828"/>
    <rect id="Rectangle_147822" data-name="Rectangle 147822" width="3" height="12" rx="0.25" transform="translate(54.45 1348.139)" fill="#282828"/>
    <rect id="Rectangle_147823" data-name="Rectangle 147823" width="9" height="6" rx="0.25" transform="translate(60.45 1351.139)" fill="#282828"/>
    <rect id="Rectangle_147824" data-name="Rectangle 147824" width="9" height="6" rx="0.25" transform="translate(76.45 1351.139)" fill="#282828"/>
    <rect id="Rectangle_147825" data-name="Rectangle 147825" width="1" height="12" rx="0.25" transform="translate(72.45 1348.139)" fill="#282828"/>
    <rect id="Rectangle_147826" data-name="Rectangle 147826" width="3" height="12" rx="0.25" transform="translate(88.45 1348.139)" fill="#282828"/>
    <rect id="Rectangle_147827" data-name="Rectangle 147827" width="3" height="10" rx="0.25" transform="translate(54.45 1372.139)" fill="#282828"/>
    <rect id="Rectangle_147828" data-name="Rectangle 147828" width="9" height="6" rx="0.25" transform="translate(60.45 1374.139)" fill="#282828"/>
    <rect id="Rectangle_147829" data-name="Rectangle 147829" width="9" height="6" rx="0.25" transform="translate(76.45 1374.139)" fill="#282828"/>
    <rect id="Rectangle_147830" data-name="Rectangle 147830" width="1" height="10" rx="0.25" transform="translate(72.45 1372.139)" fill="#282828"/>
    <rect id="Rectangle_147831" data-name="Rectangle 147831" width="3" height="10" rx="0.25" transform="translate(88.45 1372.139)" fill="#282828"/>
  </g>
</svg>