<svg xmlns="http://www.w3.org/2000/svg" viewBox="0 0 45.59 45.59"><defs><style>.cls-1{fill:#e93fd5;fill-opacity:0;}.cls-2{fill:#282828;}</style></defs><g id="Layer_2" data-name="Layer 2"><g id="Layer_1-2" data-name="Layer 1"><rect id="Canvas" class="cls-1" width="45.59" height="45.59"/><path class="cls-2" d="M20.26,35.46V10.13H30.39v3.8a1.27,1.27,0,0,0,1.27,1.27h2.53a1.27,1.27,0,0,0,1.27-1.27V6.33a1.26,1.26,0,0,0-1.27-1.26H1.27A1.26,1.26,0,0,0,0,6.33v7.6A1.27,1.27,0,0,0,1.27,15.2H3.8a1.27,1.27,0,0,0,1.27-1.27v-3.8H15.2V35.46H11.4a1.26,1.26,0,0,0-1.27,1.26v2.54a1.26,1.26,0,0,0,1.27,1.26h7.17Z"/><path class="cls-2" d="M45.14,26.19l-5.48-5.47a1.36,1.36,0,0,0-.86-.34,1.44,1.44,0,0,0-.88.38L23.69,35a.9.9,0,0,0-.23.4l-3.1,9.29c-.11.36.44.81.75.81h.05c.27-.07,7.93-2.69,9.3-3.1a.91.91,0,0,0,.4-.24L45.08,27.93a1.26,1.26,0,0,0,.38-.83A1.17,1.17,0,0,0,45.14,26.19ZM22.84,43l2.51-7,4.48,4.47C27.78,41.12,24.62,42.49,22.84,43Z"/></g></g></svg>