<svg xmlns="http://www.w3.org/2000/svg" viewBox="0 0 46.5 41.89"><defs><style>.cls-1{fill:#282828;}.cls-2{fill:none;stroke:#282828;stroke-miterlimit:10;stroke-width:3px;}</style></defs><g id="Layer_2" data-name="Layer 2"><g id="Layer_1-2" data-name="Layer 1"><path id="Ai_TWP_LP_Layout6_Align_Icon2" data-name="Ai TWP LP Layout6 Align Icon2" class="cls-1" d="M32.08.22A.76.76,0,0,0,31,.23L27.8,3.51a.76.76,0,0,0,0,1.07l1.09,1.07a.76.76,0,0,0,1.08,0L31.58,4,36,8.26,25.3,19.17l-1.63-1.59a.76.76,0,0,0-1.08,0h0l-1.07,1.09a.77.77,0,0,0,0,1.08L27,25.08a.75.75,0,0,0,1.07,0h0L29.14,24a.77.77,0,0,0,0-1.08h0l-1.64-1.6L38.13,10.39l4.37,4.25-1.6,1.64a.77.77,0,0,0,0,1.08h0L42,18.42a.76.76,0,0,0,1.08,0l3.19-3.27a.76.76,0,0,0,0-1.08h0Z"/><path class="cls-2" d="M1.58,21.46C.72,16,6.73,13.78,9,16c5.81,5.81,20.93,20.75,23.5,23.32s8.86,0,8.26-5.41"/></g></g></svg>