<svg xmlns="http://www.w3.org/2000/svg" viewBox="0 0 43.37 26.59"><defs><style>.cls-1{fill:#282828;}</style></defs><g id="Layer_2" data-name="Layer 2"><g id="Layer_1-2" data-name="Layer 1"><path class="cls-1" d="M26,11.92a4.66,4.66,0,0,1-2.71.61,1.12,1.12,0,0,1-.84-.37,1.23,1.23,0,0,1-.1-.91,28.06,28.06,0,0,1,1-4.21,6.77,6.77,0,0,0-1.7-.22,6.56,6.56,0,1,0,5.88,3.63A4.64,4.64,0,0,1,26,11.92Z"/><path class="cls-1" d="M42.85,12.25a31.47,31.47,0,0,0-14.34-11A21.24,21.24,0,0,0,21.68,0C10.83-.14,3.31,8.49.52,12.25a3,3,0,0,0,0,3.35c2.51,3.2,9.61,10.86,21.16,11h.42c11.42,0,18.24-7.65,20.75-11A3,3,0,0,0,42.85,12.25ZM21.68,22.56a9.27,9.27,0,0,1-9.18-9.19,9.19,9.19,0,1,1,9.18,9.19Z"/></g></g></svg>